<svg width="32" height="32" viewBox="0 0 32 32" fill="none" xmlns="http://www.w3.org/2000/svg">
<rect width="32" height="32" rx="16" fill="white" fill-opacity="0.16"/>
<path d="M9.125 5.65234C8.56141 5.65234 8.02091 5.87623 7.6224 6.27474C7.22388 6.67326 7 7.21376 7 7.77734C7 8.34093 7.22388 8.88143 7.6224 9.27995C8.02091 9.67846 8.56141 9.90234 9.125 9.90234C9.68859 9.90234 10.2291 9.67846 10.6276 9.27995C11.0261 8.88143 11.25 8.34093 11.25 7.77734C11.25 7.21376 11.0261 6.67326 10.6276 6.27474C10.2291 5.87623 9.68859 5.65234 9.125 5.65234ZM7.125 11.6523C7.09185 11.6523 7.06005 11.6655 7.03661 11.689C7.01317 11.7124 7 11.7442 7 11.7773V24.7773C7 24.8463 7.056 24.9023 7.125 24.9023H11.125C11.1582 24.9023 11.1899 24.8892 11.2134 24.8657C11.2368 24.8423 11.25 24.8105 11.25 24.7773V11.7773C11.25 11.7442 11.2368 11.7124 11.2134 11.689C11.1899 11.6655 11.1582 11.6523 11.125 11.6523H7.125ZM13.625 11.6523C13.5918 11.6523 13.5601 11.6655 13.5366 11.689C13.5132 11.7124 13.5 11.7442 13.5 11.7773V24.7773C13.5 24.8463 13.556 24.9023 13.625 24.9023H17.625C17.6582 24.9023 17.6899 24.8892 17.7134 24.8657C17.7368 24.8423 17.75 24.8105 17.75 24.7773V17.7773C17.75 17.2801 17.9475 16.8031 18.2992 16.4515C18.6508 16.0999 19.1277 15.9023 19.625 15.9023C20.1223 15.9023 20.5992 16.0999 20.9508 16.4515C21.3025 16.8031 21.5 17.2801 21.5 17.7773V24.7773C21.5 24.8463 21.556 24.9023 21.625 24.9023H25.625C25.6582 24.9023 25.6899 24.8892 25.7134 24.8657C25.7368 24.8423 25.75 24.8105 25.75 24.7773V16.1573C25.75 13.7303 23.64 11.8323 21.225 12.0513C20.4778 12.1194 19.7459 12.3043 19.056 12.5993L17.75 13.1593V11.7773C17.75 11.7442 17.7368 11.7124 17.7134 11.689C17.6899 11.6655 17.6582 11.6523 17.625 11.6523H13.625Z" fill="url(#paint0_linear_40432_2813)"/>
<defs>
<linearGradient id="paint0_linear_40432_2813" x1="9.13905" y1="-0.677099" x2="68.905" y2="49.7053" gradientUnits="userSpaceOnUse">
<stop stop-color="#A854E9"/>
<stop offset="1" stop-color="#4F91FC"/>
</linearGradient>
</defs>
</svg>
