<svg width="72" height="73" viewBox="0 0 72 73" fill="none" xmlns="http://www.w3.org/2000/svg">
<rect y="0.890625" width="72" height="72" rx="36" fill="url(#paint0_linear_40432_2519)" fill-opacity="0.16"/>
<path d="M34.7753 15.9726C33.789 16.3425 33.074 16.9918 32.6055 17.9452C32.3507 18.4713 32.3425 18.5288 32.3425 19.5151C32.3425 20.5178 32.3507 20.5589 32.6219 21.1178C32.9671 21.8165 33.6411 22.5069 34.2986 22.8274L34.7671 23.0576V24.4384V25.8192L34.0274 25.9589C32.4986 26.2384 30.9945 26.8466 29.7699 27.685L29.1123 28.1288L28.1507 27.1589L27.189 26.1891L27.3123 25.7945C27.6164 24.8411 27.5589 23.9123 27.1315 23C26.4082 21.4466 24.5753 20.6 22.8904 21.0356C21.5014 21.4055 20.5397 22.3589 20.1781 23.7644C19.9397 24.6685 20.0548 25.5397 20.5233 26.4439C21.3452 28.0137 23.2356 28.7617 24.937 28.1781L25.3315 28.0384L26.3014 29.0082L27.2712 29.9699L26.8274 30.6274C25.989 31.8521 25.3808 33.3562 25.1014 34.885L24.9616 35.6247H23.5808H22.2L21.9699 35.1562C21.6493 34.4986 20.9589 33.8247 20.2603 33.4795C19.7014 33.2082 19.6603 33.2 18.6575 33.2C17.6548 33.2 17.6137 33.2082 17.0548 33.4795C16.2986 33.8493 15.6493 34.4986 15.2795 35.2548C15.0082 35.8137 15 35.8548 15 36.8576C15 37.8603 15.0082 37.9014 15.2795 38.4603C15.6493 39.2165 16.3068 39.8658 17.0548 40.2274C17.5644 40.474 17.7205 40.5151 18.4685 40.5397C19.1671 40.5726 19.389 40.548 19.8411 40.3918C20.7863 40.0795 21.5342 39.4219 21.9945 38.5014L22.2 38.0904H23.5808H24.9616L25.1014 38.8302C25.3808 40.3589 25.989 41.863 26.8274 43.0877L27.2712 43.7452L26.3014 44.7069L25.3315 45.6685L24.937 45.5452C23.9836 45.2411 23.0548 45.2986 22.1425 45.726C20.589 46.4493 19.7425 48.2822 20.1781 49.9507C20.7041 51.9808 22.7096 53.1973 24.6822 52.6795C26.8274 52.1206 27.9863 50.0247 27.3123 47.9206L27.189 47.526L28.1507 46.5562L29.1123 45.5863L29.7863 46.0384C31.0521 46.8932 32.4986 47.4767 34.0274 47.7562L34.7671 47.8959V49.2767V50.6576L34.2986 50.8877C33.6411 51.2082 32.9671 51.8986 32.6219 52.5973C32.3507 53.1562 32.3425 53.1973 32.3425 54.2C32.3425 55.1863 32.3507 55.2439 32.6055 55.7699C33.0822 56.7397 33.8055 57.3891 34.8164 57.7425C35.2192 57.8822 35.4493 57.9069 36.1644 57.8822C36.9452 57.8576 37.0849 57.8247 37.6027 57.5699C38.3589 57.2082 39.0082 56.5589 39.3781 55.8028C39.6493 55.2439 39.6575 55.2028 39.6575 54.2C39.6575 53.2055 39.6493 53.1562 39.3863 52.6137C39.0411 51.9151 38.3507 51.2 37.7014 50.8877L37.2329 50.6576V49.2767V47.8959L37.9726 47.7562C39.5014 47.4767 40.9479 46.8932 42.2137 46.0384L42.8877 45.5863L43.8493 46.5562L44.811 47.526L44.6877 47.9206C44.3753 48.8822 44.4329 49.7945 44.8685 50.7233C45.3205 51.685 46.1918 52.3918 47.3014 52.6795C49.9973 53.3781 52.5205 50.8548 51.8219 48.1589C51.263 46.0302 49.1671 44.8795 47.063 45.5452L46.6685 45.6685L45.6986 44.7069L44.7288 43.7452L45.1808 43.0713C46.0356 41.8055 46.6192 40.3589 46.8986 38.8302L47.0384 38.0904H48.411H49.7836L49.9973 38.5014C50.4822 39.4384 51.2219 40.0795 52.1589 40.3918C52.611 40.548 52.8329 40.5726 53.5315 40.5397C54.2794 40.5151 54.4356 40.474 54.9452 40.2274C55.6931 39.8658 56.3507 39.2165 56.7205 38.4603C56.9918 37.9014 57 37.8603 57 36.8576C57 35.8548 56.9918 35.8137 56.7205 35.2548C56.3507 34.4986 55.7014 33.8493 54.9452 33.4795C54.3863 33.2082 54.3452 33.2 53.3425 33.2C52.3397 33.2 52.2986 33.2082 51.7397 33.4795C51.0411 33.8165 50.3589 34.4904 50.0219 35.1562L49.7918 35.6247H48.411H47.0384L46.8986 34.885C46.6192 33.3562 46.011 31.8521 45.1726 30.6274L44.7288 29.9699L45.6986 29.0082L46.6685 28.0384L47.063 28.1781C49.1096 28.8767 51.263 27.685 51.8219 25.5397C52.5205 22.8603 49.989 20.337 47.3014 21.0356C45.1726 21.5945 44.0137 23.6987 44.6877 25.7945L44.811 26.1891L43.8493 27.1589L42.8877 28.1288L42.2301 27.685C41.0055 26.8466 39.5014 26.2384 37.9726 25.9589L37.2329 25.8192V24.4384V23.0576L37.6438 22.8521C38.5644 22.3918 39.2219 21.6439 39.5342 20.6987C39.6904 20.2466 39.7151 20.0247 39.6822 19.326C39.6575 18.5781 39.6164 18.4219 39.3699 17.9123C39.0082 17.1562 38.3589 16.5069 37.6027 16.1452C37.0685 15.8822 36.9534 15.8576 36.1233 15.8411C35.3836 15.8165 35.137 15.8411 34.7753 15.9726ZM37.5205 31.0137C38.3507 31.2932 38.9918 31.7123 39.6082 32.3863C40.4384 33.2904 40.8493 34.3671 40.8493 35.6247C40.8493 36.726 40.5616 37.5973 39.8877 38.526C39.7233 38.7397 39.6082 38.9288 39.6247 38.9452C39.6411 38.9617 39.8219 39.0603 40.0274 39.1589C40.9479 39.6274 42.0164 40.5069 42.6575 41.337L43.0027 41.7891L42.7562 42.0932C42.6247 42.2658 42.2466 42.6603 41.926 42.9726L41.3425 43.5315L40.989 43.0548C40.1178 41.8795 38.7452 40.9754 37.3726 40.6795C36.3945 40.4658 34.8575 40.5397 33.9863 40.8356C32.811 41.2384 31.9151 41.9041 31.1425 42.948C30.9041 43.2603 30.6904 43.5151 30.6658 43.5151C30.5918 43.5151 29.3014 42.2165 29.137 41.9863C29.0301 41.8219 29.0548 41.7644 29.6548 41.0411C30.3616 40.1945 30.8959 39.7425 31.7671 39.274C32.0877 39.1096 32.3589 38.9534 32.3753 38.9452C32.3918 38.9288 32.2767 38.7397 32.1123 38.526C31.4384 37.5973 31.1507 36.726 31.1507 35.6247C31.1507 34.3671 31.5616 33.2904 32.3918 32.3863C33.7562 30.8987 35.663 30.3891 37.5205 31.0137Z" fill="url(#paint1_linear_40432_2519)"/>
<path d="M34.8667 33.4131C33.979 33.8487 33.5352 34.5967 33.5352 35.6241C33.5352 36.6515 33.979 37.3994 34.8667 37.835C35.2941 38.057 35.4584 38.0898 36.0009 38.0898C36.5434 38.0898 36.7078 38.057 37.1352 37.835C38.0228 37.3994 38.4667 36.6597 38.4667 35.6159C38.4667 34.1611 37.4557 33.1583 35.9927 33.1583C35.4584 33.1583 35.2941 33.1912 34.8667 33.4131Z" fill="url(#paint2_linear_40432_2519)"/>
<defs>
<linearGradient id="paint0_linear_40432_2519" x1="8.21394" y1="-22.7831" x2="232.676" y2="171.483" gradientUnits="userSpaceOnUse">
<stop stop-color="#A854E9"/>
<stop offset="1" stop-color="#4F91FC"/>
</linearGradient>
<linearGradient id="paint1_linear_40432_2519" x1="19.7915" y1="71.7194" x2="150.882" y2="-41.5799" gradientUnits="userSpaceOnUse">
<stop stop-color="#A854E9"/>
<stop offset="1" stop-color="#4F91FC"/>
</linearGradient>
<linearGradient id="paint2_linear_40432_2519" x1="34.0978" y1="39.7113" x2="49.4719" y2="26.4054" gradientUnits="userSpaceOnUse">
<stop stop-color="#A854E9"/>
<stop offset="1" stop-color="#4F91FC"/>
</linearGradient>
</defs>
</svg>
