<svg width="1140" height="222" viewBox="0 0 1140 222" fill="none" xmlns="http://www.w3.org/2000/svg">
<g opacity="0.5">
<mask id="mask0_40432_2683" style="mask-type:luminance" maskUnits="userSpaceOnUse" x="0" y="0" width="1140" height="487">
<path d="M1140 0H0V486.506H1140V0Z" fill="white"/>
</mask>
<g mask="url(#mask0_40432_2683)">
<path d="M318.147 451.629C312.404 451.638 306.67 451.307 301.003 450.641C289.442 449.263 278.757 446.433 269.252 442.23C259.035 437.713 250.075 431.559 242.619 423.939C227.628 408.622 220.13 390.279 212.879 372.531C211.454 369.048 209.981 365.446 208.486 361.951C198.278 338.132 185.344 317.267 168.939 298.166C136.214 260.056 90.1924 227.541 35.844 204.122C-27.0042 177.04 -94.572 163.55 -154.433 166.138C-189.612 167.657 -236.092 182.121 -256.865 206.824C-269.193 221.484 -270.187 237.751 -259.737 253.869L-259.945 253.937C-265.417 245.485 -267.811 237.012 -267.038 228.753C-266.329 221.176 -262.973 213.77 -257.061 206.74C-247.658 195.55 -232.152 185.648 -212.218 178.081C-193.8 171.089 -173.282 166.79 -154.447 165.976C-123.124 164.623 -89.8137 167.625 -55.4335 174.895C-24.2705 181.49 6.47986 191.274 35.9626 203.98C90.3405 227.424 136.39 259.955 169.133 298.089C185.549 317.204 198.492 338.08 208.702 361.912C210.2 365.409 211.666 369.011 213.098 372.496C220.344 390.221 227.838 408.551 242.806 423.846C257.282 438.639 276.874 447.601 301.04 450.481C334.506 454.472 375.14 446.127 409.746 428.162C459.612 402.271 494.217 364.592 527.683 328.144C533.55 321.756 539.615 315.151 545.62 308.773C561.211 292.211 582.328 270.749 607.408 251.63C633.058 232.087 659.123 217.728 687.096 207.732C704.052 201.653 722.252 197.518 741.023 195.481C758.262 193.624 776.509 193.507 795.257 195.135C827.417 197.929 862.061 205.822 901.179 219.264C978.198 245.732 1055.13 277.857 1129.85 314.751C1200.87 349.818 1270.53 389.496 1336.86 432.684L1336.71 432.803C1199.18 343.286 1052.61 271.482 901.079 219.41C815.472 189.991 747.509 186.328 687.199 207.878C625.842 229.803 582.978 269.371 545.8 308.862C539.797 315.24 533.732 321.845 527.866 328.232C494.388 364.687 459.771 402.385 409.871 428.29C393.747 436.662 375.607 443.193 357.417 447.176C347.807 449.284 338.252 450.654 329.018 451.262C325.349 451.507 321.725 451.629 318.147 451.629Z" fill="#FDFCFC"/>
<path d="M323.904 442.547C308.874 442.547 294.948 440.512 282.511 436.495C268.637 432.016 256.662 425.075 246.925 415.866C246.063 415.055 245.208 414.207 244.382 413.359C229.562 398.115 221.724 380.004 214.15 362.495C212.617 358.956 211.035 355.296 209.428 351.744C199.87 330.598 188.356 311.96 174.231 294.768C172.492 292.652 170.69 290.531 168.873 288.465C135.667 250.679 89.2717 218.58 34.7021 195.612C-28.5998 168.992 -96.3682 156.059 -156.113 159.197C-191.036 161.049 -237.302 175.751 -258.164 200.263C-270.656 214.941 -272.072 231.237 -262.268 247.405L-262.475 247.47C-267.621 238.998 -269.733 230.509 -268.757 222.24C-267.858 214.646 -264.365 207.221 -258.369 200.185C-248.871 189.023 -233.412 179.103 -213.663 171.494C-195.411 164.464 -174.985 160.042 -156.143 159.041C-124.857 157.398 -91.5095 160.113 -57.0222 167.109C-25.7862 173.447 5.1123 182.992 34.807 195.479C89.4085 218.46 135.829 250.587 169.056 288.385C170.88 290.453 172.676 292.574 174.416 294.692C188.552 311.895 200.071 330.543 209.633 351.702C211.229 355.254 212.825 358.914 214.355 362.454C221.924 379.95 229.752 398.044 244.558 413.273C245.383 414.119 246.236 414.963 247.096 415.775C267.223 434.809 294.88 442.552 323.963 442.552H323.893L323.904 442.547ZM330.108 442.434C357.147 441.446 385.056 434.056 408.982 423.063C460.611 399.25 497.72 362.475 533.607 326.91C535.085 325.444 536.562 323.98 538.04 322.518C541.284 319.306 545.13 315.506 549.059 311.674C566.672 294.484 587.987 274.494 612.536 256.495C638.656 237.344 664.748 223.133 692.309 213.05C709.054 206.906 726.974 202.539 745.499 200.089C762.512 197.856 780.488 197.224 798.926 198.213C830.782 199.921 865.032 206.394 903.635 217.998C941.276 229.301 972.215 239.941 1001 251.482C1041.79 267.848 1080.64 286.704 1113.26 302.99C1189.11 340.965 1263.53 384.084 1334.45 431.15L1334.3 431.269C1263.38 384.207 1188.97 341.093 1113.14 303.123C1080.52 286.838 1041.67 267.984 1000.9 251.623C972.117 240.085 941.185 229.448 903.544 218.147C819.446 192.848 752.357 191.275 692.416 213.184C630.193 235.956 585.89 276.012 549.253 311.77C545.326 315.602 541.48 319.402 538.236 322.612L533.803 327.004C497.905 362.581 460.784 399.37 409.117 423.199C396.484 429.021 382.87 433.688 368.597 437.089C355.482 440.191 342.566 441.983 330.108 442.434Z" fill="#FDFCFC"/>
<path d="M330.258 433.671C328.451 433.671 326.654 433.643 324.868 433.586C309.852 433.114 295.956 430.667 283.566 426.3C270.016 421.528 258.276 414.462 248.682 405.288C247.829 404.477 246.979 403.626 246.158 402.774C231.489 387.599 223.331 369.744 215.442 352.463C213.798 348.863 212.097 345.14 210.376 341.527C200.344 320.445 188.529 301.957 174.252 285.001C172.487 282.904 170.656 280.801 168.814 278.751C135.125 241.306 88.3572 209.607 33.5642 187.09C-30.1914 160.931 -98.1491 148.556 -157.789 152.245C-191.369 154.353 -237.5 168.217 -259.434 193.665C-272.106 208.367 -273.951 224.71 -264.769 240.93L-264.981 240.992C-269.79 232.494 -271.627 223.985 -270.453 215.693C-269.363 208.072 -265.725 200.633 -259.639 193.572C-250.043 182.438 -234.63 172.511 -215.072 164.868C-196.992 157.804 -176.661 153.26 -157.821 152.076C-126.585 150.145 -93.1878 152.571 -58.5934 159.288C-27.2799 165.369 3.76233 174.673 33.6668 186.943C88.4894 209.474 135.286 241.188 168.994 278.657C170.838 280.708 172.669 282.812 174.436 284.912C188.72 301.881 200.542 320.381 210.581 341.468C212.303 345.081 214.001 348.806 215.65 352.406C223.532 369.669 231.685 387.519 246.327 402.679C247.148 403.527 247.996 404.37 248.835 405.186C287.848 442.449 356.987 438.448 408.207 417.955C461.995 396.242 501.965 360.156 540.62 325.258L541.017 324.899C544.761 321.517 548.632 318.02 552.485 314.568C593.147 278.143 637.837 240.711 697.505 218.358C714.048 212.149 731.69 207.551 749.956 204.689C766.748 202.078 784.453 200.931 802.579 201.283C834.177 201.895 868.031 206.959 906.075 216.741C946.054 226.995 976.144 236.422 1003.63 247.305C1042.79 262.842 1080.73 282.476 1114.21 299.799C1188.73 338.575 1262.02 382.255 1332.03 429.628L1331.87 429.745C1261.88 382.378 1188.59 338.702 1114.07 299.929C1080.61 282.609 1042.68 262.979 1003.53 247.446C976.068 236.571 945.972 227.147 906.011 216.897C823.545 195.674 757.33 196.185 697.619 218.505C637.99 240.846 593.318 278.263 552.675 314.671C548.821 318.124 544.95 321.62 541.206 325.003L540.807 325.362C521.546 342.753 501.625 360.735 480.116 376.797C455.948 394.848 432.464 408.358 408.33 418.099C383.081 428.206 355.578 433.671 330.258 433.671Z" fill="#FDFCFC"/>
<path d="M1329.47 428.22C1260.37 380.543 1188.22 336.311 1115.04 296.736C1111.94 295.072 1108.83 293.401 1105.72 291.723C1074.02 274.66 1041.24 257.019 1006.18 243.27C972.177 229.973 937.712 221.841 908.483 215.642C827.8 198.423 762.458 201.022 702.842 223.82C641.645 247.292 594.226 286.255 556.124 317.578C553.844 319.458 551.559 321.339 549.268 323.223L544.205 327.397C522.508 345.244 502.777 361.203 480.971 375.762C456.062 392.396 432.054 404.578 407.571 413.006C384.623 420.905 360.113 425.086 337.313 425.086C333.159 425.086 329.069 424.946 325.044 424.667C310.361 423.644 296.772 420.775 284.643 416.121C271.419 411.05 259.902 403.845 250.443 394.715C249.597 393.904 248.753 393.049 247.935 392.198C233.443 377.102 224.97 359.49 216.774 342.459C215.009 338.791 213.183 334.999 211.338 331.313C200.825 310.306 188.707 291.965 174.288 275.242C172.494 273.161 170.64 271.076 168.766 269.046C134.596 231.927 87.4546 200.643 32.4404 178.575C-31.7803 152.874 -99.9272 141.057 -159.463 145.293C-200.165 148.248 -241.784 165.413 -260.674 187.038C-273.545 201.771 -275.827 218.175 -267.286 234.458L-267.5 234.513C-271.976 225.987 -273.535 217.452 -272.136 209.147C-270.847 201.501 -267.06 194.033 -260.875 186.954C-251.176 175.849 -235.815 165.926 -216.453 158.25C-198.546 151.155 -178.318 146.495 -159.492 145.129C-128.284 142.908 -94.8633 145.047 -60.1595 151.485C-28.7684 157.31 2.41742 166.373 32.5339 178.424C87.5868 200.508 134.751 231.812 168.951 268.951C170.823 270.983 172.683 273.071 174.478 275.151C188.905 291.884 201.03 310.236 211.548 331.261C213.395 334.944 215.221 338.739 216.986 342.409C225.176 359.437 233.646 377.03 248.117 392.109C248.933 392.957 249.775 393.802 250.625 394.619C291.355 433.921 360.576 429.012 407.478 412.866C463.436 393.606 506.256 358.378 544.05 327.296C545.738 325.906 547.427 324.515 549.116 323.124C551.396 321.239 553.68 319.357 555.969 317.477C577.718 299.603 599.196 282.233 622.808 266.232C649.96 247.824 676.112 233.907 702.754 223.689C719.097 217.409 736.46 212.577 754.455 209.299C771.035 206.309 788.468 204.647 806.27 204.363C837.666 203.859 871.125 207.498 908.553 215.486C937.792 221.687 972.272 229.823 1006.3 243.128C1041.37 256.88 1074.15 274.527 1105.86 291.593C1108.97 293.27 1112.08 294.941 1115.18 296.606C1188.37 336.187 1260.53 380.428 1329.64 428.104L1329.47 428.22Z" fill="#FDFCFC"/>
<path d="M1327.05 426.695C1257.56 377.807 1186.55 333.008 1115.98 293.54C1111.76 291.178 1107.44 288.744 1103.27 286.391C1073.35 269.539 1042.42 252.112 1008.82 239.093C975.267 226.136 940.514 219.333 910.942 214.387C832.223 201.089 767.758 205.779 708.049 229.144C651.102 251.502 606.489 285.123 563.344 317.636L558.609 321.204C554.867 324.024 550.998 326.94 547.184 329.799C503.996 362.126 460.772 392.424 406.793 407.92C393.952 411.632 380.531 414.234 366.818 415.67C352.397 417.154 338.388 417.175 325.18 415.73C310.834 414.162 297.551 410.865 285.693 405.94C272.793 400.579 261.525 393.244 252.177 384.142C251.336 383.318 250.499 382.47 249.689 381.62C235.38 366.614 226.6 349.261 218.107 332.483C216.212 328.738 214.251 324.861 212.272 321.105C201.274 300.161 188.852 281.967 174.297 265.481C172.473 263.422 170.592 261.356 168.692 259.338C134.036 222.549 86.528 191.677 31.2882 170.058C-33.3703 144.828 -101.709 133.57 -161.144 138.352C-201.472 141.67 -242.9 158.958 -261.89 180.393C-274.975 195.163 -277.709 211.623 -269.797 227.994L-270.012 228.046C-274.152 219.48 -275.431 210.915 -273.815 202.586C-272.323 194.907 -268.377 187.412 -262.084 180.309C-252.28 169.242 -236.972 159.327 -217.818 151.634C-200.086 144.513 -179.97 139.739 -161.169 138.193C-129.99 135.673 -96.5332 137.52 -61.7244 143.683C-30.2604 149.252 1.0759 158.075 31.4022 169.909C86.6717 191.539 134.212 222.429 168.886 259.241C170.788 261.258 172.673 263.326 174.493 265.387C189.057 281.878 201.488 300.081 212.491 321.037C214.47 324.798 216.431 328.672 218.326 332.416C226.814 349.189 235.588 366.532 249.883 381.521C250.69 382.369 251.527 383.216 252.366 384.038C292.113 422.796 358.158 421.703 406.708 407.761C460.635 392.278 503.85 361.991 547.02 329.679C550.834 326.821 554.703 323.906 558.445 321.084L563.18 317.516C584.359 301.557 606.259 285.055 630.041 269.702C656.977 252.315 682.458 238.999 707.94 228.998C739.32 216.612 774.128 209.256 809.926 207.444C841.185 205.806 874.245 208.027 910.997 214.233C940.582 219.182 975.356 225.99 1008.93 238.955C1042.55 251.981 1073.49 269.412 1103.41 286.27C1107.58 288.623 1111.91 291.055 1116.13 293.418C1186.69 332.888 1257.72 377.692 1327.21 426.584L1327.05 426.695Z" fill="#FDFCFC"/>
<path d="M1324.63 425.167C1255.73 375.736 1185.85 330.374 1116.92 290.343C1111.74 287.333 1106.43 284.207 1101.3 281.181C1072.99 264.511 1043.73 247.273 1011.45 234.912C978.054 222.179 943.141 216.749 913.394 213.13C836.854 203.656 773.256 210.431 713.246 234.45C660.874 255.496 617.874 285.326 576.289 314.174C571.913 317.209 567.397 320.347 562.978 323.388C557.8 326.956 553.844 329.672 550.153 332.183C530.385 345.621 506.844 361.094 482.143 373.962C455.966 387.599 431.071 397.037 406.005 402.817C393.097 405.817 379.738 407.729 366.203 408.512C351.991 409.307 338.232 408.723 325.309 406.775C311.307 404.667 298.329 400.953 286.738 395.748C274.166 390.096 263.124 382.632 253.906 373.56C253.076 372.738 252.244 371.888 251.437 371.035C237.314 356.128 228.238 339.044 219.462 322.522C217.426 318.692 215.321 314.728 213.199 310.882C201.705 289.996 188.978 271.95 174.295 255.714C172.448 253.672 170.535 251.622 168.611 249.624C133.476 213.164 85.5917 182.702 30.1284 161.534C-34.9587 136.763 -103.489 126.061 -162.817 131.394C-196.574 134.494 -240.665 148.778 -263.068 173.697C-276.388 188.513 -279.582 205.047 -272.307 221.512L-272.535 221.561C-276.338 212.951 -277.323 204.345 -275.499 195.985C-273.798 188.268 -269.685 180.741 -263.276 173.606C-253.367 162.579 -238.118 152.686 -219.174 144.977C-201.618 137.841 -181.624 132.954 -162.858 131.23C-131.72 128.431 -98.2287 129.992 -63.3128 135.873C-31.7553 141.188 -0.277649 149.772 30.2584 161.387C85.7536 182.567 133.668 213.045 168.821 249.527C170.747 251.528 172.663 253.581 174.521 255.621C189.213 271.867 201.945 289.921 213.445 310.817C215.57 314.667 217.674 318.628 219.71 322.461C228.482 338.974 237.551 356.049 251.66 370.939C252.467 371.791 253.297 372.639 254.125 373.461C287.185 406.045 343.957 416.963 405.957 402.663C462.111 389.71 507.916 360.685 550.019 332.066C553.71 329.555 557.666 326.842 562.844 323.271C567.253 320.231 571.779 317.093 576.154 314.057C596.624 299.856 617.794 285.171 640.37 271.421C665.906 255.871 689.712 243.731 713.157 234.309C729.138 227.889 745.965 222.599 763.397 218.515C779.736 214.724 796.546 212.045 813.598 210.516C844.779 207.71 877.438 208.513 913.462 212.969C943.227 216.598 978.164 222.025 1011.58 234.769C1043.89 247.136 1073.16 264.38 1101.47 281.056C1106.61 284.08 1111.92 287.208 1117.1 290.217C1186.02 330.253 1255.91 375.618 1324.8 425.053L1324.63 425.167Z" fill="#FDFCFC"/>
<path d="M1322.21 423.638C1253.91 373.661 1185.17 327.743 1117.89 287.144C1112.16 283.692 1106.28 280.067 1100.59 276.563C1073.51 259.869 1045.5 242.608 1014.1 230.732C980.684 218.151 945.7 214.138 915.871 211.871C842.801 206.167 778.232 215.291 718.468 239.764C670.882 259.339 630.091 285.524 590.642 310.847C582.676 315.962 574.436 321.252 566.426 326.294C561.529 329.375 557.186 332.089 553.15 334.575C534.383 346.133 509.42 360.951 482.746 373.058C455.942 385.221 430.591 393.292 405.244 397.721C377.599 402.552 350.009 402.586 325.456 397.826C311.807 395.178 299.14 391.049 287.806 385.552C275.569 379.618 264.76 372.023 255.681 362.978C254.858 362.154 254.032 361.302 253.23 360.449C239.306 345.656 229.951 328.853 220.902 312.61C218.713 308.679 216.451 304.615 214.171 300.666C202.171 279.835 189.143 261.937 174.339 245.95C172.465 243.927 170.525 241.896 168.573 239.914C132.96 203.783 84.7012 173.735 29.0145 153.016C-36.5469 128.715 -105.277 118.572 -164.491 124.45C-204.619 128.521 -244.704 145.613 -264.209 166.981C-277.785 181.85 -281.453 198.471 -274.821 215.046L-275.049 215.091C-278.514 206.428 -279.221 197.78 -277.148 189.381C-275.233 181.62 -270.949 174.053 -264.41 166.893C-254.389 155.916 -239.2 146.04 -220.474 138.33C-203.108 131.172 -183.238 126.186 -164.523 124.288C-133.422 121.207 -99.8944 122.475 -64.8713 128.075C-33.2523 133.125 -1.62869 141.468 29.1171 152.864C84.8357 173.594 133.122 203.662 168.758 239.814C170.712 241.796 172.652 243.828 174.529 245.853C189.349 261.849 202.374 279.756 214.379 300.596C216.659 304.547 218.923 308.611 221.111 312.542C230.156 328.783 239.506 345.579 253.417 360.357C254.219 361.21 255.042 362.058 255.863 362.882C288.362 395.257 344.183 408.221 405.187 397.562C460.801 387.843 509.096 361.486 553 334.452C557.033 331.965 561.376 329.263 566.274 326.17C574.281 321.128 582.521 315.84 590.487 310.725C629.945 285.396 670.743 259.204 718.352 239.623C734.16 233.127 750.722 227.606 767.855 223.12C783.908 218.948 800.433 215.76 817.249 213.591C848.424 209.578 880.69 208.963 915.891 211.71C945.736 213.98 980.755 217.994 1014.2 230.59C1045.63 242.473 1073.65 259.741 1100.74 276.441C1106.43 279.944 1112.31 283.569 1118.03 287.021C1185.32 327.617 1254.07 373.545 1322.37 423.525L1322.21 423.638Z" fill="#FDFCFC"/>
<path d="M1319.79 422.11C1252.1 371.582 1184.49 325.098 1118.83 283.943C1112.8 280.162 1106.59 276.159 1100.59 272.284C1074.49 255.45 1047.51 238.041 1016.74 226.553C983.184 214.079 948.163 211.494 918.331 210.613C848.023 208.387 784.352 219.654 723.672 245.076C681.12 262.989 643.188 285.66 606.503 307.584C593.89 315.121 581.974 322.242 569.856 329.196C564.927 332.026 560.438 334.567 556.128 336.967C528.312 352.428 505.191 363.608 483.326 372.148C455.895 382.864 430.099 389.56 404.463 392.621C394.688 393.799 384.793 394.395 374.88 394.405C357.634 394.405 340.947 392.55 325.584 388.875C297.782 382.226 274.849 369.954 257.426 352.402C256.605 351.57 255.786 350.719 254.991 349.869C241.281 335.206 231.662 318.699 222.359 302.735C220.002 298.69 217.571 294.51 215.111 290.446C202.601 269.664 189.27 251.914 174.356 236.182C172.452 234.176 170.48 232.164 168.506 230.2C132.413 194.393 83.7808 164.763 27.8729 144.492C-38.1376 120.653 -107.048 111.066 -166.171 117.491C-206.475 121.962 -245.394 138.735 -265.319 160.211C-279.168 175.142 -283.331 191.863 -277.337 208.565L-277.565 208.604C-280.691 199.883 -281.106 191.181 -278.796 182.741C-276.66 174.928 -272.184 167.317 -265.515 160.122C-255.397 149.215 -240.273 139.364 -221.778 131.653C-204.598 124.486 -184.865 119.4 -166.212 117.331C-135.147 113.954 -101.583 114.94 -66.4552 120.261C-34.7632 125.063 -2.98914 133.165 27.9687 144.341C83.9176 164.622 132.577 194.278 168.693 230.101C170.674 232.065 172.644 234.079 174.548 236.087C189.468 251.827 202.806 269.586 215.323 290.376C217.779 294.441 220.216 298.624 222.571 302.668C231.871 318.624 241.495 335.123 255.175 349.775C255.966 350.623 256.785 351.474 257.603 352.305C290.146 385.082 343.658 399.72 404.419 392.463C462.259 385.554 513.492 360.467 555.98 336.839C560.289 334.44 564.779 331.899 569.706 329.069C581.824 322.117 593.737 314.998 606.35 307.459C643.04 285.532 680.981 262.862 723.542 244.936C739.185 238.36 755.484 232.608 772.309 227.727C788.088 223.172 804.33 219.475 820.896 216.667C852.132 211.395 884.004 209.369 918.325 210.451C948.179 211.333 983.229 213.92 1016.82 226.408C1047.62 237.911 1074.61 255.326 1100.72 272.168C1106.73 276.04 1112.93 280.044 1118.96 283.824C1184.63 324.979 1252.25 371.467 1319.94 421.992L1319.79 422.11Z" fill="#FDFCFC"/>
<path d="M1317.38 420.584C1249.36 368.781 1184.72 323.041 1119.79 280.751C1113.6 276.714 1107.49 272.595 1101.04 268.233C1075.79 251.179 1049.68 233.545 1019.39 222.373C985.416 209.906 948.857 208.868 920.804 209.356C853.699 210.375 790.926 223.789 728.894 250.385C691.677 266.418 657.315 285.673 624.087 304.294C606.622 314.08 590.126 323.323 573.304 332.093C568.311 334.699 563.671 337.074 559.123 339.354C530.942 353.454 507.045 363.585 483.924 371.233C455.857 380.515 429.616 385.843 403.7 387.519C390.613 388.382 377.433 388.219 364.397 387.033C351.136 385.828 338.143 383.43 325.73 379.897C298.826 372.188 276.432 359.37 259.186 341.802C258.375 340.969 257.561 340.116 256.772 339.266C243.292 324.752 233.432 308.561 223.894 292.904C221.35 288.726 218.719 284.406 216.072 280.206C203.037 259.469 189.396 241.868 174.389 226.395C172.457 224.407 170.462 222.412 168.461 220.466C131.883 184.994 82.8785 155.761 26.7449 135.949C-25.0795 117.75 -78.5067 108.247 -127.502 108.247C-141.016 108.223 -154.509 108.991 -167.846 110.542C-207.664 115.334 -246.34 132.169 -266.381 153.413C-280.517 168.415 -285.184 185.248 -279.851 202.093L-280.079 202.128C-282.863 193.339 -282.979 184.577 -280.426 176.087C-278.057 168.216 -273.399 160.558 -266.577 153.324C-256.354 142.483 -241.299 132.678 -223.043 124.972C-205.808 117.695 -186.736 112.647 -167.892 110.377C-136.861 106.712 -103.263 107.411 -68.0278 112.451C-36.2515 117.003 -4.33145 124.871 26.8361 135.822C82.9925 155.652 132.033 184.895 168.632 220.388C170.638 222.335 172.635 224.331 174.56 226.322C189.582 241.803 203.224 259.413 216.263 280.162C218.912 284.362 221.544 288.684 224.088 292.862C233.621 308.512 243.468 324.697 256.945 339.2C257.734 340.048 258.541 340.901 259.357 341.733C291.603 374.583 344.201 391.217 403.663 387.369C463.835 383.477 518.272 359.599 558.977 339.232C563.523 336.962 568.161 334.579 573.154 331.975C589.98 323.203 606.481 313.96 623.936 304.173C657.172 285.549 691.538 266.29 728.768 250.252C760.704 236.56 792.043 226.575 824.578 219.745C855.956 213.153 887.427 209.7 920.794 209.194C939.83 208.87 955.357 209.439 969.666 211.009C988.134 213.036 1004.44 216.707 1019.49 222.231C1049.81 233.42 1075.93 251.055 1101.19 268.115C1107.65 272.477 1113.75 276.596 1119.94 280.631C1184.88 322.924 1249.52 368.667 1317.55 420.474L1317.38 420.584Z" fill="#FDFCFC"/>
<path d="M1314.96 419.055C1247.56 366.684 1184.03 320.398 1120.74 277.552C1114.47 273.313 1108.3 268.945 1101.76 264.322C1077.27 246.999 1051.95 229.086 1022.02 218.193C987.766 205.782 951.249 206.279 923.262 208.097C859.935 212.07 798.06 227.641 734.099 255.704C702.585 269.596 672.578 285.496 643.561 300.873C620.624 313.036 598.957 324.509 576.734 335.003C571.718 337.377 566.786 339.648 562.101 341.749C533.861 354.399 508.478 363.751 484.501 370.324C455.789 378.192 429.097 382.152 402.92 382.428C389.783 382.58 376.66 381.726 363.78 379.88C350.681 378 337.949 375.005 325.856 370.961C299.864 362.225 278.024 348.862 260.931 331.246C260.129 330.414 259.321 329.559 258.535 328.705C245.311 314.367 235.231 298.519 225.489 283.192C222.732 278.856 219.88 274.372 217.014 270.011C203.443 249.313 189.506 231.861 174.403 216.657C172.444 214.685 170.422 212.709 168.391 210.782C131.331 175.629 81.9557 146.813 25.5987 127.445C-41.3056 104.547 -110.599 96.0754 -169.519 103.59C-208.824 108.691 -247.24 125.561 -267.393 146.565C-281.857 161.647 -287.033 178.606 -282.361 195.613L-282.589 195.644C-285.024 186.778 -284.837 177.948 -282.03 169.402C-279.427 161.467 -274.566 153.752 -267.584 146.474C-257.26 135.711 -242.276 125.957 -224.264 118.257C-207.226 110.982 -188.309 105.851 -169.556 103.417C-138.561 99.4647 -104.927 99.875 -69.5867 104.636C-37.7397 108.94 -5.67834 116.561 25.6967 127.303C82.088 146.682 131.489 175.514 168.573 210.678C170.607 212.606 172.631 214.585 174.59 216.557C189.699 231.773 203.644 249.236 217.226 269.94C220.094 274.302 222.946 278.787 225.703 283.124C235.443 298.446 245.514 314.288 258.731 328.615C259.52 329.468 260.327 330.321 261.127 331.153C293.711 364.735 344.069 382.885 402.923 382.269C450.677 381.766 501.22 368.848 561.985 341.616C566.67 339.508 571.59 337.238 576.613 334.872C598.834 324.38 620.496 312.9 643.433 300.747C672.453 285.368 702.464 269.466 733.985 255.568C766.234 241.421 797.069 230.709 828.252 222.825C859.844 214.836 890.918 209.966 923.251 207.939C951.265 206.118 987.823 205.624 1022.13 218.052C1052.09 228.956 1077.43 246.879 1101.93 264.21C1108.47 268.834 1114.64 273.201 1120.9 277.438C1184.19 320.286 1247.73 366.576 1315.13 418.948L1314.96 419.055Z" fill="#FDFCFC"/>
<path d="M1312.54 417.527C1245.77 364.586 1183.34 317.755 1121.69 274.353C1115.43 269.949 1109.25 265.369 1102.71 260.522C1078.91 242.889 1054.29 224.657 1024.66 214.014C990.083 201.648 953.626 203.684 925.73 206.838C866.147 213.446 806.91 230.662 739.311 261.017C713.957 272.453 689.18 284.998 665.211 297.132C636.109 311.866 608.623 325.785 580.167 337.907C575.039 340.093 569.964 342.19 565.082 344.141C536.338 355.614 510.171 363.877 485.084 369.405C471.032 372.501 457.161 374.744 443.854 376.07C429.661 377.486 415.628 377.909 402.144 377.329C374.784 376.15 349.164 370.99 325.992 361.992C300.967 352.277 279.667 338.371 262.686 320.662C261.888 319.825 261.09 318.969 260.305 318.118C247.362 303.991 237.109 288.519 227.191 273.557C224.188 269.028 221.085 264.344 217.964 259.787C203.85 239.124 189.609 221.819 174.429 206.881C172.441 204.935 170.391 202.968 168.332 201.06C130.792 166.245 81.0426 137.843 24.4622 118.925C-42.889 96.4901 -112.374 88.5811 -171.194 96.6377C-234.174 105.395 -295.545 143.26 -284.875 189.143L-285.103 189.171C-287.772 177.693 -286.211 166.383 -280.458 155.557C-275.214 145.664 -266.582 136.366 -254.833 127.904C-243.91 120.035 -230.807 113.242 -215.884 107.712C-201.693 102.451 -186.244 98.5675 -171.242 96.4788C-140.284 92.2381 -106.615 92.3597 -71.1679 96.842C-39.2479 100.878 -7.03375 108.259 24.5534 118.777C81.1681 137.707 130.947 166.13 168.508 200.961C170.56 202.871 172.612 204.832 174.607 206.787C189.794 221.731 204.042 239.044 218.155 259.718C221.276 264.273 224.382 268.961 227.384 273.487C237.298 288.446 247.547 303.912 260.483 318.029C261.263 318.88 262.063 319.735 262.861 320.571C295.495 354.604 344.962 374.703 402.149 377.168C450.562 379.252 503.818 368.411 564.961 344.001C569.843 342.055 574.916 339.955 580.041 337.769C608.496 325.65 635.979 311.733 665.085 297C689.048 284.867 713.827 272.32 739.185 260.882C806.814 230.514 866.078 213.29 925.689 206.679C944.435 204.559 959.955 203.883 974.536 204.549C993.175 205.401 1009.6 208.45 1024.76 213.869C1054.43 224.527 1079.05 242.769 1102.87 260.412C1109.41 265.259 1115.59 269.835 1121.84 274.24C1183.5 317.643 1245.94 364.477 1312.71 417.42L1312.54 417.527Z" fill="#FDFCFC"/>
<path d="M1310.13 416C1243.99 362.485 1182.66 315.104 1122.64 271.158C1116.43 266.617 1110.29 261.846 1103.79 256.803C1080.64 238.833 1056.69 220.25 1027.31 209.834C991.965 197.366 953.819 201.435 928.194 205.58C858.642 216.69 796.316 242.525 744.519 266.332C725.905 274.926 707.335 284.024 689.375 292.825C653.351 310.48 619.322 327.156 583.604 340.811C578.36 342.822 573.116 344.747 568.068 346.534C538.761 356.878 511.809 364.059 485.671 368.483C456.042 373.499 427.679 374.761 401.37 372.231C374.343 369.636 349.026 363.17 326.13 353.027C302.11 342.389 281.353 327.941 264.438 310.086C263.647 309.248 262.842 308.39 262.076 307.537C249.454 293.668 239.071 278.621 229.016 264.068C225.724 259.308 222.329 254.368 218.909 249.578C204.032 228.658 189.903 211.987 174.449 197.125C172.435 195.188 170.345 193.249 168.272 191.356C130.251 156.863 80.1274 128.873 23.3235 110.403C-44.4746 88.444 -114.161 81.088 -172.871 89.6878C-236.077 99.0693 -296.193 136.413 -287.388 182.672L-287.616 182.693C-289.82 171.346 -287.886 159.786 -281.998 149.124C-276.583 139.232 -267.91 129.914 -256.234 121.442C-245.336 113.541 -232.294 106.696 -217.474 101.098C-203.368 95.7659 -187.96 91.7685 -172.918 89.5354C-141.995 85.006 -108.29 84.8325 -72.7352 89.0489C-40.7309 92.8307 -8.37994 99.9709 23.417 110.269C80.2596 128.736 130.42 156.743 168.448 191.249C170.548 193.143 172.616 195.089 174.629 197.021C190.094 211.893 204.228 228.567 219.112 249.498C222.532 254.297 225.936 259.229 229.228 263.996C239.26 278.544 249.65 293.589 262.263 307.448C263.04 308.301 263.834 309.159 264.623 309.995C297.507 344.699 346.085 366.754 401.402 372.07C451.015 376.841 505.498 368.439 567.965 346.388C573.02 344.604 578.246 342.677 583.494 340.668C619.204 327.018 653.226 310.342 689.248 292.692C707.207 283.89 725.778 274.789 744.396 266.195C779.225 250.188 808.198 238.361 835.573 228.976C867.799 217.929 898.077 210.224 928.141 205.421C946.468 202.457 962.439 201.115 976.974 201.318C995.691 201.581 1012.18 204.318 1027.4 209.689C1056.83 220.118 1080.79 238.717 1103.95 256.694C1110.45 261.736 1116.59 266.499 1122.8 271.044C1182.82 314.992 1244.15 362.374 1310.29 415.893L1310.13 416Z" fill="#FDFCFC"/>
<path d="M1307.71 414.47C1242.21 360.376 1181.98 312.452 1123.58 267.959C1117.46 263.294 1111.4 258.365 1104.98 253.147C1082.44 234.822 1059.13 215.858 1029.94 205.654C994.221 193.214 956.17 198.935 930.652 204.319C867.64 217.505 811.434 242.612 749.725 271.645C738.597 276.9 727.34 282.326 716.453 287.572C674.586 307.752 631.291 328.62 587.034 343.715C581.657 345.55 576.279 347.303 571.046 348.925C541.543 358.057 513.016 364.331 486.255 367.558C455.943 371.22 427.121 371.076 400.593 367.132C373.943 363.168 348.933 355.405 326.265 344.059C303.317 332.574 283.103 317.584 266.185 299.508C265.403 298.666 264.614 297.808 263.844 296.953C251.602 283.412 241.153 268.854 231.048 254.775C227.4 249.702 223.643 244.458 219.86 239.354C204.402 218.452 189.978 201.929 174.47 187.352C172.434 185.438 170.327 183.515 168.211 181.637C129.704 147.479 79.2115 119.901 22.1796 101.882C-46.0562 80.3935 -115.929 73.5938 -174.552 82.7368C-235.75 92.3843 -296.988 128.42 -289.907 176.198L-290.135 176.216C-291.85 164.821 -289.587 153.302 -283.548 142.678C-277.969 132.769 -269.245 123.446 -257.622 114.965C-236.176 99.3202 -205.916 87.516 -174.6 82.5779C-143.713 77.7615 -109.971 77.3074 -74.3123 81.2287C-42.2304 84.7575 -9.73355 91.6561 22.2731 101.735C79.3438 119.763 129.859 147.358 168.382 181.536C170.5 183.414 172.607 185.339 174.645 187.254C190.149 201.838 204.591 218.368 220.054 239.278C223.839 244.383 227.603 249.628 231.244 254.7C241.347 268.777 251.794 283.331 264.028 296.864C264.799 297.717 265.586 298.575 266.37 299.415C300.214 335.579 346.644 358.942 400.639 366.971C450.635 374.405 507.936 368.283 570.955 348.774C576.185 347.153 581.562 345.401 586.936 343.567C631.168 328.477 674.465 307.613 716.326 287.437C727.213 282.19 738.471 276.763 749.6 271.508C776.611 258.8 808.041 244.221 839.234 232.052C871.863 219.32 901.747 210.198 930.589 204.159C948.746 200.327 964.718 198.339 979.413 198.082C997.942 197.758 1014.98 200.256 1030.04 205.503C1043.12 210.075 1056.28 216.897 1070.28 226.363C1082.63 234.72 1094.08 244.031 1105.16 253.035C1111.57 258.252 1117.63 263.18 1123.75 267.844C1182.15 312.337 1242.38 360.264 1307.88 414.36L1307.71 414.47Z" fill="#FDFCFC"/>
<path d="M1305.29 412.943C1240.44 358.263 1181.31 309.793 1124.54 264.762C1118.53 259.994 1112.57 254.916 1106.27 249.542C1084.31 230.83 1061.61 211.48 1032.59 201.475C1005.47 192.156 972.931 192.675 933.122 203.06C877.465 217.493 827.709 241.656 775.032 267.232C768.472 270.417 761.691 273.709 754.943 276.962C752.298 278.238 749.654 279.516 747.01 280.795C696.821 305.07 644.921 330.172 590.475 346.62C584.971 348.283 579.44 349.863 574.034 351.322C543.883 359.419 514.551 364.573 486.853 366.639C455.845 368.952 426.557 367.405 399.824 362.039C373.59 356.775 348.888 347.709 326.408 335.094C304.615 322.87 284.943 307.339 267.937 288.936C267.162 288.095 266.38 287.233 265.611 286.379C253.837 273.261 243.42 259.297 233.347 245.78C229.266 240.308 225.048 234.65 220.807 229.143C204.751 208.256 190.027 191.875 174.491 177.595C172.425 175.697 170.291 173.792 168.148 171.933C129.169 138.098 78.3026 110.924 21.0472 93.3626C-47.6469 72.3439 -117.698 66.102 -176.223 75.7867C-236.299 85.8087 -297.439 122.139 -292.416 169.726L-292.644 169.737C-293.855 158.259 -291.313 146.988 -285.088 136.238C-279.345 126.318 -270.572 116.984 -259.01 108.496C-237.658 92.8177 -207.5 80.8383 -176.273 75.6278C-145.422 70.5227 -111.644 69.7816 -75.8801 73.4223C-43.7321 76.6965 -11.078 83.3551 21.1384 93.2069C78.4257 110.786 129.322 137.965 168.326 171.816C170.469 173.678 172.603 175.584 174.671 177.483C190.223 191.77 204.945 208.157 221.005 229.052C225.246 234.566 229.467 240.219 233.545 245.691C243.616 259.199 254.031 273.167 265.803 286.278C266.569 287.133 267.351 287.992 268.126 288.834C302.707 326.256 348.268 351.511 399.885 361.87C450.843 372.096 509.407 368.493 573.954 351.157C579.355 349.697 584.884 348.126 590.386 346.454C644.812 330.013 696.7 304.916 746.883 280.645L754.813 276.811C761.561 273.567 768.344 270.267 774.904 267.081C827.593 241.5 877.36 217.339 933.045 202.891C951.029 198.2 966.996 195.566 981.855 194.843C1000.45 193.936 1017.56 196.113 1032.7 201.313C1045.69 205.794 1058.69 212.647 1072.43 222.265C1084.55 230.752 1095.69 240.243 1106.45 249.422C1112.76 254.796 1118.71 259.871 1124.72 264.637C1181.49 309.669 1240.62 358.142 1305.48 412.823L1305.29 412.943Z" fill="#FDFCFC"/>
<path d="M1302.87 411.423C1243.68 360.469 1183.99 310.053 1125.49 261.579C1119.53 256.672 1113.63 251.401 1107.38 245.819C1087.05 227.666 1064.01 207.092 1035.23 197.312C1007.79 188.008 975.195 189.482 935.591 201.815C888.489 216.433 846.81 237.927 802.681 260.682C788.862 267.809 774.573 275.178 760.157 282.288C734.997 294.725 707.781 307.885 679.251 319.872C648.699 332.708 620.785 342.413 593.913 349.536C588.27 351.034 582.586 352.442 577.02 353.721C546.24 360.797 516.101 364.824 487.466 365.689C455.774 366.646 426.023 363.706 399.055 356.949C349.255 344.312 305.73 317.866 269.69 278.367C268.922 277.522 268.146 276.661 267.383 275.804C256.211 263.267 245.971 250.037 236.076 237.244C231.418 231.223 226.602 224.995 221.757 218.935C205.091 198.053 190.079 181.816 174.516 167.837C172.421 165.958 170.261 164.07 168.093 162.23C128.624 128.716 77.3833 101.961 19.9044 84.8427C-49.2252 64.296 -119.472 58.612 -177.904 68.8351C-238.344 79.4717 -297.953 115.319 -294.936 163.253L-295.164 163.261C-295.887 151.779 -293.019 140.522 -286.639 129.799C-280.73 119.866 -271.906 110.522 -260.419 102.028C-249.587 94.0247 -236.753 87.0272 -222.266 81.228C-208.363 75.6436 -193.462 71.4219 -177.968 68.6778C-147.149 63.2857 -113.337 62.2559 -77.4675 65.616C-45.2306 68.6372 -12.4419 75.0559 19.982 84.6919C77.5041 101.82 128.774 128.601 168.264 162.111C170.435 163.953 172.596 165.841 174.691 167.722C190.264 181.708 205.28 197.95 221.953 218.839C226.799 224.901 231.616 231.129 236.274 237.151C246.167 249.943 256.4 263.17 267.574 275.704C268.336 276.558 269.111 277.42 269.879 278.263C305.892 317.74 349.376 344.157 399.13 356.782C450.378 369.625 511.867 368.508 576.95 353.553C582.51 352.273 588.19 350.866 593.833 349.37C653.906 333.441 708.873 307.424 760.024 282.14C774.439 275.031 788.727 267.662 802.546 260.536C846.683 237.776 888.373 216.277 935.498 201.653C975.17 189.299 1007.83 187.825 1035.33 197.149C1048.22 201.528 1061.02 208.396 1074.46 218.139C1086.32 226.734 1097.11 236.375 1107.56 245.707C1113.81 251.286 1119.71 256.558 1125.66 261.462C1184.18 309.951 1243.86 360.362 1303.05 411.317L1302.87 411.423Z" fill="#FDFCFC"/>
<path d="M1300.46 409.888C1242.17 358.653 1183.62 307.673 1126.44 258.368C1120.67 253.407 1114.94 248.042 1108.88 242.363C1089.05 223.793 1066.59 202.731 1037.86 193.116C1010.09 183.828 977.439 186.258 938.038 200.54C896.754 215.482 858.824 236.582 822.146 256.986C803.751 267.217 784.733 277.797 765.351 287.587C734.763 303.055 709.035 314.854 684.354 324.724C653.932 336.886 625.469 345.952 597.333 352.427C591.558 353.755 585.721 354.991 579.989 356.098C550.121 361.868 520.771 364.787 492.704 364.787C491.146 364.787 489.593 364.778 488.044 364.76C455.595 364.384 425.389 360.034 398.267 351.835C384.897 347.746 372.136 342.718 360.172 336.825C348.715 331.199 337.454 324.576 326.704 317.136C307.361 303.75 289.283 287.605 271.435 267.78C270.675 266.927 269.915 266.072 269.155 265.214C258.799 253.517 249.002 241.29 239.528 229.464C234.056 222.639 228.404 215.579 222.709 208.707C205.176 187.537 190.319 171.919 174.539 158.063C172.419 156.2 170.23 154.333 168.034 152.509C128.093 119.337 76.4811 92.993 18.7788 76.3253C-50.7931 56.2521 -121.234 51.1243 -179.567 61.8923C-238.875 72.8679 -298.406 108.989 -297.443 156.788H-297.671C-298.127 134.524 -285.717 113.353 -261.798 95.565C-250.988 87.5247 -238.218 80.4833 -223.845 74.6128C-209.976 68.9429 -195.108 64.6117 -179.631 61.7334C-148.851 56.0575 -115 54.7358 -79.0263 57.8154C-46.7119 60.5771 -13.7796 66.7541 18.8541 76.1712C76.5928 92.8487 128.235 119.208 168.194 152.399C170.39 154.221 172.581 156.091 174.703 157.956C190.49 171.818 205.351 187.443 222.891 208.619C228.591 215.492 234.243 222.551 239.713 229.377C249.184 241.199 258.979 253.425 269.333 265.12C270.093 265.977 270.853 266.831 271.613 267.684C309.538 309.812 350.995 337.289 398.351 351.687C463.944 371.517 533.295 364.948 579.923 355.944C585.655 354.837 591.487 353.603 597.251 352.273C661.958 337.383 720.998 309.814 765.208 287.457C784.588 277.671 803.603 267.092 821.993 256.861C858.683 236.452 896.62 215.346 937.924 200.399C955.556 194.008 971.513 190.085 986.716 188.398C1005.45 186.326 1022.69 187.863 1037.95 192.968C1050.81 197.274 1063.49 204.195 1076.71 214.126C1088.36 222.875 1098.88 232.732 1109.05 242.263C1115.11 247.939 1120.84 253.305 1126.61 258.262C1183.79 307.561 1242.34 358.549 1300.63 409.784L1300.46 409.888Z" fill="#FDFCFC"/>
<path d="M1298.04 408.36L1127.39 255.169C1121.81 250.166 1116.28 244.722 1110.42 238.952C1091.08 219.937 1069.16 198.383 1040.51 188.928C1012.8 179.785 979.154 183.265 940.51 199.271C903.36 214.661 869.474 235.125 836.706 254.915C815.347 267.815 793.261 281.154 770.568 292.893C702.362 328.178 642.753 349.018 582.979 358.48C558.181 362.405 533.719 364.378 509.996 364.378C502.806 364.378 495.689 364.197 488.644 363.835C455.429 362.123 424.765 356.374 397.503 346.733C372.234 337.799 349.121 325.184 326.843 308.169C309.059 294.583 292.003 278.385 273.181 257.195C263.25 246.005 253.628 234.392 244.326 223.156C223.272 197.728 201.503 171.424 174.558 148.292C133.212 112.801 78.9482 84.9669 17.6276 67.7997C-52.3844 48.1984 -123.016 43.6236 -181.259 54.9333C-237.644 65.878 -298.841 100.391 -299.967 150.306H-300.195C-299.691 127.995 -286.901 106.827 -263.202 89.0908C-241.77 73.054 -212.696 60.8735 -181.318 54.7792C-150.57 48.8098 -116.687 47.2043 -80.6085 50.0033C-48.2142 52.5186 -15.136 58.4556 17.7074 67.6505C48.0874 76.1583 76.8609 87.3218 103.365 100.884C129.887 114.427 153.869 130.324 174.729 148.188C201.692 171.339 223.466 197.638 244.524 223.073C253.827 234.308 263.448 245.927 273.377 257.109C300.838 288.026 339.776 326.139 397.606 346.589C463.926 370.04 534.992 365.917 582.931 358.33C642.667 348.874 702.257 328.041 770.438 292.77C793.122 281.034 815.206 267.697 836.558 254.8C869.335 235.005 903.227 214.536 940.394 199.14C979.106 183.105 1012.82 179.621 1040.6 188.789C1053.43 193.023 1065.99 200.004 1079 210.135C1090.45 219.054 1100.7 229.123 1110.6 238.865C1116.46 244.627 1122 250.067 1127.56 255.069L1298.21 408.26L1298.04 408.36Z" fill="#FDFCFC"/>
<path d="M1296.66 396.584C1253.21 353.934 1215.92 319.319 1179.33 287.662C1161.57 272.282 1143.42 257.145 1125.41 242.67C1119.96 238.291 1114.56 233.634 1108.85 228.702C1094.48 216.308 1079.63 203.491 1062.53 193.98C1053.36 188.864 1044.52 185.2 1035.52 182.781C1007.9 175.28 975.503 180.24 939.216 197.522C920.436 206.451 903.336 216.614 889.086 225.378C873.999 234.655 859.118 244.886 844.724 254.78C824.037 269.003 802.647 283.708 779.651 296.339C765.658 304.046 751.474 310.934 737.491 316.811C709.272 328.648 679.352 338.301 648.243 345.604C628.938 350.095 609.54 353.489 590.591 355.693C574.504 357.566 558.254 358.65 541.958 358.936C518.1 359.329 494.858 357.832 472.874 354.483C449.5 350.916 427.381 345.24 407.128 337.585C389.071 330.764 372.016 322.179 354.985 311.314C323.252 291.111 297.941 267.751 279.437 249.656C270.344 240.725 261.47 231.618 252.886 222.81C228.169 197.447 204.822 173.489 175.594 152.149C151.653 134.799 124.464 119.879 94.7956 107.809C71.8976 98.4791 46.9931 90.8491 20.7754 85.1294C14.5305 83.7688 8.16702 82.5023 1.86737 81.3638C-25.2646 76.4777 -55.7915 73.2959 -88.8766 71.9062C-122.242 70.4726 -151.107 71.7132 -177.113 75.7025C-191.779 77.9306 -206.004 81.4344 -219.466 86.1348C-266.769 102.676 -297.145 130.446 -300.723 160.418L-301.008 160.4C-300.026 152.334 -297.219 144.434 -292.695 137.005C-288.363 129.849 -282.408 122.947 -275.002 116.491C-261.008 104.296 -241.849 93.7357 -219.598 85.9532C-206.115 81.2457 -191.868 77.7364 -177.179 75.5047C-151.15 71.517 -122.26 70.2683 -88.8675 71.7035C-55.7551 73.0949 -25.2054 76.2782 1.93576 81.1676C8.24225 82.3028 14.608 83.5742 20.8597 84.9364C47.098 90.6593 72.0207 98.2959 94.9392 107.64C124.633 119.719 151.845 134.652 175.806 152.016C205.04 173.369 228.392 197.332 253.119 222.703C261.701 231.511 270.574 240.617 279.665 249.546C298.16 267.631 323.459 290.98 355.172 311.17C372.185 322.009 389.221 330.591 407.26 337.405C446.894 352.378 492.209 359.554 541.949 358.732C558.232 358.446 574.467 357.363 590.541 355.489C609.478 353.288 628.86 349.897 648.152 345.41C679.245 338.111 709.149 328.465 737.354 316.636C751.326 310.764 765.501 303.88 779.484 296.179C802.467 283.556 823.851 268.853 844.532 254.636C858.928 244.744 873.812 234.506 888.906 225.225C903.163 216.457 920.272 206.289 939.066 197.353C955.22 189.658 970.865 184.342 985.562 181.55C1003.62 178.122 1020.46 178.469 1035.63 182.591C1044.66 185.024 1053.52 188.692 1062.71 193.821C1079.84 203.345 1094.7 216.17 1109.07 228.572C1114.79 233.504 1120.18 238.16 1125.63 242.535C1143.64 257.012 1161.79 272.152 1179.56 287.532C1216.16 319.192 1253.44 353.807 1296.9 396.464L1296.66 396.584Z" fill="#FDFCFC"/>
<path d="M1295.29 384.803C1255 341.428 1217.18 305.131 1179.69 273.841C1161.4 258.558 1142.48 243.865 1123.44 230.172C1118.38 226.539 1113.41 222.764 1108.12 218.768C1092.3 206.802 1075.95 194.428 1057.64 185.868C1048.39 181.526 1039.53 178.503 1030.54 176.624C996.14 169.429 961.19 183.057 937.927 195.76C921.445 204.731 906.395 214.875 891.146 225.346C877.801 234.512 865.245 244.371 851.953 254.809C832.224 270.302 811.825 286.323 788.735 299.775C775.035 307.8 760.737 314.74 746.238 320.399C719.232 330.94 689.658 339.131 655.827 345.433C636.911 348.955 617.646 351.449 598.198 352.893C582.143 354.076 565.995 354.496 549.862 354.151C526.378 353.629 503.432 351.281 481.644 347.178C458.979 342.925 437.172 336.627 416.753 328.438C399.074 321.325 382.008 312.5 364.573 301.46C332.911 281.437 305.786 259.237 285.685 242.135C278.248 235.811 270.929 229.434 263.85 223.273C235.657 198.732 209.029 175.554 176.658 156.025C152.465 141.428 125.303 129.086 95.9323 119.346C73.7091 111.974 50.1613 106.45 23.9253 102.459C17.8719 101.54 11.7136 100.706 5.62372 99.996C-21.1252 96.871 -49.6708 95.6888 -84.2083 94.4661C-109.106 93.5401 -141.698 92.9303 -173.007 96.4705C-187.638 98.0744 -201.945 100.923 -215.621 104.955C-262.958 118.986 -295.072 143.501 -301.522 170.531L-301.859 170.491C-300.149 163.323 -296.686 156.291 -291.565 149.594C-286.686 143.211 -280.275 137.09 -272.511 131.398C-257.757 120.585 -238.131 111.362 -215.753 104.73C-202.054 100.691 -187.723 97.8372 -173.067 96.2289C-141.726 92.6871 -109.108 93.2969 -84.1946 94.2245C-49.6435 95.4456 -21.0865 96.6294 5.68073 99.756C11.7752 100.471 17.938 101.301 23.9959 102.221C50.2524 106.22 73.8299 111.745 96.0759 119.125C125.488 128.877 152.663 141.229 176.879 155.839C209.273 175.38 235.913 198.569 264.114 223.118C271.182 229.28 278.512 235.648 285.948 241.978C306.034 259.074 333.143 281.263 364.794 301.276C382.209 312.304 399.259 321.119 416.915 328.224C456.587 344.189 501.319 352.831 549.867 353.911C565.984 354.256 582.116 353.836 598.155 352.653C617.586 351.209 636.835 348.715 655.734 345.193C689.537 338.896 719.086 330.715 746.067 320.182C760.548 314.529 774.827 307.598 788.512 299.587C811.579 286.146 831.971 270.132 851.693 254.646C864.99 244.204 877.548 234.343 890.909 225.171C906.165 214.695 921.222 204.546 937.72 195.567C952.8 187.334 967.674 181.41 981.931 177.959C999.218 173.775 1015.61 173.256 1030.64 176.392C1039.66 178.276 1048.55 181.311 1057.83 185.663C1076.17 194.242 1092.54 206.625 1108.37 218.601C1113.64 222.597 1118.63 226.371 1123.68 230C1142.73 243.698 1161.66 258.396 1179.95 273.683C1217.46 304.982 1255.28 341.285 1295.58 384.67L1295.29 384.803Z" fill="#FDFCFC"/>
<path d="M1293.9 373.024C1256.2 328.339 1218.95 291.376 1180.04 260.023C1161.22 244.833 1141.5 230.587 1121.44 217.676C1117.15 214.92 1112.74 211.989 1108.47 209.156C1090.84 197.457 1072.62 185.361 1052.72 177.757C1043.37 174.163 1034.49 171.781 1025.54 170.471C991.213 165.444 958.235 180.491 936.623 193.997C921.969 203.114 908.579 213.457 895.62 223.443L893.194 225.315C881.431 234.38 870.394 244.326 858.716 254.855C840.113 271.62 820.868 288.958 797.803 303.212C784.376 311.567 769.964 318.558 754.969 323.991C728.826 333.463 699.736 340.23 663.399 345.258C644.394 347.884 625.142 349.503 605.8 350.1C589.783 350.589 573.738 350.347 557.765 349.375C510.455 346.456 466.25 336.335 426.375 319.288C409.138 311.921 392.059 302.862 374.163 291.594C343.878 272.567 316.935 253.01 291.951 234.608C288.599 232.14 285.28 229.691 281.994 227.261C247.853 202.043 215.614 178.224 177.725 159.899C152.992 147.928 125.86 138.168 97.077 130.885C75.9505 125.534 53.057 121.911 27.081 119.79C21.2282 119.316 15.2751 118.925 9.38815 118.629C-5.43185 117.901 -21.1433 117.782 -37.7805 117.656C-51.1436 117.555 -64.9604 117.451 -79.5387 117.03C-107.699 116.143 -139.614 115.137 -168.899 117.239C-184.008 118.324 -198.432 120.523 -211.763 123.776C-259.08 135.322 -292.931 156.584 -302.306 180.653L-302.691 180.577C-300.218 174.231 -296.079 168.041 -290.414 162.179C-284.987 156.573 -278.12 151.231 -270.003 146.303C-254.479 136.879 -234.383 128.996 -211.89 123.508C-198.53 120.247 -184.074 118.043 -168.937 116.957C-139.624 114.849 -107.692 115.859 -79.5205 116.746C-64.949 117.168 -51.1322 117.271 -37.7737 117.372C-21.1297 117.498 -5.39764 117.617 9.42236 118.345C15.3162 118.64 21.2784 119.033 27.1334 119.508C53.1254 121.63 76.0576 125.263 97.2137 130.616C126.024 137.914 153.188 147.678 177.951 159.659C215.874 178.007 248.129 201.834 282.277 227.061C285.568 229.491 288.886 231.941 292.234 234.409C317.22 252.807 344.147 272.356 374.423 291.38C392.3 302.637 409.359 311.684 426.576 319.043C466.398 336.071 510.546 346.177 557.794 349.09C573.751 350.062 589.779 350.304 605.779 349.816C625.102 349.22 644.337 347.605 663.324 344.984C699.615 339.948 728.682 333.197 754.798 323.74C769.764 318.318 784.148 311.34 797.552 303C820.598 288.763 839.823 271.437 858.412 254.674C870.1 244.133 881.139 234.192 892.911 225.117L895.337 223.245C908.299 213.246 921.703 202.906 936.377 193.779C958.064 180.23 991.158 165.14 1025.65 170.189C1034.63 171.504 1043.56 173.896 1052.93 177.502C1072.88 185.124 1091.12 197.233 1108.77 208.944C1113.04 211.775 1117.45 214.704 1121.73 217.462C1141.8 230.377 1161.52 244.634 1180.35 259.83C1219.28 291.196 1256.54 328.173 1294.26 372.873L1293.9 373.024Z" fill="#FDFCFC"/>
<path d="M1292.53 361.241C1257.91 315.88 1220.19 277.176 1180.4 246.206C1161.05 231.111 1140.56 217.307 1119.48 205.177C1116.44 203.427 1113.33 201.609 1110.31 199.85C1090.38 188.237 1069.79 176.228 1047.85 169.644C1038.43 166.788 1029.51 165.045 1020.59 164.312C986.351 161.503 955.333 177.934 935.34 192.228C922.926 201.053 911.722 210.867 900.885 220.359C899.008 222.002 897.133 223.641 895.26 225.274C884.952 234.246 875.315 244.266 865.112 254.877C847.766 272.913 829.826 291.562 806.892 306.643C793.422 315.499 779.304 322.347 763.713 327.577C731.109 338.518 698.535 342.569 670.967 345.091C651.873 346.812 632.63 347.551 613.386 347.303C597.41 347.096 581.467 346.191 565.647 344.592C519.758 339.919 476.132 328.328 435.984 310.137C419.28 302.57 402.19 293.272 383.74 281.73C365.101 270.093 347.73 258.895 330.933 248.066C319.515 240.705 308.732 233.753 298.201 227.083C258.392 201.869 221.928 179.7 178.793 163.766C153.25 154.359 126.196 147.193 98.2246 142.424C78.017 138.963 56.4162 137.279 30.2487 137.12C24.6034 137.089 18.8487 137.136 13.1601 137.259C4.51202 137.459 -4.4324 137.877 -13.9035 138.318C-32.0751 139.166 -52.6635 140.128 -74.8639 139.589C-83.3136 139.384 -91.9342 139.093 -100.272 138.811C-121.718 138.086 -143.893 137.337 -164.796 138C-180.138 138.487 -194.646 140.037 -207.918 142.59C-255.155 151.679 -290.741 169.691 -303.106 190.773L-303.527 190.648C-300.29 185.134 -295.493 179.783 -289.268 174.756C-283.292 169.926 -275.971 165.365 -267.506 161.198C-251.197 153.171 -230.633 146.629 -208.036 142.281C-194.712 139.724 -180.184 138.175 -164.808 137.681C-143.893 137.011 -121.716 137.76 -100.252 138.492C-91.916 138.774 -83.2953 139.064 -74.8479 139.27C-52.6818 139.808 -32.0956 138.847 -13.9332 138C-4.45975 137.557 4.48926 137.139 13.1464 136.941C18.8464 136.816 24.6011 136.769 30.2464 136.8C56.4504 136.962 78.0831 138.647 98.3249 142.114C126.334 146.887 153.425 154.061 179.003 163.479C198.488 170.676 218.232 179.793 239.366 191.354C258.29 201.702 276.692 213.024 298.504 226.839C309.036 233.511 319.822 240.462 331.238 247.824C348.035 258.654 365.404 269.851 384.041 281.487C402.475 293.024 419.545 302.306 436.23 309.866C476.324 328.029 519.888 339.608 565.714 344.274C581.514 345.871 597.438 346.776 613.395 346.982C632.616 347.23 651.837 346.491 670.908 344.77C698.441 342.255 730.977 338.21 763.52 327.288C779.062 322.073 793.148 315.242 806.582 306.409C829.48 291.355 847.394 272.718 864.735 254.698C874.945 244.083 884.587 234.056 894.907 225.073C896.782 223.442 898.657 221.804 900.529 220.16C911.373 210.657 922.588 200.839 935.028 192.007C948.035 182.713 961.38 175.563 974.7 170.763C990.466 165.069 1005.94 162.796 1020.66 164.004C1029.63 164.74 1038.59 166.492 1048.04 169.355C1070.04 175.959 1090.67 187.982 1110.61 199.611C1113.63 201.369 1116.75 203.187 1119.79 204.937C1140.88 217.074 1161.39 230.884 1180.75 245.995C1201.88 262.44 1222.57 281.185 1242.25 301.685C1259.64 319.811 1276.7 339.795 1292.95 361.094L1292.53 361.241Z" fill="#FDFCFC"/>
<path d="M1291.17 349.456C1259.13 302.797 1221.98 263.408 1180.77 232.387C1160.9 217.388 1139.62 204.032 1117.53 192.686L1114.37 191.065C1091.4 179.252 1067.65 167.038 1042.98 161.537C1033.42 159.406 1024.48 158.294 1015.63 158.159C981.537 157.612 952.455 175.423 934.067 190.461C923.246 199.261 913.643 208.902 904.354 218.228C902.056 220.532 899.682 222.916 897.336 225.238C888.405 234.083 880.106 244.141 871.319 254.787C855.334 274.155 838.804 294.181 815.988 310.087C802.787 319.285 788.551 326.183 772.465 331.178C740.773 341.015 708.598 343.599 678.547 344.925C660.018 345.736 640.654 345.605 620.993 344.512C605.064 343.607 589.223 342.037 573.553 339.809C529.226 333.484 486.179 320.423 445.616 300.987C429.371 293.203 412.759 283.96 393.338 271.867C356.422 248.96 329.007 232.828 304.47 219.559C255.648 193.165 218.386 177.637 179.879 167.638C153.875 160.906 126.87 156.318 99.3954 153.964C80.2252 152.311 59.8807 152.46 33.4327 154.45C28.0132 154.862 22.4682 155.349 16.9506 155.894C11.7408 156.417 6.44437 157.017 0.83786 157.651C-19.8623 159.995 -43.3258 162.651 -70.1796 162.155C-84.3339 161.894 -98.789 161.182 -112.772 160.488C-128.659 159.701 -145.091 158.889 -160.666 158.778C-176.286 158.668 -190.883 159.559 -204.048 161.422C-251.13 168.089 -288.453 182.854 -303.884 200.92L-304.324 200.73C-300.314 196.037 -294.851 191.53 -288.086 187.335C-281.556 183.281 -273.781 179.504 -264.978 176.095C-247.878 169.475 -226.836 164.278 -204.146 161.065C-190.949 159.195 -176.33 158.308 -160.661 158.414C-145.071 158.524 -128.632 159.336 -112.736 160.123C-98.7594 160.814 -84.3088 161.529 -70.1659 161.79C-43.36 162.285 -19.9215 159.631 0.758057 157.291C6.36002 156.654 11.6564 156.052 16.8754 155.527C22.3998 154.98 27.9493 154.496 33.3734 154.084C59.8625 152.094 80.2434 151.946 99.4524 153.597C126.969 155.955 154.014 160.55 180.057 167.292C218.617 177.305 255.917 192.848 304.773 219.264C329.329 232.539 356.744 248.677 393.659 271.588C413.064 283.663 429.658 292.908 445.885 300.681C486.394 320.091 529.376 333.132 573.638 339.439C589.288 341.662 605.108 343.229 621.016 344.131C640.654 345.22 660.004 345.36 678.499 344.544C708.504 343.219 740.627 340.641 772.244 330.825C788.272 325.849 802.458 318.975 815.612 309.808C838.382 293.943 854.892 273.938 870.861 254.591C879.653 243.936 887.961 233.872 896.903 225.015C899.249 222.694 901.623 220.312 903.919 218.004C913.214 208.673 922.829 199.022 933.666 190.212C945.665 180.397 958.244 172.633 971.058 167.135C986.065 160.695 1001.06 157.551 1015.63 157.783C1024.52 157.925 1033.51 159.036 1043.11 161.177C1067.87 166.691 1091.65 178.928 1114.66 190.757L1117.81 192.378C1139.93 203.73 1161.23 217.109 1181.13 232.124C1222.38 263.171 1259.56 302.59 1291.61 349.283L1291.17 349.456Z" fill="#FDFCFC"/>
<path d="M689.881 344.754C688.603 344.754 687.343 344.754 686.101 344.754C667.665 344.698 648.31 343.677 628.572 341.715C612.695 340.115 596.956 337.884 581.43 335.032C559.727 331.033 537.942 325.285 516.678 317.95C496.158 310.868 475.47 302.084 455.219 291.841C435.383 281.808 416.842 270.628 402.911 262.002C370.307 241.893 339.299 225.078 310.735 212.035C264.465 190.911 223.231 178.033 180.967 171.509C154.94 167.533 128.396 165.518 101.776 165.497H100.549C77.9222 165.552 56.4423 168.543 36.5995 171.767C31.4352 172.612 26.0932 173.536 20.7215 174.512C17.778 175.054 14.8323 175.612 11.711 176.202C-10.2888 180.371 -35.2251 185.095 -65.5195 184.708C-83.9692 184.473 -102.813 183.112 -121.037 181.789C-132.802 180.939 -144.977 180.06 -156.576 179.531C-172.536 178.802 -187.212 179.037 -200.215 180.227C-247.046 184.515 -286.112 196.037 -304.714 211.039L-305.141 210.77C-295.601 203.073 -281.249 196.407 -262.482 190.959C-244.561 185.755 -223.056 181.904 -200.288 179.818C-187.249 178.625 -172.529 178.39 -156.539 179.12C-144.923 179.65 -132.75 180.529 -120.971 181.378C-102.761 182.694 -83.9282 184.053 -65.5012 184.288C-35.2867 184.675 -10.3914 179.958 11.5627 175.797C14.6841 175.205 17.6321 174.647 20.5779 174.105C25.9541 173.132 31.2939 172.203 36.4695 171.358C56.3442 168.129 77.8629 165.132 100.538 165.077C127.608 165.035 154.607 167.053 181.074 171.097C202.889 174.464 224.034 179.423 245.721 186.253C266.606 192.832 287.969 201.15 311.029 211.678C339.621 224.731 370.656 241.554 403.271 261.68C417.179 270.292 435.711 281.464 455.534 291.488C496.626 312.268 539.027 326.779 581.558 334.615C597.062 337.463 612.779 339.691 628.633 341.29C648.349 343.249 667.678 344.269 686.089 344.324C714.893 344.408 748.333 343.719 780.965 334.368C797.477 329.636 811.763 322.717 824.636 313.215C847.247 296.528 862.238 275.105 876.734 254.397C884.189 243.742 891.235 233.678 898.893 224.966C901.346 222.175 903.823 219.298 906.216 216.517C914.306 207.123 922.669 197.407 932.304 188.428C943.317 178.098 955.134 169.719 967.416 163.524C981.666 156.343 996.194 152.323 1010.6 151.58C1019.49 151.121 1028.51 151.59 1038.19 153.014C1064.04 156.818 1089.67 167.871 1115.84 179.835C1138.65 190.265 1161.36 203.555 1181.5 218.269C1203.88 234.565 1224.9 253.683 1243.98 275.091C1260.99 294.163 1276.57 315.158 1290.27 337.492L1289.75 337.654C1260.3 289.691 1223.74 249.619 1181.08 218.552C1160.97 203.86 1138.3 190.59 1115.52 180.175C1089.43 168.253 1063.85 157.219 1038.08 153.427C1028.47 152.013 1019.49 151.546 1010.66 152.002C984.195 153.369 956.532 166.399 932.765 188.692C923.148 197.655 914.792 207.361 906.709 216.747C904.315 219.53 901.839 222.407 899.383 225.198C891.739 233.894 884.7 243.95 877.251 254.596C870.138 264.759 862.783 275.269 854.342 285.372C844.766 296.825 835.19 306.031 825.053 313.513C812.123 323.057 797.773 330.008 781.186 334.758C766.555 338.951 750.83 341.723 733.11 343.234C718.112 344.518 703.041 344.754 689.881 344.754Z" fill="#FDFCFC"/>
<path d="M726.444 345.567C714.816 345.567 703.644 345.08 693.662 344.574C675.29 343.658 655.944 341.751 636.158 338.91C620.339 336.613 604.704 333.72 589.318 330.242C548.075 320.894 507.356 305.339 464.83 282.686C446.286 272.808 428.806 262.18 412.495 252.14C380.306 232.388 348.171 216.357 317.013 204.516C271.185 187.1 228.307 177.842 182.073 175.38C155.284 173.988 128.366 174.542 101.735 177.036C79.7925 179.115 59.0992 184.131 39.7945 189.092C34.9632 190.339 29.8241 191.701 24.5185 193.146C23.1931 193.508 21.8547 193.875 20.5034 194.247C-1.73798 200.364 -26.9046 207.285 -59.2031 207.285C-59.748 207.285 -60.2906 207.285 -60.8401 207.285C-82.6917 207.123 -105.001 204.91 -126.579 202.764C-135.134 201.913 -143.978 201.034 -152.469 200.322C-169.049 198.934 -183.411 198.525 -196.37 199.073C-243.514 201.066 -283.307 209.137 -305.541 221.216L-305.922 220.862C-294.93 214.89 -279.036 209.707 -259.964 205.87C-241.204 202.098 -219.225 199.592 -196.407 198.627C-183.411 198.078 -169.012 198.488 -152.403 199.879C-143.905 200.591 -135.056 201.472 -126.5 202.322C-104.942 204.465 -82.6529 206.682 -60.8356 206.84C-27.8645 207.08 -2.28973 200.045 20.2754 193.838C21.6267 193.466 22.9651 193.098 24.2905 192.736C29.5983 191.296 34.7397 189.933 39.5665 188.682C58.9077 183.714 79.6329 178.689 101.637 176.603C128.31 174.106 155.272 173.55 182.103 174.946C204.755 176.126 227.156 179.074 248.902 183.737C271.586 188.581 293.962 195.251 317.302 204.122C348.502 215.978 380.666 232.015 412.905 251.799C429.209 261.834 446.679 272.456 465.206 282.326C507.669 304.948 548.326 320.482 589.502 329.814C604.867 333.288 620.48 336.177 636.277 338.47C656.035 341.308 675.353 343.21 693.698 344.127C724.565 345.669 757.402 346.46 789.705 337.933C806.702 333.446 821.084 326.483 833.677 316.644C856.107 299.117 870.068 275.211 882.387 254.121C888.584 243.509 894.439 233.485 900.898 224.941C903.23 221.86 905.574 218.671 907.843 215.589C914.938 205.949 922.273 195.979 930.96 186.669C941.008 175.823 952.061 166.828 963.812 159.934C977.31 152.014 991.371 147.123 1005.6 145.4C1014.49 144.324 1023.55 144.15 1033.28 144.87C1060.47 146.886 1088.09 156.848 1113.89 167.311C1137.71 176.973 1161.24 189.81 1181.91 204.435C1204.91 220.651 1226.1 239.964 1244.89 261.823C1261.69 281.371 1276.53 302.868 1288.98 325.717L1288.39 325.879C1261.92 277.303 1224.95 235.417 1181.46 204.749C1160.83 190.154 1137.35 177.343 1113.58 167.697C1087.84 157.256 1060.29 147.32 1033.21 145.318C1023.54 144.601 1014.54 144.773 1005.7 145.843C979.426 149.026 953.067 163.614 931.477 186.919C922.813 196.211 915.481 206.168 908.392 215.799C906.124 218.881 903.78 222.069 901.445 225.155C895.002 233.68 889.154 243.694 882.961 254.295C870.622 275.421 856.639 299.363 834.135 316.947C821.474 326.839 807.003 333.842 789.917 338.353C775.085 342.268 759.082 344.534 740.997 345.28C736.109 345.484 731.239 345.567 726.444 345.567Z" fill="#FDFCFC"/>
<path d="M749.392 347.324H748.895C732.465 347.295 716.334 345.865 701.218 344.405C682.878 342.631 663.538 339.842 643.741 336.113C627.985 333.123 612.452 329.567 597.202 325.459C557.607 314.779 518.603 298.279 474.451 273.537C458.55 264.63 442.903 255.037 427.771 245.763L422.089 242.281C389.713 222.526 356.479 207.29 323.294 197C277.851 182.908 232.021 177.102 183.184 179.251C156.065 180.47 129.183 183.591 102.928 188.569C82.6355 192.45 64.5369 198.676 42.9954 206.408C38.627 207.981 33.9666 209.682 28.3259 211.759L28.0113 211.876C17.122 215.906 4.78949 220.474 -9.04782 223.956C-24.9371 227.945 -40.3522 229.865 -56.1595 229.844C-80.8108 229.801 -105.964 226.536 -130.289 223.38C-136.249 222.607 -142.412 221.807 -148.363 221.084C-165.428 219.013 -179.875 217.967 -192.526 217.889C-239.111 217.597 -280.612 222.506 -306.385 231.349L-306.684 230.911C-294.059 226.575 -277.03 223.056 -257.436 220.734C-237.805 218.405 -215.358 217.25 -192.519 217.395C-179.831 217.473 -165.349 218.53 -148.246 220.598C-142.291 221.319 -136.126 222.12 -130.164 222.894C-105.868 226.046 -80.7447 229.306 -56.1549 229.35H-55.8266C-20.653 229.35 6.14383 219.423 27.6898 211.443L28.0067 211.326C33.6497 209.251 38.3123 207.549 42.6808 205.975C64.2587 198.225 82.3824 191.989 102.745 188.097C129.046 183.11 155.976 179.983 183.142 178.763C207.041 177.712 229.584 178.513 252.062 181.215C276.287 184.134 299.676 189.142 323.568 196.551C356.817 206.86 390.114 222.122 422.536 241.91L428.22 245.39C443.345 254.663 458.988 264.25 474.878 273.151C518.973 297.863 557.92 314.342 597.448 325.002C612.677 329.103 628.188 332.655 643.921 335.641C663.689 339.362 683.001 342.148 701.314 343.92C734.116 347.094 766.23 349.296 798.442 341.488C815.925 337.25 830.405 330.241 842.712 320.064C864.942 301.68 877.086 276.203 887.802 253.727C892.818 243.204 897.555 233.263 902.9 224.91C904.952 221.695 907.02 218.371 909.015 215.155C915.253 205.101 921.703 194.706 929.612 184.904C938.716 173.538 949.004 163.924 960.192 156.333C972.944 147.68 986.532 141.92 1000.58 139.215C1009.29 137.538 1018.18 136.721 1027.74 136.721H1028.36C1058.06 136.829 1088.62 146.426 1111.93 154.777C1136.77 163.67 1161.1 176.055 1182.3 190.588C1205.93 206.734 1227.29 226.233 1245.78 248.546C1262.38 268.567 1276.47 290.57 1287.67 313.94L1287.02 314.102C1270.36 279.327 1238.59 229.732 1181.83 190.943C1160.67 176.442 1136.4 164.088 1111.63 155.216C1088.37 146.89 1057.91 137.321 1028.36 137.215C1018.63 137.175 1009.6 137.989 1000.77 139.69C974.736 144.703 949.678 160.848 930.212 185.152C922.321 194.931 915.877 205.316 909.646 215.358C907.651 218.575 905.588 221.901 903.529 225.117C898.198 233.449 893.465 243.377 888.456 253.889C877.722 276.408 865.556 301.932 843.237 320.388C830.849 330.634 816.271 337.688 798.67 341.956C783.745 345.565 767.62 347.324 749.392 347.324Z" fill="#FDFCFC"/>
<path d="M767.639 349.607C764.1 349.607 760.481 349.526 756.781 349.364C740.575 348.655 724.825 346.529 708.774 344.226C690.164 341.557 671.382 337.986 651.318 333.309C635.454 329.579 619.897 325.324 605.077 320.66C567.487 308.867 530.163 291.507 484.059 264.373C472.609 257.635 461.164 250.568 450.087 243.732C444.061 240.002 437.832 236.164 431.663 232.406C398.908 212.518 364.555 198.072 329.564 189.467C283.328 178.096 235.806 176.007 184.285 183.102C157.062 186.845 129.337 192.717 104.097 200.083C83.8235 205.999 66.1627 214.307 47.4621 223.111L46.1693 223.719C43.2479 225.097 40.2946 226.494 37.3093 227.909L32.1063 230.373C21.2011 235.562 9.42715 240.966 -4.07959 245.13C-19.7569 249.963 -35.2677 252.34 -51.5036 252.398C-78.5216 252.491 -106.08 248.02 -132.726 243.703C-136.532 243.087 -140.465 242.448 -144.284 241.843C-162.188 239.005 -176.306 237.37 -188.712 236.701C-234.499 234.224 -277.709 235.969 -307.272 241.489L-307.461 240.98C-277.821 235.445 -234.526 233.694 -188.659 236.175C-176.217 236.848 -162.068 238.486 -144.129 241.329C-140.305 241.934 -136.377 242.573 -132.567 243.189C-106.244 247.459 -79.0346 251.873 -52.3745 251.873H-51.5127C-17.0277 251.75 7.51877 241.426 31.6822 229.937L36.8852 227.475C39.8766 226.059 42.8314 224.661 45.7498 223.283L47.0426 222.675C65.7728 213.864 83.4633 205.542 103.815 199.606C129.098 192.229 156.875 186.346 184.144 182.595C235.797 175.49 283.444 177.579 329.806 188.979C364.886 197.607 399.316 212.087 432.144 232.017C438.316 235.775 444.547 239.623 450.573 243.345C461.64 250.178 473.081 257.244 484.524 263.979C530.58 291.081 567.845 308.413 605.364 320.19C620.162 324.838 635.688 329.085 651.534 332.811C671.555 337.482 690.319 341.048 708.899 343.714C737.103 347.76 772.203 352.795 807.167 345.039C825.136 341.051 839.714 333.998 851.734 323.482C873.75 304.215 883.958 277.119 892.966 253.213C896.878 242.834 900.574 233.018 904.888 224.877C906.568 221.705 908.251 218.424 909.881 215.251C915.353 204.607 920.994 193.603 928.249 183.141C936.432 171.244 945.953 161.013 956.555 152.73C968.566 143.345 981.685 136.716 995.543 133.029C1004.51 130.654 1013.89 129.155 1023.42 128.573C1036.62 127.723 1050.68 128.631 1066.39 131.343C1079.7 133.628 1093.95 137.196 1109.97 142.236C1135.81 150.362 1160.96 162.293 1182.7 176.737C1206.96 192.806 1228.48 212.497 1246.68 235.262C1263.06 255.762 1276.41 278.269 1286.35 302.158L1285.64 302.307C1264.65 251.873 1227.91 207.415 1182.19 177.121C1160.52 162.718 1135.44 150.818 1109.68 142.717C1075.15 131.862 1047.78 127.532 1023.51 129.095C1014.04 129.673 1004.73 131.161 995.826 133.521C962.846 142.289 941.245 165.468 928.933 183.37C921.694 193.81 916.053 204.802 910.595 215.432C908.967 218.606 907.28 221.888 905.599 225.063C901.299 233.172 897.619 242.977 893.7 253.35C884.674 277.306 874.443 304.461 852.327 323.814C840.214 334.415 825.519 341.521 807.411 345.545C795.122 348.263 782.028 349.607 767.639 349.607Z" fill="#FDFCFC"/>
<path d="M783.446 352.229C759.335 352.229 736.155 347.823 716.323 344.054C697.664 340.509 678.881 336.079 658.901 330.512C643.126 326.085 627.665 321.163 612.964 315.884C568.88 300.081 529.58 277.393 493.679 255.233C486.346 250.709 478.943 246.045 471.791 241.535C461.848 235.272 451.567 228.796 441.266 222.561C408.015 202.465 372.552 188.806 335.864 181.952C288.401 173.087 239.192 174.726 185.411 186.967C157.725 193.268 130.023 201.79 105.299 211.616C86.2314 219.191 70.1004 228.753 53.0209 238.875L49.3729 241.032L48.7117 241.424C44.5598 243.888 40.2757 246.434 35.9118 248.99C25.483 255.139 13.9987 261.501 0.715393 266.363C-14.7042 272.005 -30.2493 274.818 -46.8112 274.958C-75.888 275.215 -105.521 269.402 -134.174 263.779C-136.182 263.386 -138.181 262.994 -140.173 262.605C-159.072 258.918 -172.854 256.732 -184.861 255.515C-229.498 250.997 -274.424 249.577 -308.117 251.623L-308.184 251.059C-274.44 249.012 -229.444 250.435 -184.749 254.959C-172.704 256.179 -158.889 258.365 -139.958 262.062L-133.957 263.238C-105.357 268.849 -75.7832 274.648 -46.818 274.395C-10.8465 274.071 14.4866 260.888 35.4079 248.55C39.7604 245.994 44.0536 243.448 48.2055 240.987L48.8667 240.594L52.5147 238.437C69.6147 228.297 85.7822 218.719 104.916 211.12C129.684 201.281 157.436 192.745 185.172 186.431C210.667 180.627 234.614 177.277 258.378 176.189C284.888 174.974 311.026 176.731 336.069 181.409C372.875 188.283 408.441 201.983 441.779 222.123C452.087 228.367 462.37 234.844 472.315 241.108C479.472 245.618 486.875 250.28 494.203 254.803C530.063 276.934 569.316 299.596 613.32 315.372C628.005 320.642 643.438 325.556 659.191 329.977C679.143 335.536 697.896 339.96 716.526 343.5C745.131 348.936 780.733 355.701 815.909 348.582C834.377 344.852 849.042 337.753 860.772 326.892C882.56 306.72 890.714 277.956 897.907 252.577C900.796 242.381 903.527 232.748 906.892 224.846C908.137 221.927 909.387 218.898 910.595 215.974C915.324 204.538 920.214 192.711 926.902 181.37C934.179 168.937 942.937 158.084 952.93 149.12C964.207 139.002 976.856 131.507 990.527 126.841C999.401 123.812 1008.81 121.652 1018.5 120.419C1031.9 118.679 1046.77 118.737 1062.68 120.593C1076.63 122.214 1091.87 125.281 1108 129.7C1134.85 137.058 1160.81 148.534 1183.08 162.889C1207.97 178.883 1229.66 198.766 1247.56 221.984C1263.73 242.962 1276.34 265.973 1285.03 290.38L1284.26 290.519C1265.84 238.799 1229.72 193.628 1182.55 163.303C1160.35 148.995 1134.47 137.555 1107.71 130.221C1073.03 120.716 1043.89 117.69 1018.64 120.977C1009.03 122.201 999.684 124.346 990.874 127.352C958.347 138.452 938.534 162.974 927.64 181.589C920.969 192.902 916.085 204.711 911.363 216.131C910.153 219.05 908.903 222.081 907.658 225.008C904.302 232.891 901.578 242.509 898.691 252.694C895.23 264.903 891.306 278.741 885.613 291.715C879.09 306.579 871.172 318.2 861.406 327.242C855.759 332.471 849.27 336.921 842.118 340.467C834.425 344.283 825.681 347.199 816.126 349.132C805.195 351.342 794.226 352.229 783.446 352.229Z" fill="#FDFCFC"/>
<path d="M797.698 355.096C789.718 355.096 781.376 354.544 772.552 353.443C755.178 351.273 738.548 347.341 723.874 343.875C705.379 339.497 686.069 334.061 666.48 327.705C650.805 322.592 635.451 317.002 620.843 311.095C578.921 294.151 542.803 271.626 503.293 246.078C499.782 243.808 496.225 241.49 492.766 239.251C479.191 230.43 465.151 221.31 450.849 212.692C417.052 192.373 380.483 179.5 342.159 174.434C293.823 168.042 241.451 173.558 186.531 190.824C158.35 199.685 130.671 210.855 106.503 223.129C88.2968 232.373 73.3104 243.268 57.4438 254.804C55.8266 255.969 54.2039 257.145 52.576 258.335C48.5222 261.276 44.1606 264.434 39.7191 267.594C30.4099 274.243 19.0646 281.823 5.5191 287.587C-9.6543 294.038 -25.2358 297.289 -42.1192 297.524C-73.0223 297.957 -104.479 290.679 -134.902 283.643L-136.062 283.373C-150.957 279.929 -166.714 276.451 -181.019 274.337C-224.622 267.898 -270.064 263.427 -308.973 261.748L-308.92 261.142C-269.973 262.822 -224.487 267.304 -180.846 273.741C-166.5 275.86 -150.716 279.345 -135.798 282.796L-134.637 283.064C-104.281 290.086 -72.8878 297.346 -42.1351 296.916C-6.62186 296.42 17.9064 282.321 39.1241 267.166C43.5609 264.006 47.9225 260.842 51.9741 257.908C53.602 256.73 55.2216 255.554 56.8328 254.381C72.7267 242.825 87.7405 231.909 106.006 222.636C130.224 210.333 157.951 199.143 186.186 190.263C211.95 182.154 237.306 176.581 261.545 173.675C289.238 170.355 316.413 170.407 342.314 173.837C380.787 178.922 417.49 191.837 451.403 212.227C465.717 220.853 479.761 229.978 493.355 238.801C496.802 241.043 500.368 243.358 503.879 245.627C543.353 271.151 579.432 293.653 621.279 310.566C635.871 316.466 651.195 322.046 666.847 327.152C686.407 333.5 705.689 338.931 724.155 343.298C753.111 350.145 789.135 358.665 824.661 352.138C843.608 348.656 858.378 341.519 869.806 330.316C891.354 309.21 897.59 277.396 902.599 251.827C904.55 241.871 906.395 232.467 908.894 224.811C909.68 222.398 910.476 219.912 911.242 217.514C915.234 205.027 919.361 192.1 925.554 179.607C935.114 160.159 953.269 134.151 985.502 120.654C994.278 116.964 1003.72 114.142 1013.57 112.266C1039.7 107.179 1070.81 108.825 1106.03 117.156C1133.89 123.744 1160.67 134.762 1183.48 149.033C1208.99 164.952 1230.85 185.034 1248.46 208.7C1256.69 219.812 1263.77 231.333 1269.66 243.172C1275.43 254.748 1280.13 266.582 1283.72 278.596L1282.88 278.722C1267.04 225.723 1231.54 179.827 1182.92 149.49C1160.19 135.278 1133.51 124.297 1105.76 117.733C1070.7 109.441 1039.76 107.798 1013.79 112.853C1004.02 114.714 994.646 117.515 985.935 121.177C953.931 134.581 935.873 160.456 926.365 179.803C920.189 192.266 916.067 205.166 912.081 217.643C911.313 220.05 910.519 222.536 909.731 224.951C907.241 232.573 905.399 241.97 903.451 251.913C900.93 264.776 898.073 279.357 893.191 293.115C887.58 308.926 880.159 321.211 870.503 330.668C864.995 336.064 858.554 340.614 851.351 344.192C843.599 348.048 834.689 350.917 824.865 352.722C816.242 354.304 807.242 355.096 797.698 355.096Z" fill="#FDFCFC"/>
<path d="M810.83 358.129C801.277 358.129 791.202 357.247 780.438 355.483C763 352.624 746.224 347.879 731.418 343.691C712.781 338.423 693.481 332.098 674.051 324.896C658.478 319.1 643.225 312.842 628.715 306.299C588.79 288.298 554.544 265.118 518.288 240.567L512.898 236.918C496.04 225.514 478.604 213.728 460.433 202.825C426.046 182.248 388.369 170.163 348.448 166.907C298.302 162.815 244.2 172.156 187.64 194.67C159.352 205.931 130.955 220.13 107.678 234.638C90.1038 245.596 76.0088 257.925 61.0862 270.98C59.3215 272.525 57.5469 274.075 55.7625 275.629C52.1988 278.738 47.9534 282.424 43.512 286.195C35.288 293.195 24.0773 302.087 10.2924 308.785C-4.63705 316.035 -20.2596 319.731 -37.4554 320.08C-51.5914 320.331 -67.1911 318.782 -85.1461 315.335C-100.564 312.377 -115.47 308.511 -131.982 304.13C-147.046 300.086 -162.944 295.905 -177.208 293.145C-219.456 284.97 -264.076 277.809 -309.852 271.862L-309.687 271.223C-263.896 277.175 -219.242 284.339 -176.969 292.519C-162.666 295.287 -146.743 299.473 -131.66 303.524C-103.999 310.865 -69.5737 320.005 -37.4805 319.433C-0.772461 318.685 22.7959 302.817 42.812 285.778C47.2512 282.011 51.492 278.318 55.0556 275.219C56.8401 273.665 58.6147 272.116 60.3794 270.571C75.3271 257.496 89.4449 245.145 107.076 234.151C130.398 219.608 158.853 205.388 187.195 194.104C243.924 171.522 298.213 162.157 348.551 166.261C367.99 167.861 386.983 171.524 404.897 177.126C424.302 183.174 443.185 191.652 461.019 202.326C479.213 213.235 496.657 225.029 513.527 236.446L518.917 240.093C555.139 264.621 589.353 287.789 629.205 305.747C643.692 312.281 658.923 318.529 674.472 324.319C693.875 331.509 713.148 337.824 731.753 343.087C760.998 351.357 797.392 361.65 833.381 355.679C852.875 352.445 867.741 345.264 878.829 333.728C900.183 311.692 903.989 278.031 907.046 250.985C908.138 241.31 909.173 232.173 910.886 224.785C911.238 223.26 911.592 221.728 911.946 220.187C915.138 206.27 918.448 191.881 924.196 177.837C932.404 157.637 948.82 130.247 980.467 114.471C989.147 110.124 998.623 106.641 1008.63 104.118C1022.7 100.52 1038.38 98.8282 1055.23 99.091C1070.62 99.3277 1087.04 101.188 1104.05 104.618C1132.93 110.438 1160.52 121.006 1183.87 135.183C1210.01 151.024 1232.04 171.292 1249.34 195.421C1257.43 206.752 1264.26 218.516 1269.77 230.605C1275.19 242.448 1279.41 254.551 1282.4 266.822L1281.5 266.934C1268.45 213.433 1232.64 165.593 1183.27 135.681C1160.02 121.572 1132.55 111.041 1103.81 105.247C1068.38 98.1017 1035.57 97.9266 1008.94 104.738C999.01 107.242 989.609 110.698 980.993 115.009C949.566 130.677 933.239 157.926 925.076 178.025C919.344 192.033 916.043 206.404 912.851 220.299C912.495 221.841 912.142 223.374 911.791 224.898C910.083 232.261 909.055 241.384 907.96 251.045C904.894 278.169 901.077 311.926 879.583 334.102C874.239 339.665 867.848 344.319 860.591 347.932C852.78 351.824 843.696 354.643 833.591 356.319C826.127 357.542 818.49 358.149 810.83 358.129Z" fill="#FDFCFC"/>
<path d="M823.169 361.285C812.284 361.285 800.752 360.035 788.324 357.52C770.74 353.963 753.859 348.409 738.966 343.51C720.147 337.317 700.856 330.11 681.631 322.087C666.171 315.617 651.02 308.692 636.596 301.505C601.081 283.816 570.727 262.145 538.591 239.201C533.347 235.452 527.907 231.579 522.514 227.762C503.568 214.367 487.389 203.322 470.022 192.961C435.024 172.111 396.241 160.812 354.75 159.379C302.608 157.577 246.762 170.745 188.766 198.517C159.949 212.314 131.579 229.228 108.877 246.147C91.7769 258.892 78.4046 272.765 64.2504 287.453C62.4978 289.273 60.7361 291.097 58.9654 292.926C55.8076 296.187 51.6329 300.485 47.3191 304.795C29.168 322.971 5.47198 341.689 -32.7727 342.641C-33.9652 342.667 -35.1622 342.681 -36.3569 342.681C-66.2249 342.681 -96.6994 334.276 -127.885 324.89L-129.83 324.299C-145.279 319.609 -159.869 315.181 -173.378 311.957C-224.281 299.807 -273.509 289.551 -310.707 281.975L-310.44 281.312C-273.231 288.891 -223.992 299.15 -173.07 311.303C-159.527 314.535 -144.919 318.97 -129.452 323.665L-127.507 324.255C-95.1809 333.986 -63.6097 342.662 -32.8069 341.951C5.00458 341.004 28.5251 322.434 46.5211 304.395C50.8303 300.089 55.0027 295.8 58.1491 292.535C59.9214 290.708 61.6823 288.884 63.4319 287.062C77.6089 272.352 91.0016 258.456 108.159 245.67C130.906 228.719 159.333 211.769 188.205 197.946C215.015 185.115 241.821 175.262 267.9 168.655C297.811 161.08 327.052 157.725 354.807 158.685C396.515 160.125 435.494 171.477 470.656 192.425C488.05 202.804 504.245 213.859 523.21 227.266C528.602 231.08 534.035 234.957 539.288 238.708C571.393 261.629 601.717 283.279 637.164 300.934C651.565 308.11 666.695 315.025 682.133 321.487C701.33 329.498 720.594 336.694 739.386 342.877C768.884 352.583 805.597 364.661 842.134 359.224C862.109 356.251 877.068 349.028 887.873 337.141C908.958 314.102 910.217 278.547 911.248 249.977C911.581 240.656 911.895 231.85 912.901 224.757L912.923 224.595C915.181 208.702 917.513 192.279 922.86 176.071C927.49 161.933 933.941 149.221 942.028 138.285C951.148 125.961 962.393 115.866 975.452 108.284C984.035 103.276 993.542 99.1296 1003.71 95.9595C1031.47 87.2202 1065.5 85.871 1102.1 92.0674C1117.05 94.6169 1131.54 98.3796 1145.29 103.281C1159.21 108.218 1172.29 114.27 1184.28 121.319C1211.06 137.084 1233.25 157.543 1250.25 182.133C1265.53 204.231 1276.2 229.439 1281.1 255.032L1280.14 255.125C1269.65 200.351 1234.49 151.775 1183.66 121.853C1159.87 107.842 1131.59 97.7741 1101.86 92.7485C1065.47 86.5975 1031.66 87.9273 1004.09 96.6065C993.998 99.7498 984.562 103.862 976.043 108.828C951.658 122.983 933.587 146.288 923.781 176.233C918.448 192.399 916.118 208.806 913.865 224.671L913.842 224.833C912.839 231.902 912.524 240.695 912.194 250.003C911.17 278.66 909.898 314.323 888.662 337.526C883.454 343.255 877.109 348.01 869.809 351.655C861.936 355.586 852.683 358.363 842.31 359.907C836.013 360.835 829.599 361.297 823.169 361.285Z" fill="#FDFCFC"/>
<path d="M-32.0632 365.256C-45.4171 365.256 -59.9544 363.406 -76.3636 359.627C-92.6678 355.873 -108.792 350.69 -123.788 345.65C-126.504 344.732 -129.2 343.817 -131.875 342.906C-145.199 338.376 -157.782 334.098 -169.547 330.767C-216.449 317.483 -261.155 305.545 -304.389 294.001L-311.555 292.087L-311.194 291.404L-304.028 293.318C-260.79 304.863 -216.08 316.803 -169.166 330.09C-157.372 333.43 -144.77 337.711 -131.432 342.252C-128.757 343.161 -126.062 344.076 -123.348 344.994C-92.5675 355.342 -59.8541 365.369 -28.1302 364.476C10.8578 363.321 34.2346 341.714 50.238 323.021C54.342 318.238 58.2841 313.475 61.2663 309.859C62.9125 307.864 64.5496 305.874 66.1775 303.888C79.6979 287.42 92.4681 271.865 109.269 257.198C131.431 237.835 159.831 218.159 189.243 201.788C216.525 186.6 244.056 174.599 271.074 166.123C302.064 156.392 332.333 151.351 361.041 151.122C404.238 150.665 444.359 161.233 480.285 182.536C500.194 194.358 518.044 207.146 532.88 218.099C540.953 224.059 549.029 230.168 556.836 236.076C584.476 256.995 613.058 278.616 645.115 296.131C659.433 303.958 674.461 311.537 689.783 318.673C708.741 327.474 727.993 335.553 747.011 342.685C776.73 353.833 813.719 367.708 850.88 362.783C871.334 360.073 886.389 352.808 896.907 340.566C917.714 316.482 916.31 278.979 915.181 248.845C914.846 239.925 914.531 231.515 914.91 224.738C915.767 209.46 917.053 191.705 921.522 174.314C925.279 159.577 930.959 146.246 938.394 134.689C946.807 121.617 957.587 110.658 970.432 102.115C978.929 96.4622 988.466 91.6575 998.782 87.8325C1013.48 82.3658 1029.97 78.9294 1047.8 77.6159C1064.5 76.3882 1082.1 77.0337 1100.13 79.5327C1131.06 83.8744 1160.06 93.4582 1184.67 107.471C1198.62 115.459 1211.46 124.893 1222.81 135.51C1233.56 145.564 1243.1 156.788 1251.14 168.853C1266.19 191.426 1276.1 217.154 1279.79 243.256L1278.77 243.329C1270.85 187.279 1236.32 137.968 1184.02 108.04C1160.07 94.3176 1130.21 84.448 1099.93 80.2495C1062.5 75.0601 1027.69 77.9029 999.256 88.4747C989.016 92.2716 979.548 97.0408 971.114 102.651C946.91 118.748 930.557 142.905 922.509 174.448C918.058 191.8 916.773 209.517 915.92 224.771C915.541 231.524 915.856 239.929 916.191 248.829C916.747 263.695 917.379 280.545 915.261 296.83C912.805 315.733 907.083 330.164 897.766 340.94C892.693 346.842 886.398 351.697 879.052 355.373C871.115 359.346 861.697 362.076 851.054 363.482C845.753 364.177 840.374 364.523 834.984 364.516C803.048 364.516 772.102 352.908 746.52 343.311C727.478 336.176 708.196 328.077 689.213 319.263C673.868 312.128 658.82 304.533 644.479 296.696C612.358 279.144 583.749 257.496 556.079 236.56C548.274 230.654 540.201 224.547 532.139 218.591C517.319 207.652 499.496 194.882 479.626 183.076C443.905 161.888 404.016 151.38 361.066 151.831C293.607 152.369 230.743 179.596 189.886 202.343C160.515 218.702 132.179 238.338 110.058 257.654C93.3117 272.277 80.562 287.807 67.0621 304.251C65.4327 306.238 63.7949 308.229 62.1487 310.224C59.1642 313.842 55.213 318.61 51.1112 323.395C44.3943 331.243 33.8494 342.664 19.8752 351.228C13.0922 355.385 5.87375 358.654 -1.57956 360.941C-9.9744 363.506 -18.9614 364.951 -28.0914 365.202C-29.4047 365.237 -30.7286 365.255 -32.0632 365.256Z" fill="#FDFCFC"/>
<path d="M-27.7756 387.834C-41.1432 387.834 -55.6532 385.843 -71.9757 381.776C-88.875 377.559 -105.583 371.645 -119.698 366.41C-124.03 364.798 -128.362 363.167 -132.548 361.583C-144.249 357.162 -155.303 352.988 -165.725 349.582C-203.149 337.338 -240.333 325.383 -276.293 313.822C-288.186 309.998 -300.486 306.038 -312.406 302.205L-311.95 301.502C-300.03 305.343 -287.732 309.296 -275.837 313.12C-239.877 324.683 -202.69 336.635 -165.257 348.882C-154.808 352.3 -143.741 356.479 -132.026 360.905C-127.843 362.486 -123.515 364.119 -119.183 365.731C-89.9125 376.586 -55.961 388.078 -23.4505 386.996C16.4518 385.637 38.8733 362.042 53.9464 341.637C57.811 336.411 61.5479 331.163 64.3706 327.175C65.8192 325.129 67.2632 323.084 68.7026 321.042C81.6279 302.694 93.8441 285.362 110.356 268.714C131.833 247.067 160.21 224.664 190.263 205.63C232.112 179.239 296.794 147.045 367.275 143.552C412.103 141.272 453.357 151.057 489.894 172.638C506.31 182.338 522.543 193.529 542.534 208.922C552.639 216.706 562.662 224.764 572.359 232.56C597.581 252.842 623.659 273.815 653.046 291.321C667.285 299.803 682.212 308.052 697.415 315.84C715.824 325.26 735.069 334.222 754.613 342.476C784.634 355.078 821.996 370.763 859.605 366.324C880.225 363.941 895.809 356.424 905.921 343.986C926.441 318.812 922.038 277.628 918.821 247.555C917.909 239.123 917.068 231.147 916.899 224.717C916.525 210.427 916.555 191.583 920.153 172.554C926.356 139.575 941.585 113.799 965.388 95.9375C973.777 89.6203 983.346 84.1532 993.828 79.6899C1008.8 73.2923 1025.7 68.9867 1044.05 66.9045C1061.34 64.939 1079.54 64.9698 1098.14 66.9969C1113.92 68.7627 1129.32 71.9257 1144 76.4124C1158.67 80.8638 1172.46 86.6478 1185.04 93.6201C1199.31 101.566 1212.35 111.029 1223.79 121.756C1234.63 131.921 1244.13 143.3 1252.02 155.575C1266.84 178.622 1275.98 204.874 1278.45 231.483L1277.37 231.533C1272.05 174.203 1238.16 124.156 1184.37 94.2266C1159.99 80.6483 1129.31 71.2474 1097.97 67.7575C1059.35 63.5411 1023.53 67.9034 994.392 80.3499C983.994 84.7778 974.501 90.2012 966.179 96.4678C942.526 114.209 927.403 139.841 921.229 172.656C917.645 191.63 917.613 210.441 917.987 224.703C918.153 231.11 919.006 239.071 919.906 247.499C921.568 263.042 923.452 280.66 922.373 297.863C921.119 317.893 916.044 333.106 906.869 344.372C901.929 350.448 895.679 355.41 888.297 359.121C880.292 363.144 870.699 365.823 859.797 367.085C842.879 369.081 824.671 367.286 804.13 361.599C786.276 356.654 769.171 349.475 754.077 343.139C734.506 334.869 715.233 325.899 696.797 316.466C681.573 308.667 666.623 300.411 652.367 291.912C622.92 274.37 596.812 253.374 571.563 233.07C561.871 225.277 551.851 217.219 541.755 209.444C521.798 194.077 505.594 182.909 489.219 173.23C452.887 151.79 411.893 142.06 367.353 144.33C297.172 147.807 232.705 179.904 190.981 206.215C160.99 225.212 132.673 247.568 111.241 269.168C94.7767 285.764 82.5787 303.071 69.667 321.386C68.2291 323.428 66.7851 325.473 65.335 327.519C62.5101 331.512 58.7709 336.763 54.9018 341.994C39.6942 362.578 17.0537 386.383 -23.414 387.761C-24.8534 387.81 -26.3073 387.834 -27.7756 387.834Z" fill="#FDFCFC"/>
<path d="M-23.4044 410.413C-59.93 410.413 -98.2522 394.457 -132.229 380.311C-142.669 375.963 -152.521 371.859 -161.903 368.387L-313.254 312.312L-312.727 311.594L-161.376 367.667C-151.98 371.149 -142.106 375.26 -131.654 379.611C-96.3643 394.303 -56.3686 410.956 -18.7942 409.515C22.0018 407.948 43.4931 382.369 57.6588 360.259C62.2917 353.03 66.7673 345.664 71.0948 338.554C82.928 319.094 95.167 298.971 111.451 280.243C124.383 265.373 140.45 249.777 157.908 235.144C177.06 219.09 197.569 204.362 218.859 191.369C242.332 177.044 266.199 165.195 289.795 156.152C315.894 146.148 341.608 139.611 366.22 136.74C415.53 130.975 460.384 139.724 499.516 162.747C532.038 181.883 559.681 205.536 586.414 228.413C609.683 248.327 633.744 268.919 660.992 286.519C692.646 306.951 726.493 325.594 762.224 342.279C792.32 356.326 829.753 373.807 868.34 369.877C900.933 366.561 919.775 351.049 925.944 322.459C931.188 298.134 926.202 269.294 922.189 246.113C920.821 238.214 919.531 230.753 918.897 224.707C915.399 191.352 917.629 163.818 925.714 140.532C930.757 126.005 938.199 113.054 947.83 102.04C958.592 89.7376 972.406 79.482 988.888 71.552C1003.15 64.6971 1019.22 59.7137 1036.66 56.7557C1053.26 53.934 1070.74 52.9885 1088.61 53.9453C1123.76 55.8265 1158.14 64.9987 1185.42 79.7707C1200.01 87.6667 1213.23 97.1665 1224.77 108.003C1235.7 118.274 1245.16 129.814 1252.9 142.3C1267.5 165.814 1275.86 192.591 1277.13 219.711L1275.99 219.738C1273.3 161.989 1239.18 109.905 1184.73 80.4177C1126.9 49.1014 1044.81 45.6569 989.531 72.2266C934.775 98.5466 912.043 148.402 920.039 224.642C920.671 230.673 921.961 238.125 923.327 246.015C927.346 269.244 932.349 298.153 927.078 322.582C924.205 335.88 918.432 346.583 909.918 354.367C905.238 358.678 899.409 362.29 892.763 364.996C885.743 367.844 877.583 369.757 868.507 370.68C864.757 371.06 860.974 371.25 857.186 371.248C843.203 371.248 828.31 368.732 811.99 363.637C793.602 357.896 775.861 349.614 761.602 342.957C725.818 326.249 691.921 307.579 660.222 287.119C632.916 269.48 608.828 248.867 585.536 228.932C558.835 206.082 531.226 182.454 498.786 163.372C459.912 140.506 415.373 131.814 366.403 137.54C267.346 149.122 165.307 219.854 112.411 280.67C96.168 299.347 83.9471 319.443 72.1276 338.877C67.7956 345.996 63.3223 353.359 58.6756 360.596C49.2706 375.274 39.9796 385.784 29.4438 393.667C22.866 398.589 15.7296 402.467 8.23978 405.196C-0.145996 408.241 -9.34296 409.988 -18.7463 410.324C-20.2906 410.384 -21.8433 410.414 -23.4044 410.413Z" fill="#FDFCFC"/>
</g>
</g>
</svg>
