<svg width="1140" height="214" viewBox="0 0 1140 214" fill="none" xmlns="http://www.w3.org/2000/svg">
<g opacity="0.5">
<mask id="mask0_40432_2722" style="mask-type:luminance" maskUnits="userSpaceOnUse" x="0" y="-273" width="1140" height="487">
<path d="M1140 -272.652H0V213.853H1140V-272.652Z" fill="white"/>
</mask>
<g mask="url(#mask0_40432_2722)">
<path d="M318.147 178.977C312.404 178.985 306.67 178.655 301.003 177.989C289.442 176.611 278.757 173.781 269.252 169.577C259.035 165.061 250.075 158.907 242.619 151.286C227.628 135.97 220.13 117.627 212.879 99.8789C211.454 96.3955 209.981 92.7938 208.486 89.299C198.278 65.4797 185.344 44.6151 168.939 25.5133C136.214 -12.5963 90.1924 -45.1111 35.844 -68.5299C-27.0042 -95.612 -94.572 -109.103 -154.433 -106.515C-189.612 -104.995 -236.092 -90.5313 -256.865 -65.8281C-269.193 -51.1681 -270.187 -34.901 -259.737 -18.7831L-259.945 -18.7149C-265.417 -27.1672 -267.811 -35.6405 -267.038 -43.8997C-266.329 -51.4762 -262.973 -58.8825 -257.061 -65.9125C-247.658 -77.1021 -232.152 -87.0041 -212.218 -94.5709C-193.8 -101.564 -173.282 -105.863 -154.447 -106.677C-123.124 -108.029 -89.8137 -105.028 -55.4335 -97.7575C-24.2705 -91.1621 6.47986 -81.3785 35.9626 -68.6726C90.3405 -45.2279 136.39 -12.6969 169.133 25.4371C185.549 44.5519 198.492 65.4278 208.702 89.2601C210.2 92.7565 211.666 96.3582 213.098 99.8432C220.344 117.568 227.838 135.898 242.806 151.194C257.282 165.987 276.874 174.948 301.04 177.828C334.506 181.819 375.14 173.474 409.746 155.509C459.612 129.619 494.217 91.9392 527.683 55.4918C533.55 49.104 539.615 42.4988 545.62 36.1207C561.211 19.5585 582.328 -1.90292 607.408 -21.0226C633.058 -40.5655 659.123 -54.9239 687.096 -64.92C704.052 -70.9996 722.252 -75.1345 741.023 -77.1718C758.262 -79.0287 776.509 -79.1454 795.257 -77.5173C827.417 -74.7231 862.061 -66.8304 901.179 -53.3882C978.198 -26.9207 1055.13 5.20493 1129.85 42.0983C1200.87 77.1656 1270.53 116.843 1336.86 160.032L1336.71 160.151C1199.18 70.6335 1052.61 -1.16992 901.079 -53.2422C815.472 -82.6612 747.509 -86.3246 687.199 -64.7741C625.842 -42.8489 582.978 -3.28136 545.8 36.2099C539.797 42.588 533.732 49.1931 527.866 55.5793C494.388 92.0349 459.771 129.733 409.871 155.637C393.747 164.01 375.607 170.541 357.417 174.523C347.807 176.632 338.252 178.002 329.018 178.61C325.349 178.854 321.725 178.977 318.147 178.977Z" fill="#FDFCFC"/>
<path d="M323.904 169.895C308.874 169.895 294.948 167.86 282.511 163.843C268.637 159.364 256.662 152.423 246.925 143.214C246.063 142.403 245.208 141.555 244.382 140.706C229.562 125.463 221.724 107.352 214.15 89.8423C212.617 86.3037 211.035 82.6436 209.428 79.0921C199.87 57.9453 188.356 39.3073 174.231 22.1158C172.492 19.9995 170.69 17.8784 168.873 15.8123C135.667 -21.973 89.2717 -54.0726 34.7021 -77.0405C-28.5998 -103.661 -96.3682 -116.593 -156.113 -113.455C-191.036 -111.604 -237.302 -96.9013 -258.164 -72.3895C-270.656 -57.7117 -272.072 -41.4154 -262.268 -25.2471L-262.475 -25.1823C-267.621 -33.654 -269.733 -42.1435 -268.757 -50.4124C-267.858 -58.0068 -264.365 -65.4309 -258.369 -72.4674C-248.871 -83.6294 -233.412 -93.5493 -213.663 -101.158C-195.411 -108.188 -174.985 -112.611 -156.143 -113.611C-124.857 -115.254 -91.5095 -112.539 -57.0222 -105.543C-25.7862 -99.2057 5.1123 -89.6605 34.807 -77.1735C89.4085 -54.1926 135.829 -22.0654 169.056 15.7329C170.88 17.8005 172.676 19.9217 174.416 22.0396C188.552 39.2424 200.071 57.8902 209.633 79.0499C211.229 82.6014 212.825 86.2616 214.355 89.8017C221.924 107.298 229.752 125.391 244.558 140.62C245.383 141.467 246.236 142.31 247.096 143.123C267.223 162.156 294.88 169.9 323.963 169.9H323.893L323.904 169.895ZM330.108 169.782C357.147 168.794 385.056 161.404 408.982 150.411C460.611 126.598 497.72 89.8228 533.607 54.2576C535.085 52.7916 536.562 51.3278 538.04 49.8661C541.284 46.6535 545.13 42.8539 549.059 39.0219C566.672 21.832 587.987 1.8415 612.536 -16.1576C638.656 -35.3081 664.748 -49.5189 692.309 -59.6026C709.054 -65.7465 726.974 -70.113 745.499 -72.5631C762.512 -74.7961 780.488 -75.4286 798.926 -74.4394C830.782 -72.7317 865.032 -66.2579 903.635 -54.6548C941.276 -43.3516 972.215 -32.7118 1001 -21.1702C1041.79 -4.80418 1080.64 14.0512 1113.26 30.3378C1189.11 68.3128 1263.53 111.432 1334.45 158.498L1334.3 158.616C1263.38 111.555 1188.97 68.4409 1113.14 30.4707C1080.52 14.1858 1041.67 -4.66795 1000.9 -21.0291C972.117 -32.5674 941.185 -43.2041 903.544 -54.5056C819.446 -79.8039 752.357 -81.3769 692.416 -59.468C630.193 -36.6963 585.89 3.3594 549.253 39.1176C545.326 42.9496 541.48 46.7492 538.236 49.9601L533.803 54.3517C497.905 89.9282 460.784 126.718 409.117 150.547C396.484 156.369 382.87 161.036 368.597 164.437C355.482 167.539 342.566 169.331 330.108 169.782Z" fill="#FDFCFC"/>
<path d="M330.258 161.018C328.451 161.018 326.654 160.99 324.868 160.934C309.852 160.462 295.956 158.015 283.566 153.648C270.016 148.875 258.276 141.81 248.682 132.636C247.829 131.825 246.979 130.973 246.158 130.122C231.489 114.946 223.331 97.0915 215.442 79.8108C213.798 76.2107 212.097 72.4873 210.376 68.8742C200.344 47.7923 188.529 29.3051 174.252 12.3487C172.487 10.2519 170.656 8.14857 168.814 6.09876C135.125 -31.346 88.3572 -63.045 33.5642 -85.5621C-30.1914 -111.722 -98.1491 -124.097 -157.789 -120.407C-191.369 -118.299 -237.5 -104.435 -259.434 -78.9878C-272.106 -64.2856 -273.951 -47.9423 -264.769 -31.7222L-264.981 -31.6606C-269.79 -40.1582 -271.627 -48.6672 -270.453 -56.9588C-269.363 -64.5808 -265.725 -72.0194 -259.639 -79.0803C-250.043 -90.2148 -234.63 -100.141 -215.072 -107.784C-196.992 -114.848 -176.661 -119.392 -157.821 -120.576C-126.585 -122.507 -93.1878 -120.081 -58.5934 -113.364C-27.2799 -107.283 3.76233 -97.9794 33.6668 -85.7097C88.4894 -63.178 135.286 -31.4643 168.994 6.00469C170.838 8.05612 172.669 10.1595 174.436 12.2596C188.72 29.2289 200.542 47.729 210.581 68.8158C212.303 72.4289 214.001 76.154 215.65 79.7541C223.532 97.017 231.685 114.867 246.327 130.026C247.148 130.874 247.996 131.718 248.835 132.533C287.848 169.797 356.987 165.796 408.207 145.303C461.995 123.59 501.965 87.5041 540.62 52.6055L541.017 52.2471C544.761 48.8642 548.632 45.3679 552.485 41.9153C593.147 5.49063 637.837 -31.9411 697.505 -54.2944C714.048 -60.5032 731.69 -65.1009 749.956 -67.9636C766.748 -70.5745 784.453 -71.7211 802.579 -71.3692C834.177 -70.7578 868.031 -65.6932 906.075 -55.9112C946.054 -45.6573 976.144 -36.2305 1003.63 -25.3473C1042.79 -9.80997 1080.73 9.82376 1114.21 27.1466C1188.73 65.9227 1262.02 109.603 1332.03 156.976L1331.87 157.092C1261.88 109.726 1188.59 66.0492 1114.07 27.2764C1080.61 9.95674 1042.68 -9.67376 1003.53 -25.2063C976.068 -36.0813 945.972 -45.5049 906.011 -55.7556C823.545 -76.9786 757.33 -76.4677 697.619 -54.1469C637.99 -31.8065 593.318 5.61063 552.675 42.0191C548.821 45.4717 544.95 48.968 541.206 52.3508L540.807 52.7092C521.546 70.1002 501.625 88.0831 480.116 104.144C455.948 122.195 432.464 135.705 408.33 145.447C383.081 155.553 355.578 161.018 330.258 161.018Z" fill="#FDFCFC"/>
<path d="M1329.47 155.568C1260.37 107.891 1188.22 63.6591 1115.04 24.0835C1111.94 22.4196 1108.83 20.7487 1105.72 19.0708C1074.02 2.00743 1041.24 -15.6333 1006.18 -29.3819C972.177 -42.6797 937.712 -50.8109 908.483 -57.0106C827.8 -74.2296 762.458 -71.6301 702.842 -48.8324C641.645 -25.3601 594.226 13.6025 556.124 44.9253C553.844 46.8054 551.559 48.6871 549.268 50.5704L544.205 54.7447C522.508 72.5913 502.777 88.5503 480.971 103.11C456.062 119.743 432.054 131.926 407.571 140.353C384.623 148.253 360.113 152.433 337.313 152.433C333.159 152.433 329.069 152.294 325.044 152.015C310.361 150.992 296.772 148.123 284.643 143.469C271.419 138.398 259.902 131.193 250.443 122.062C249.597 121.252 248.753 120.397 247.935 119.546C233.443 104.449 224.97 86.8378 216.774 69.8069C215.009 66.1386 213.183 62.3471 211.338 58.661C200.825 37.6537 188.707 19.3124 174.288 2.58961C172.494 0.509003 170.64 -1.57648 168.766 -3.60683C134.596 -40.7256 87.4546 -72.0095 32.4404 -94.0774C-31.7803 -119.778 -99.9272 -131.595 -159.463 -127.359C-200.165 -124.405 -241.784 -107.239 -260.674 -85.6139C-273.545 -70.8808 -275.827 -54.4775 -267.286 -38.1942L-267.5 -38.139C-271.976 -46.6658 -273.535 -55.2008 -272.136 -63.5054C-270.847 -71.1517 -267.06 -78.6195 -260.875 -85.6982C-251.176 -96.8035 -235.815 -106.727 -216.453 -114.402C-198.546 -121.497 -178.318 -126.158 -159.492 -127.523C-128.284 -129.745 -94.8633 -127.606 -60.1595 -121.168C-28.7684 -115.343 2.41742 -106.279 32.5339 -94.2283C87.5868 -72.1441 134.751 -40.8408 168.951 -3.7009C170.823 -1.66894 172.683 0.418167 174.478 2.49879C188.905 19.2314 201.03 37.584 211.548 58.6091C213.395 62.292 215.221 66.0867 216.986 69.7566C225.176 86.7843 233.646 104.378 248.117 119.456C248.933 120.305 249.775 121.149 250.625 121.967C291.355 161.268 360.576 156.359 407.478 140.214C463.436 120.953 506.256 85.7253 544.05 54.6441C545.738 53.2538 547.427 51.8629 549.116 50.4715C551.396 48.5871 553.68 46.7049 555.969 44.8248C577.718 26.9506 599.196 9.58069 622.808 -6.42048C649.96 -24.8282 676.112 -38.7455 702.754 -48.9638C719.097 -55.2432 736.46 -60.0755 754.455 -63.353C771.035 -66.3434 788.468 -68.0056 806.27 -68.2894C837.666 -68.7937 871.125 -65.1547 908.553 -57.1662C937.792 -50.9649 972.272 -42.8289 1006.3 -29.5246C1041.37 -15.7727 1074.15 1.87445 1105.86 18.9411C1108.97 20.6179 1112.08 22.2888 1115.18 23.9537C1188.37 63.5342 1260.53 107.775 1329.64 155.451L1329.47 155.568Z" fill="#FDFCFC"/>
<path d="M1327.05 154.042C1257.56 105.155 1186.55 60.3559 1115.98 20.8873C1111.76 18.5261 1107.44 16.0919 1103.27 13.7389C1073.35 -3.11368 1042.42 -20.5403 1008.82 -33.5592C975.267 -46.5165 940.514 -53.3195 910.942 -58.2656C832.223 -71.5634 767.758 -66.8735 708.049 -43.5082C651.102 -21.1501 606.489 12.4707 563.344 44.9839L558.609 48.5516C554.867 51.3717 550.998 54.2875 547.184 57.1465C503.996 89.4732 460.772 119.771 406.793 135.268C393.952 138.979 380.531 141.581 366.818 143.018C352.397 144.502 338.388 144.523 325.18 143.078C310.834 141.51 297.551 138.213 285.693 133.288C272.793 127.927 261.525 120.592 252.177 111.489C251.336 110.665 250.499 109.817 249.689 108.967C235.38 93.962 226.6 76.6084 218.107 59.8304C216.212 56.086 214.251 52.2085 212.272 48.4527C201.274 27.5086 188.852 9.31493 174.297 -7.17113C172.473 -9.23067 170.592 -11.2967 168.692 -13.3141C134.036 -50.1036 86.528 -80.9757 31.2882 -102.594C-33.3703 -127.825 -101.709 -139.082 -161.144 -134.3C-201.472 -130.982 -242.9 -113.695 -261.89 -92.2594C-274.975 -77.489 -277.709 -61.0289 -269.797 -44.658L-270.012 -44.6061C-274.152 -53.1719 -275.431 -61.7376 -273.815 -70.0666C-272.323 -77.7453 -268.377 -85.2407 -262.084 -92.3437C-252.28 -103.41 -236.972 -113.325 -217.818 -121.018C-200.086 -128.139 -179.97 -132.913 -161.169 -134.459C-129.99 -136.979 -96.5332 -135.132 -61.7244 -128.969C-30.2604 -123.401 1.0759 -114.577 31.4022 -102.744C86.6717 -81.1135 134.212 -50.2236 168.886 -13.4114C170.788 -11.394 172.673 -9.32635 174.493 -7.2652C189.057 9.22572 201.488 27.4292 212.491 48.3846C214.47 52.1453 216.431 56.0195 218.326 59.7639C226.814 76.537 235.588 93.8794 249.883 108.869C250.69 109.717 251.527 110.563 252.366 111.385C292.113 150.144 358.158 149.051 406.708 135.109C460.635 119.625 503.85 89.3386 547.02 57.0266C550.834 54.1691 554.703 51.2533 558.445 48.4316L563.18 44.8639C584.359 28.9049 606.259 12.4026 630.041 -2.94989C656.977 -20.3376 682.458 -33.6533 707.94 -43.6542C739.32 -56.0402 774.128 -63.3965 809.926 -65.208C841.185 -66.8459 874.245 -64.6258 910.997 -58.4196C940.582 -53.4703 975.356 -46.6624 1008.93 -33.697C1042.55 -20.6717 1073.49 -3.24017 1103.41 13.6172C1107.58 15.9703 1111.91 18.4028 1116.13 20.7656C1186.69 60.2358 1257.72 105.04 1327.21 153.932L1327.05 154.042Z" fill="#FDFCFC"/>
<path d="M1324.63 152.514C1255.73 103.084 1185.85 57.722 1116.92 17.6907C1111.74 14.6808 1106.43 11.5542 1101.3 8.52817C1072.99 -8.14114 1043.73 -25.3797 1011.45 -37.7401C978.054 -50.4736 943.141 -55.903 913.394 -59.5226C836.854 -68.9965 773.256 -62.2211 713.246 -38.2023C660.874 -17.1561 617.874 12.6732 576.289 41.5213C571.913 44.5571 567.397 47.6951 562.978 50.7358C557.8 54.3035 553.844 57.0198 550.153 59.5302C530.385 72.9691 506.844 88.4416 482.143 101.31C455.966 114.946 431.071 124.385 406.005 130.164C393.097 133.165 379.738 135.076 366.203 135.86C351.991 136.654 338.232 136.07 325.309 134.123C311.307 132.015 298.329 128.301 286.738 123.095C274.166 117.444 263.124 109.979 253.906 100.907C253.076 100.085 252.244 99.2355 251.437 98.3825C237.314 83.476 228.238 66.3915 219.462 49.8698C217.426 46.0394 215.321 42.076 213.199 38.2293C201.705 17.3436 188.978 -0.702484 174.295 -16.9388C172.448 -18.9805 170.535 -21.0303 168.611 -23.0282C133.476 -59.4886 85.5917 -89.9503 30.1284 -111.118C-34.9587 -135.889 -103.489 -146.591 -162.817 -141.259C-196.574 -138.158 -240.665 -123.874 -263.068 -98.9555C-276.388 -84.1398 -279.582 -67.6051 -272.307 -51.1401L-272.535 -51.0915C-276.338 -59.701 -277.323 -68.3073 -275.499 -76.6671C-273.798 -84.3847 -269.685 -91.9109 -263.276 -99.0463C-253.367 -110.074 -238.118 -119.966 -219.174 -127.676C-201.618 -134.811 -181.624 -139.699 -162.858 -141.423C-131.72 -144.222 -98.2287 -142.66 -63.3128 -136.78C-31.7553 -131.464 -0.277649 -122.88 30.2584 -111.266C85.7536 -90.0849 133.668 -59.6069 168.821 -23.1255C170.747 -21.1244 172.663 -19.0713 174.521 -17.0312C189.213 -0.785172 201.945 17.269 213.445 38.1645C215.57 42.0143 217.674 45.9761 219.71 49.8082C228.482 66.3218 237.551 83.3965 251.66 98.2868C252.467 99.1382 253.297 99.9864 254.125 100.809C287.185 133.393 343.957 144.31 405.957 130.01C462.111 117.058 507.916 88.0329 550.019 59.4134C553.71 56.903 557.666 54.19 562.844 50.619C567.253 47.5784 571.779 44.4404 576.154 41.4046C596.624 27.2035 617.794 12.5191 640.37 -1.23116C665.906 -16.7815 689.712 -28.9214 713.157 -38.3434C729.138 -44.7635 745.965 -50.0534 763.397 -54.137C779.736 -57.9288 796.546 -60.6074 813.598 -62.1368C844.779 -64.9423 877.438 -64.1396 913.462 -59.6832C943.227 -56.0538 978.164 -50.6277 1011.58 -37.8829C1043.89 -25.5159 1073.16 -8.27251 1101.47 8.40329C1106.61 11.4277 1111.92 14.556 1117.1 17.5642C1186.02 57.6004 1255.91 102.965 1324.8 152.401L1324.63 152.514Z" fill="#FDFCFC"/>
<path d="M1322.21 150.986C1253.91 101.009 1185.17 55.091 1117.89 14.4921C1112.16 11.0395 1106.28 7.41505 1100.59 3.9106C1073.51 -12.783 1045.5 -30.0443 1014.1 -41.9199C980.684 -54.5009 945.7 -58.5146 915.871 -60.7817C842.801 -66.4852 778.232 -57.3615 718.468 -32.8887C670.882 -13.3133 630.091 12.872 590.642 38.1946C582.676 43.3094 574.436 48.5994 566.426 53.6412C561.529 56.7224 557.186 59.4371 553.15 61.9231C534.383 73.4809 509.42 88.2982 482.746 100.406C455.942 112.568 430.591 120.639 405.244 125.068C377.599 129.899 350.009 129.933 325.456 125.174C311.807 122.526 299.14 118.397 287.806 112.899C275.569 106.965 264.76 99.3711 255.681 90.3253C254.858 89.5015 254.032 88.6501 253.23 87.7971C239.306 73.0041 229.951 56.2002 220.902 39.9574C218.713 36.0265 216.451 31.9625 214.171 28.0137C202.171 7.18315 189.143 -10.7154 174.339 -26.702C172.465 -28.7258 170.525 -30.7562 168.573 -32.7379C132.96 -68.869 84.7012 -98.9172 29.0145 -119.636C-36.5469 -143.937 -105.277 -154.08 -164.491 -148.202C-204.619 -144.131 -244.704 -127.039 -264.209 -105.672C-277.785 -90.8023 -281.453 -74.1817 -274.821 -57.6064L-275.049 -57.561C-278.514 -66.2241 -279.221 -74.8725 -277.148 -83.2712C-275.233 -91.0326 -270.949 -98.5994 -264.41 -105.759C-254.389 -116.736 -239.2 -126.612 -220.474 -134.322C-203.108 -141.48 -183.238 -146.467 -164.523 -148.364C-133.422 -151.445 -99.8944 -150.177 -64.8713 -144.577C-33.2523 -139.527 -1.62869 -131.184 29.1171 -119.788C84.8357 -99.0583 133.122 -68.9906 168.758 -32.8384C170.712 -30.8567 172.652 -28.8247 174.529 -26.7993C189.349 -10.8029 202.374 7.10368 214.379 27.944C216.659 31.8944 218.923 35.9583 221.111 39.8893C230.156 56.1305 239.506 72.9263 253.417 87.7047C254.219 88.5577 255.042 89.4058 255.863 90.2296C288.362 122.605 344.183 135.569 405.187 124.909C460.801 115.191 509.096 88.8334 553 61.7999C557.033 59.3122 561.376 56.6105 566.274 53.5179C574.281 48.4761 582.521 43.1878 590.487 38.073C629.945 12.7439 670.743 -13.4479 718.352 -33.0298C734.16 -39.5256 750.722 -45.0465 767.855 -49.5321C783.908 -53.7043 800.433 -56.8922 817.249 -59.0611C848.424 -63.0748 880.69 -63.6894 915.891 -60.9422C945.736 -58.6719 980.755 -54.6582 1014.2 -42.0626C1045.63 -30.1788 1073.65 -12.9111 1100.74 3.78897C1106.43 7.29181 1112.31 10.9163 1118.03 14.3689C1185.32 54.9645 1254.07 100.892 1322.37 150.873L1322.21 150.986Z" fill="#FDFCFC"/>
<path d="M1319.79 149.458C1252.1 98.9294 1184.49 52.4454 1118.83 11.2903C1112.8 7.51013 1106.59 3.50616 1100.59 -0.368027C1074.49 -17.2027 1047.51 -34.6115 1016.74 -46.0996C983.184 -58.5736 948.163 -61.1585 918.331 -62.0391C848.023 -64.2657 784.352 -52.9982 723.672 -27.5767C681.12 -9.66354 643.188 13.0076 606.503 34.9312C593.89 42.4688 581.974 49.5896 569.856 56.5434C564.927 59.3732 560.438 61.9144 556.128 64.3145C528.312 79.7756 505.191 90.9556 483.326 99.4954C455.895 110.211 430.099 116.907 404.463 119.969C394.688 121.146 384.793 121.743 374.88 121.753C357.634 121.753 340.947 119.898 325.584 116.223C297.782 109.574 274.849 97.3012 257.426 79.7497C256.605 78.9178 255.786 78.0664 254.991 77.2166C241.281 62.5534 231.662 46.0462 222.359 30.0824C220.002 26.0379 217.571 21.8572 215.111 17.7932C202.601 -2.98866 189.27 -20.738 174.356 -36.47C172.452 -38.476 170.48 -40.4885 168.506 -42.4524C132.413 -78.2592 83.7808 -107.889 27.8729 -128.16C-38.1376 -151.999 -107.048 -161.586 -166.171 -155.161C-206.475 -150.69 -245.394 -133.917 -265.319 -112.441C-279.168 -97.5102 -283.331 -80.789 -277.337 -64.0873L-277.565 -64.0484C-280.691 -72.7698 -281.106 -81.4718 -278.796 -89.911C-276.66 -97.7243 -272.184 -105.335 -265.515 -112.53C-255.397 -123.438 -240.273 -133.288 -221.778 -140.999C-204.598 -148.167 -184.865 -153.252 -166.212 -155.322C-135.147 -158.698 -101.583 -157.712 -66.4552 -152.391C-34.7632 -147.589 -2.98914 -139.488 27.9687 -128.311C83.9176 -108.03 132.577 -78.3743 168.693 -42.5513C170.674 -40.5874 172.644 -38.5733 174.548 -36.5657C189.468 -20.8256 202.806 -3.06651 215.323 17.7235C217.779 21.789 220.216 25.9714 222.571 30.0159C231.871 45.9716 241.495 62.4707 255.175 77.1226C255.966 77.9707 256.785 78.8221 257.603 79.6524C290.146 112.43 343.658 127.067 404.419 119.81C462.259 112.902 513.492 87.8144 555.98 64.1864C560.289 61.7879 564.779 59.2467 569.706 56.4169C581.824 49.4648 593.737 42.3456 606.35 34.8063C643.04 12.8795 680.981 -9.79002 723.542 -27.7161C739.185 -34.2921 755.484 -40.0439 772.309 -44.9255C788.088 -49.4806 804.33 -53.1778 820.896 -55.9854C852.132 -61.2574 884.004 -63.2829 918.325 -62.2013C948.179 -61.3191 983.229 -58.7325 1016.82 -46.2439C1047.62 -34.7413 1074.61 -17.326 1100.72 -0.484787C1106.73 3.38779 1112.93 7.39174 1118.96 11.1719C1184.63 52.327 1252.25 98.8142 1319.94 149.339L1319.79 149.458Z" fill="#FDFCFC"/>
<path d="M1317.38 147.932C1249.36 96.1284 1184.72 50.3888 1119.79 8.09851C1113.6 4.06213 1107.49 -0.0569458 1101.04 -4.41927C1075.79 -21.4729 1049.68 -39.1071 1019.39 -50.2789C985.416 -62.7464 948.857 -63.7843 920.804 -63.2962C853.699 -62.2778 790.926 -48.8632 728.894 -22.2675C691.677 -6.23395 657.315 13.0203 624.087 31.6422C606.622 41.4274 590.126 50.671 573.304 59.4411C568.311 62.0471 563.671 64.4213 559.123 66.7014C530.942 80.8019 507.045 90.9326 483.924 98.5804C455.857 107.863 429.616 113.19 403.7 114.867C390.613 115.729 377.433 115.566 364.397 114.381C351.136 113.175 338.143 110.778 325.73 107.245C298.826 99.5356 276.432 86.7178 259.186 69.1501C258.375 68.3165 257.561 67.4636 256.772 66.6138C243.292 52.0997 233.432 35.9088 223.894 20.2514C221.35 16.074 218.719 11.7538 216.072 7.55362C203.037 -13.1829 189.396 -30.7846 174.389 -46.2571C172.457 -48.2453 170.462 -50.24 168.461 -52.186C131.883 -87.6588 82.8785 -116.891 26.7449 -136.703C-25.0795 -154.902 -78.5067 -164.405 -127.502 -164.405C-141.016 -164.429 -154.509 -163.662 -167.846 -162.11C-207.664 -157.318 -246.34 -140.484 -266.381 -119.239C-280.517 -104.237 -285.184 -87.4042 -279.851 -70.5597L-280.079 -70.524C-282.863 -79.3136 -282.979 -88.0755 -280.426 -96.5651C-278.057 -104.437 -273.399 -112.094 -266.577 -119.329C-256.354 -130.17 -241.299 -139.974 -223.043 -147.681C-205.808 -154.957 -186.736 -160.005 -167.892 -162.276C-136.861 -165.941 -103.263 -165.242 -68.0278 -160.202C-36.2515 -155.65 -4.33145 -147.781 26.8361 -136.83C82.9925 -117 132.033 -87.7577 168.632 -52.2639C170.638 -50.3178 172.635 -48.3215 174.56 -46.3301C189.582 -30.8495 203.224 -13.2396 216.263 7.50984C218.912 11.71 221.544 16.0318 224.088 20.2093C233.621 35.8602 243.468 52.0445 256.945 66.5473C257.734 67.3954 258.541 68.2484 259.357 69.0804C291.603 101.931 344.201 118.564 403.663 114.716C463.835 110.824 518.272 86.9465 558.977 66.5797C563.523 64.3094 568.161 61.9271 573.154 59.3227C589.98 50.551 606.481 41.3074 623.936 31.5205C657.172 12.8971 691.538 -6.36205 728.768 -22.4005C760.704 -36.0924 792.043 -46.0771 824.578 -52.9077C855.956 -59.4998 887.427 -62.9524 920.794 -63.4584C939.83 -63.7827 955.357 -63.2135 969.666 -61.6437C988.134 -59.6166 1004.44 -55.9451 1019.49 -50.4216C1049.81 -39.232 1075.93 -21.5978 1101.19 -4.53766C1107.65 -0.175323 1113.75 3.94376 1119.94 7.9785C1184.88 50.272 1249.52 96.015 1317.55 147.821L1317.38 147.932Z" fill="#FDFCFC"/>
<path d="M1314.96 146.403C1247.56 94.0321 1184.03 47.746 1120.74 4.89941C1114.47 0.660324 1108.3 -3.70686 1101.76 -8.33029C1077.27 -25.6531 1051.95 -43.5663 1022.02 -54.4592C987.766 -66.8699 951.249 -66.3737 923.262 -64.5558C859.935 -60.5826 798.06 -45.0112 734.099 -16.9479C702.585 -3.05658 672.578 12.8441 643.561 28.2209C620.624 40.3835 598.957 51.8569 576.734 62.3509C571.718 64.725 566.786 66.9954 562.101 69.0971C533.861 81.7462 508.478 91.0985 484.501 97.6712C455.789 105.54 429.097 109.5 402.92 109.775C389.783 109.927 376.66 109.073 363.78 107.228C350.681 105.347 337.949 102.353 325.856 98.3085C299.864 89.5725 278.024 76.2098 260.931 58.5934C260.129 57.7615 259.321 56.9069 258.535 56.0522C245.311 41.7149 235.231 25.8662 225.489 10.5396C222.732 6.20325 219.88 1.71928 217.014 -2.64143C203.443 -23.339 189.506 -40.7916 174.403 -55.9949C172.444 -57.9669 170.422 -59.9437 168.391 -61.8702C131.331 -97.0235 81.9557 -125.839 25.5987 -145.207C-41.3056 -168.105 -110.599 -176.577 -169.519 -169.062C-208.824 -163.962 -247.24 -147.091 -267.393 -126.087C-281.857 -111.006 -287.033 -94.0461 -282.361 -77.0395L-282.589 -77.0087C-285.024 -85.8744 -284.837 -94.7045 -282.03 -103.251C-279.427 -111.186 -274.566 -118.9 -267.584 -126.178C-257.26 -136.941 -242.276 -146.696 -224.264 -154.396C-207.226 -161.67 -188.309 -166.801 -169.556 -169.236C-138.561 -173.188 -104.927 -172.777 -69.5867 -168.016C-37.7397 -163.712 -5.67834 -156.092 25.6967 -145.35C82.088 -125.971 131.489 -97.1387 168.573 -61.974C170.607 -60.0459 172.631 -58.0674 174.59 -56.0954C189.699 -40.8792 203.644 -23.4168 217.226 -2.71277C220.094 1.64957 222.946 6.13513 225.703 10.4715C235.443 25.7932 245.514 41.6355 258.731 55.963C259.52 56.8161 260.327 57.6691 261.127 58.501C293.711 92.0829 344.069 110.233 402.923 109.617C450.677 109.114 501.22 96.1954 561.985 68.9641C566.67 66.8559 571.59 64.5855 576.613 62.2195C598.834 51.7272 620.496 40.2473 643.433 28.0944C672.453 12.7159 702.464 -3.18633 733.985 -17.0842C766.234 -31.2318 797.069 -41.943 828.252 -49.8276C859.844 -57.816 890.918 -62.686 923.251 -64.7131C951.265 -66.5342 987.823 -67.0288 1022.13 -54.6002C1052.09 -43.696 1077.43 -25.7731 1101.93 -8.4422C1108.47 -3.81877 1114.64 0.548431 1120.9 4.7859C1184.19 47.6341 1247.73 93.9234 1315.13 146.296L1314.96 146.403Z" fill="#FDFCFC"/>
<path d="M1312.54 144.875C1245.77 91.9332 1183.34 45.1022 1121.69 1.70099C1115.43 -2.70351 1109.25 -7.28316 1102.71 -12.1304C1078.91 -29.763 1054.29 -47.9956 1024.66 -58.6387C990.083 -71.004 953.626 -68.9688 925.73 -65.8147C866.147 -59.2063 806.91 -41.9904 739.311 -11.6357C713.957 -0.199615 689.18 12.3457 665.211 24.4792C636.109 39.2138 608.623 53.1327 580.167 65.2548C575.039 67.4409 569.964 69.5377 565.082 71.4886C536.338 82.962 510.171 91.2245 485.084 96.7528C471.032 99.8486 457.161 102.091 443.854 103.418C429.661 104.834 415.628 105.257 402.144 104.676C374.784 103.497 349.164 98.3372 325.992 89.3401C300.967 79.6246 279.667 65.7186 262.686 48.0098C261.888 47.173 261.09 46.3168 260.305 45.4654C247.362 31.3389 237.109 15.8664 227.191 0.904739C224.188 -3.62463 221.085 -8.30806 217.964 -12.865C203.85 -33.5285 189.609 -50.8335 174.429 -65.7709C172.441 -67.7169 170.391 -69.684 168.332 -71.5927C130.792 -106.407 81.0426 -134.809 24.4622 -153.728C-42.889 -176.162 -112.374 -184.071 -171.194 -176.015C-234.174 -167.258 -295.545 -129.393 -284.875 -83.5089L-285.103 -83.4813C-287.772 -94.9596 -286.211 -106.269 -280.458 -117.096C-275.214 -126.988 -266.582 -136.287 -254.833 -144.749C-243.91 -152.617 -230.807 -159.41 -215.884 -164.94C-201.693 -170.201 -186.244 -174.085 -171.242 -176.174C-140.284 -180.414 -106.615 -180.293 -71.1679 -175.81C-39.2479 -171.774 -7.03375 -164.394 24.5534 -153.875C81.1681 -134.945 130.947 -106.522 168.508 -71.6916C170.56 -69.7813 172.612 -67.8207 174.607 -65.8649C189.794 -50.9211 204.042 -33.608 218.155 -12.9347C221.276 -8.37941 224.382 -3.69113 227.384 0.834991C237.298 15.7934 247.547 31.2594 260.483 45.3762C261.263 46.2276 262.063 47.0822 262.861 47.919C295.495 81.9517 344.962 102.051 402.149 104.516C450.562 106.6 503.818 95.7588 564.961 71.3491C569.843 69.4031 574.916 67.303 580.041 65.117C608.496 52.9982 635.979 39.0808 665.085 24.3478C689.048 12.2144 713.827 -0.332611 739.185 -11.7704C806.814 -42.138 866.078 -59.362 925.689 -65.9736C944.435 -68.0931 959.955 -68.7694 974.536 -68.1028C993.175 -67.2515 1009.6 -64.2027 1024.76 -58.783C1054.43 -48.1253 1079.05 -29.8829 1102.87 -12.2406C1109.41 -7.39342 1115.59 -2.81703 1121.84 1.58746C1183.5 44.9902 1245.94 91.8245 1312.71 144.768L1312.54 144.875Z" fill="#FDFCFC"/>
<path d="M1310.13 143.348C1243.99 89.8322 1182.66 42.4514 1122.64 -1.49467C1116.43 -6.03539 1110.29 -10.8064 1103.79 -15.8498C1080.64 -33.8197 1056.69 -52.4026 1027.31 -62.8187C991.965 -75.2862 953.819 -71.2174 928.194 -67.0724C858.642 -55.9622 796.316 -30.1271 744.519 -6.32079C725.905 2.27414 707.335 11.3718 689.375 20.1727C653.351 37.828 619.322 54.5038 583.604 68.1584C578.36 70.1693 573.116 72.0942 568.068 73.8813C538.761 84.226 511.809 91.4068 485.671 95.8308C456.042 100.847 427.679 102.108 401.37 99.5785C374.343 96.9838 349.026 90.5181 326.13 80.3745C302.11 69.7362 281.353 55.2887 264.438 37.4339C263.647 36.5955 262.842 35.7376 262.076 34.8846C249.454 21.016 239.071 5.96834 229.016 -8.58467C225.724 -13.3443 222.329 -18.284 218.909 -23.0744C204.032 -43.9942 189.903 -60.6651 174.449 -75.5278C172.435 -77.4641 170.345 -79.4037 168.272 -81.2962C130.251 -115.789 80.1274 -143.78 23.3235 -162.249C-44.4746 -184.208 -114.161 -191.564 -172.871 -182.965C-236.077 -173.583 -296.193 -136.239 -287.388 -89.9803L-287.616 -89.9592C-289.82 -101.306 -287.886 -112.866 -281.998 -123.528C-276.583 -133.42 -267.91 -142.739 -256.234 -151.21C-245.336 -159.111 -232.294 -165.956 -217.474 -171.554C-203.368 -176.886 -187.96 -180.884 -172.918 -183.117C-141.995 -187.646 -108.29 -187.82 -72.7352 -183.603C-40.7309 -179.822 -8.37994 -172.681 23.417 -162.384C80.2596 -143.916 130.42 -115.909 168.448 -81.4032C170.548 -79.5091 172.616 -77.5631 174.629 -75.6316C190.094 -60.7591 204.228 -44.085 219.112 -23.1539C222.532 -18.3553 225.936 -13.4238 229.228 -8.65602C239.26 5.89212 249.65 20.9365 262.263 34.7954C263.04 35.6484 263.834 36.5063 264.623 37.3431C297.507 72.0471 346.085 94.1021 401.402 99.418C451.015 104.189 505.498 95.787 567.965 73.7353C573.02 71.9515 578.246 70.0249 583.494 68.0156C619.204 54.3659 653.226 37.6901 689.248 20.0397C707.207 11.2372 725.778 2.13629 744.396 -6.45702C779.225 -22.4647 808.198 -34.2916 835.573 -43.6763C867.799 -54.7233 898.077 -62.4279 928.141 -67.2313C946.468 -70.1957 962.439 -71.5369 976.974 -71.3342C995.691 -71.0714 1012.18 -68.334 1027.4 -62.963C1056.83 -52.534 1080.79 -33.9349 1103.95 -15.9585C1110.45 -10.9167 1116.59 -6.15376 1122.8 -1.60818C1182.82 42.3395 1244.15 89.7219 1310.29 143.241L1310.13 143.348Z" fill="#FDFCFC"/>
<path d="M1307.71 141.818C1242.21 87.7235 1181.98 39.7995 1123.58 -4.69307C1117.46 -9.35866 1111.4 -14.287 1104.98 -19.5055C1082.44 -37.8306 1059.13 -56.7946 1029.94 -66.9982C994.221 -79.4382 956.17 -73.7169 930.652 -68.3329C867.64 -55.1469 811.434 -30.04 749.725 -1.00699C738.597 4.24727 727.34 9.67345 716.453 14.9196C674.586 35.0999 631.291 55.9677 587.034 71.0623C581.657 72.8981 576.279 74.6512 571.046 76.2728C541.543 85.4045 513.016 91.6788 486.255 94.906C455.943 98.5677 427.121 98.4234 400.593 94.4795C373.943 90.5161 348.933 82.7531 326.265 71.4062C303.317 59.9214 283.103 44.9321 266.185 26.8552C265.403 26.0135 264.614 25.1557 263.844 24.301C251.602 10.76 241.153 -3.7979 231.048 -17.8774C227.4 -22.95 223.643 -28.1945 219.86 -33.298C204.402 -54.1999 189.978 -70.7232 174.47 -85.3006C172.434 -87.2141 170.327 -89.1375 168.211 -91.0154C129.704 -125.173 79.2115 -152.751 22.1796 -170.77C-46.0562 -192.259 -115.929 -199.059 -174.552 -189.915C-235.75 -180.268 -296.988 -144.233 -289.907 -96.4545L-290.135 -96.4367C-291.85 -107.831 -289.587 -119.351 -283.548 -129.975C-277.969 -139.883 -269.245 -149.206 -257.622 -157.688C-236.176 -173.332 -205.916 -185.136 -174.6 -190.074C-143.713 -194.891 -109.971 -195.345 -74.3123 -191.424C-42.2304 -187.895 -9.73355 -180.996 22.2731 -170.917C79.3438 -152.889 129.859 -125.295 168.382 -91.1159C170.5 -89.238 172.607 -87.3131 174.645 -85.3979C190.149 -70.8141 204.591 -54.2842 220.054 -33.3742C223.839 -28.2691 227.603 -23.0246 231.244 -17.952C241.347 -3.87575 251.794 10.6789 264.028 24.2118C264.799 25.0648 265.586 25.9227 266.37 26.7628C300.214 62.9263 346.644 86.2899 400.639 94.3189C450.635 101.753 507.936 95.6309 570.955 76.122C576.185 74.5003 581.562 72.7489 586.936 70.9148C631.168 55.825 674.465 34.9604 716.326 14.785C727.213 9.53722 738.471 4.11105 749.6 -1.14482C776.611 -13.8524 808.041 -28.4313 839.234 -40.6004C871.863 -53.3323 901.747 -62.4543 930.589 -68.4934C948.746 -72.3255 964.718 -74.3137 979.413 -74.5699C997.942 -74.8942 1014.98 -72.3968 1030.04 -67.149C1043.12 -62.5775 1056.28 -55.7551 1070.28 -46.2893C1082.63 -37.9328 1094.08 -28.621 1105.16 -19.6174C1111.57 -14.4005 1117.63 -9.47218 1123.75 -4.80821C1182.15 39.6844 1242.38 87.6117 1307.88 141.708L1307.71 141.818Z" fill="#FDFCFC"/>
<path d="M1305.29 140.291C1240.44 85.6109 1181.31 37.1404 1124.54 -7.89061C1118.53 -12.6584 1112.57 -17.7359 1106.27 -23.1101C1084.31 -41.8228 1061.61 -61.1727 1032.59 -71.1769C1005.47 -80.4967 972.931 -79.9778 933.122 -69.5925C877.465 -55.1595 827.709 -30.9964 775.032 -5.42079C768.472 -2.23579 761.691 1.05623 754.943 4.30933C752.298 5.58614 749.654 6.86403 747.01 8.14299C696.821 32.418 644.921 57.5201 590.475 73.9672C584.971 75.631 579.44 77.2106 574.034 78.6701C543.883 86.7672 514.551 91.9209 486.853 93.9869C455.845 96.2995 426.557 94.7523 399.824 89.3862C373.59 84.1222 348.888 75.057 326.408 62.4419C304.615 50.2176 284.943 34.6867 267.937 16.2838C267.162 15.4422 266.38 14.5811 265.611 13.7265C253.837 0.608658 243.42 -13.3557 233.347 -26.8725C229.266 -32.344 225.048 -38.0021 220.807 -43.5093C204.751 -64.3966 190.027 -80.7773 174.491 -95.0578C172.425 -96.9552 170.291 -98.8607 168.148 -100.719C129.169 -134.554 78.3026 -161.729 21.0472 -179.29C-47.6469 -200.308 -117.698 -206.55 -176.223 -196.866C-236.299 -186.844 -297.439 -150.513 -292.416 -102.926L-292.644 -102.915C-293.855 -114.393 -291.313 -125.664 -285.088 -136.414C-279.345 -146.334 -270.572 -155.668 -259.01 -164.156C-237.658 -179.835 -207.5 -191.814 -176.273 -197.025C-145.422 -202.13 -111.644 -202.871 -75.8801 -199.23C-43.7321 -195.956 -11.078 -189.297 21.1384 -179.445C78.4257 -161.866 129.322 -134.687 168.326 -100.836C170.469 -98.9742 172.603 -97.0687 174.671 -95.1697C190.223 -80.8827 204.945 -64.4955 221.005 -43.6001C225.246 -38.0864 229.467 -32.4332 233.545 -26.9616C243.616 -13.453 254.031 0.514603 265.803 13.6259C266.569 14.4805 267.351 15.34 268.126 16.1817C302.707 53.6037 348.268 78.8582 399.885 89.2175C450.843 99.4439 509.407 95.8405 573.954 78.5047C579.355 77.0451 584.884 75.4737 590.386 73.8018C644.812 57.3611 696.7 32.2639 746.883 7.99217L754.813 4.15852C761.561 0.915146 768.344 -2.38498 774.904 -5.57159C827.593 -31.1521 877.36 -55.3136 933.045 -69.7612C951.029 -74.4527 966.996 -77.0863 981.855 -77.8096C1000.45 -78.7161 1017.56 -76.5398 1032.7 -71.3391C1045.69 -66.8583 1058.69 -60.0051 1072.43 -50.3869C1084.55 -41.9006 1095.69 -32.4089 1106.45 -23.2301C1112.76 -17.8559 1118.71 -12.7816 1124.72 -8.01549C1181.49 37.0171 1240.62 85.4893 1305.48 140.171L1305.29 140.291Z" fill="#FDFCFC"/>
<path d="M1302.87 138.77C1243.68 87.817 1183.99 37.4004 1125.49 -11.0734C1119.53 -15.9807 1113.63 -21.2511 1107.38 -26.833C1087.05 -44.9861 1064.01 -65.5605 1035.23 -75.3408C1007.79 -84.6445 975.195 -83.1703 935.591 -70.8374C888.489 -56.2195 846.81 -34.7257 802.681 -11.9702C788.862 -4.84293 774.573 2.526 760.157 9.63547C734.997 22.0722 707.781 35.2322 679.251 47.2197C648.699 60.0553 620.785 69.7611 593.913 76.8835C588.27 78.382 582.586 79.7896 577.02 81.0691C546.24 88.1445 516.101 92.1712 487.466 93.0371C455.774 93.994 426.023 91.0538 399.055 84.2963C349.255 71.6601 305.73 45.2137 269.69 5.71425C268.922 4.86935 268.146 4.00822 267.383 3.15198C256.211 -9.38527 245.971 -22.615 236.076 -35.4085C231.418 -41.4298 226.602 -47.657 221.757 -53.7173C205.091 -74.5997 190.079 -90.8361 174.516 -104.815C172.421 -106.695 170.261 -108.582 168.093 -110.423C128.624 -143.937 77.3833 -170.691 19.9044 -187.81C-49.2252 -208.356 -119.472 -214.04 -177.904 -203.817C-238.344 -193.181 -297.953 -157.333 -294.936 -109.399L-295.164 -109.391C-295.887 -120.873 -293.019 -132.131 -286.639 -142.853C-280.73 -152.786 -271.906 -162.13 -260.419 -170.625C-249.587 -178.628 -236.753 -185.625 -222.266 -191.424C-208.363 -197.009 -193.462 -201.23 -177.968 -203.975C-147.149 -209.367 -113.337 -210.396 -77.4675 -207.036C-45.2306 -204.015 -12.4419 -197.596 19.982 -187.96C77.5041 -170.832 128.774 -144.052 168.264 -110.541C170.435 -108.699 172.596 -106.811 174.691 -104.93C190.264 -90.9447 205.28 -74.7019 221.953 -53.813C226.799 -47.7511 231.616 -41.5238 236.274 -35.5009C246.167 -22.709 256.4 -9.48257 267.574 3.05144C268.336 3.90607 269.111 4.76718 269.879 5.61046C305.892 45.0872 349.376 71.5044 399.13 84.1292C450.378 96.973 511.867 95.8556 576.95 80.9005C582.51 79.6209 588.19 78.2133 593.833 76.7181C653.906 60.7883 708.873 34.7716 760.024 9.48792C774.439 2.37845 788.727 -4.99051 802.546 -12.1162C846.683 -34.8766 888.373 -56.3752 935.498 -70.9996C975.17 -83.3536 1007.83 -84.8277 1035.33 -75.503C1048.22 -71.1245 1061.02 -64.2566 1074.46 -54.5135C1086.32 -45.9186 1097.11 -36.2777 1107.56 -26.9449C1113.81 -21.3663 1119.71 -16.0942 1125.66 -11.1902C1184.18 37.2982 1243.86 87.7099 1303.05 138.665L1302.87 138.77Z" fill="#FDFCFC"/>
<path d="M1300.46 137.236C1242.17 86.0003 1183.62 35.021 1126.44 -14.2848C1120.67 -19.2455 1114.94 -24.61 1108.88 -30.2892C1089.05 -48.8591 1066.59 -69.9215 1037.86 -79.5365C1010.09 -88.8239 977.439 -86.3946 938.038 -72.1124C896.754 -57.1702 858.824 -36.0705 822.146 -15.6664C803.751 -5.43521 784.733 5.14465 765.351 14.9348C734.763 30.4024 709.035 42.2018 684.354 52.0714C653.932 64.234 625.469 73.2992 597.333 79.7746C591.558 81.1028 585.721 82.3385 579.989 83.4461C550.121 89.2161 520.771 92.1351 492.704 92.1351C491.146 92.1351 489.593 92.1259 488.044 92.1075C455.595 91.7313 425.389 87.382 398.267 79.1827C384.897 75.094 372.136 70.0656 360.172 64.1724C348.715 58.5468 337.454 51.9238 326.704 44.4835C307.361 31.0981 289.283 14.9526 271.435 -4.8725C270.675 -5.72549 269.915 -6.58066 269.155 -7.43799C258.799 -19.1352 249.002 -31.3627 239.528 -43.1881C234.056 -50.0137 228.404 -57.0729 222.709 -63.9456C205.176 -85.1151 190.319 -100.734 174.539 -114.589C172.419 -116.453 170.23 -118.319 168.034 -120.144C128.093 -153.315 76.4811 -179.659 18.7788 -196.327C-50.7931 -216.4 -121.234 -221.528 -179.567 -210.76C-238.875 -199.784 -298.406 -163.663 -297.443 -115.864H-297.671C-298.127 -138.128 -285.717 -159.299 -261.798 -177.087C-250.988 -185.128 -238.218 -192.169 -223.845 -198.04C-209.976 -203.709 -195.108 -208.041 -179.631 -210.919C-148.851 -216.595 -115 -217.917 -79.0263 -214.837C-46.7119 -212.075 -13.7796 -205.898 18.8541 -196.481C76.5928 -179.804 128.235 -153.445 168.194 -120.254C170.39 -118.431 172.581 -116.561 174.703 -114.696C190.49 -100.834 205.351 -85.2092 222.891 -64.0332C228.591 -57.1605 234.243 -50.1013 239.713 -43.2756C249.184 -31.4535 258.979 -19.2277 269.333 -7.53206C270.093 -6.67581 270.853 -5.82118 271.613 -4.96817C309.538 37.16 350.995 64.6362 398.351 79.0351C463.944 98.8651 533.295 92.2956 579.923 83.292C585.655 82.1844 591.487 80.9503 597.251 79.6205C661.958 64.7303 720.998 37.1616 765.208 14.805C784.588 5.01816 803.603 -5.56009 821.993 -15.7913C858.683 -36.2002 896.62 -57.3064 937.924 -72.2535C955.556 -78.6446 971.513 -82.5674 986.716 -84.254C1005.45 -86.3265 1022.69 -84.7891 1037.95 -79.6841C1050.81 -75.3785 1063.49 -68.4572 1076.71 -58.526C1088.36 -49.777 1098.88 -39.9203 1109.05 -30.3897C1115.11 -24.7138 1120.84 -19.3477 1126.61 -14.3902C1183.79 34.9091 1242.34 85.8965 1300.63 137.132L1300.46 137.236Z" fill="#FDFCFC"/>
<path d="M1298.04 135.708L1127.39 -17.4831C1121.81 -22.486 1116.28 -27.93 1110.42 -33.6999C1091.08 -52.7158 1069.16 -74.2696 1040.51 -83.7241C1012.8 -92.8671 979.154 -89.387 940.51 -73.381C903.36 -57.9912 869.474 -37.5271 836.706 -17.7377C815.347 -4.83717 793.261 8.50119 770.568 20.2406C702.362 55.5252 642.753 76.3655 582.979 85.828C558.181 89.7525 533.719 91.7261 509.996 91.7261C502.806 91.7261 495.689 91.545 488.644 91.1828C455.429 89.4703 424.765 83.7215 397.503 74.0805C372.234 65.1467 349.121 52.5316 326.843 35.5168C309.059 21.9304 292.003 5.73297 273.181 -15.4576C263.25 -26.6472 253.628 -38.2601 244.326 -49.4968C223.272 -74.9248 201.503 -101.229 174.558 -124.36C133.212 -159.851 78.9482 -187.685 17.6276 -204.853C-52.3844 -224.454 -123.016 -229.029 -181.259 -217.719C-237.644 -206.774 -298.841 -172.262 -299.967 -122.346H-300.195C-299.691 -144.657 -286.901 -165.825 -263.202 -183.562C-241.77 -199.598 -212.696 -211.779 -181.318 -217.873C-150.57 -223.843 -116.687 -225.448 -80.6085 -222.649C-48.2142 -220.134 -15.136 -214.197 17.7074 -205.002C48.0874 -196.494 76.8609 -185.331 103.365 -171.769C129.887 -158.225 153.869 -142.329 174.729 -124.464C201.692 -101.313 223.466 -75.014 244.524 -49.5795C253.827 -38.3444 263.448 -26.7251 273.377 -15.5435C300.838 15.3739 339.776 53.4867 397.606 73.9362C463.926 97.3874 534.992 93.2651 582.931 85.6772C642.667 76.2212 702.257 55.389 770.438 20.1173C793.122 8.38118 815.206 -4.95557 836.558 -17.8528C869.335 -37.6471 903.227 -58.116 940.394 -73.5123C979.106 -89.5475 1012.82 -93.0309 1040.6 -83.8635C1053.43 -79.6293 1065.99 -72.648 1079 -62.5173C1090.45 -53.598 1100.7 -43.529 1110.6 -33.7875C1116.46 -28.0257 1122 -22.5849 1127.56 -17.5836L1298.21 135.607L1298.04 135.708Z" fill="#FDFCFC"/>
<path d="M1296.66 123.931C1253.21 81.2812 1215.92 46.6663 1179.33 15.0093C1161.57 -0.370728 1143.42 -15.5075 1125.41 -29.9827C1119.96 -34.3612 1114.56 -39.0187 1108.85 -43.9503C1094.48 -56.3448 1079.63 -69.161 1062.53 -78.6722C1053.36 -83.7886 1044.52 -87.452 1035.52 -89.8716C1007.9 -97.3718 975.503 -92.4127 939.216 -75.1304C920.436 -66.2014 903.336 -56.0383 889.086 -47.2747C873.999 -37.9971 859.118 -27.7659 844.724 -17.8719C824.037 -3.64977 802.647 11.0557 779.651 23.687C765.658 31.3932 751.474 38.2822 737.491 44.1591C709.272 55.9958 679.352 65.6485 648.243 72.9521C628.938 77.4426 609.54 80.8368 590.591 83.0407C574.504 84.9138 558.254 85.9974 541.958 86.2841C518.1 86.6765 494.858 85.1797 472.874 81.8309C449.5 78.2632 427.381 72.5873 407.128 64.9329C389.071 58.1121 372.016 49.5269 354.985 38.6616C323.252 18.4587 297.941 -4.9017 279.437 -22.9965C270.344 -31.9271 261.47 -41.0345 252.886 -49.8419C228.169 -75.205 204.822 -99.1638 175.594 -120.504C151.653 -137.853 124.464 -152.774 94.7956 -164.844C71.8976 -174.173 46.9931 -181.803 20.7754 -187.523C14.5305 -188.884 8.16702 -190.15 1.86737 -191.289C-25.2646 -196.175 -55.7915 -199.356 -88.8766 -200.746C-122.242 -202.18 -151.107 -200.939 -177.113 -196.95C-191.779 -194.722 -206.004 -191.218 -219.466 -186.518C-266.769 -169.976 -297.145 -142.207 -300.723 -112.235L-301.008 -112.252C-300.026 -120.318 -297.219 -128.218 -292.695 -135.647C-288.363 -142.803 -282.408 -149.705 -275.002 -156.161C-261.008 -168.356 -241.849 -178.917 -219.598 -186.699C-206.115 -191.407 -191.868 -194.916 -177.179 -197.148C-151.15 -201.135 -122.26 -202.384 -88.8675 -200.949C-55.7551 -199.557 -25.2054 -196.374 1.93576 -191.485C8.24225 -190.35 14.608 -189.078 20.8597 -187.716C47.098 -181.993 72.0207 -174.356 94.9392 -165.012C124.633 -152.933 151.845 -138.001 175.806 -120.637C205.04 -99.2838 228.392 -75.3202 253.119 -49.9489C261.701 -41.1415 270.574 -32.0357 279.665 -23.1067C298.16 -5.0217 323.459 18.3273 355.172 38.5173C372.185 49.3567 389.221 57.9386 407.26 64.7529C446.894 79.726 492.209 86.9019 541.949 86.0797C558.232 85.794 574.467 84.7103 590.541 82.8364C609.478 80.6357 628.86 77.2448 648.152 72.7576C679.245 65.4588 709.149 55.8127 737.354 43.984C751.326 38.1119 765.501 31.2278 779.484 23.5264C802.467 10.9032 823.851 -3.79897 844.532 -18.0163C858.928 -27.9086 873.812 -38.1463 888.906 -47.4272C903.163 -56.1956 920.272 -66.3636 939.066 -75.2991C955.22 -82.994 970.865 -88.3099 985.562 -91.1024C1003.62 -94.5306 1020.46 -94.1836 1035.63 -90.0613C1044.66 -87.6287 1053.52 -83.9605 1062.71 -78.8311C1079.84 -69.3069 1094.7 -56.4827 1109.07 -44.08C1114.79 -39.1485 1120.18 -34.4926 1125.63 -30.1173C1143.64 -15.6405 1161.79 -0.500443 1179.56 14.8796C1216.16 46.5398 1253.44 81.1547 1296.9 123.811L1296.66 123.931Z" fill="#FDFCFC"/>
<path d="M1295.29 112.151C1255 68.7754 1217.18 32.4788 1179.69 1.18837C1161.4 -14.0944 1142.48 -28.7868 1123.44 -42.4804C1118.38 -46.1129 1113.41 -49.8882 1108.12 -53.8841C1092.3 -65.8505 1075.95 -78.2239 1057.64 -86.7848C1048.39 -91.1261 1039.53 -94.1489 1030.54 -96.0284C996.14 -103.224 961.19 -89.5952 937.927 -76.8925C921.445 -67.9214 906.395 -57.7777 891.146 -47.3065C877.801 -38.1407 865.245 -28.2809 851.953 -17.8437C832.224 -2.35013 811.825 13.6705 788.735 27.1224C775.035 35.1481 760.737 42.0873 746.238 47.747C719.232 58.2879 689.658 66.4791 655.827 72.7809C636.911 76.3029 617.646 78.7967 598.198 80.2407C582.143 81.4233 565.995 81.8437 549.862 81.4991C526.378 80.977 503.432 78.6288 481.644 74.5259C458.979 70.2727 437.172 63.9748 416.753 55.7857C399.074 48.673 382.008 39.8477 364.573 28.8073C332.911 8.78436 305.786 -13.4149 285.685 -30.5172C278.248 -36.8418 270.929 -43.2182 263.85 -49.379C235.657 -73.92 209.029 -97.0987 176.658 -116.627C152.465 -131.224 125.303 -143.567 95.9323 -153.306C73.7091 -160.679 50.1613 -166.202 23.9253 -170.193C17.8719 -171.112 11.7136 -171.946 5.62372 -172.656C-21.1252 -175.781 -49.6708 -176.964 -84.2083 -178.186C-109.106 -179.112 -141.698 -179.722 -173.007 -176.182C-187.638 -174.578 -201.945 -171.729 -215.621 -167.697C-262.958 -153.666 -295.072 -129.151 -301.522 -102.121L-301.859 -102.162C-300.149 -109.329 -296.686 -116.361 -291.565 -123.059C-286.686 -129.442 -280.275 -135.562 -272.511 -141.254C-257.757 -152.067 -238.131 -161.29 -215.753 -167.923C-202.054 -171.961 -187.723 -174.815 -173.067 -176.423C-141.726 -179.965 -109.108 -179.355 -84.1946 -178.428C-49.6435 -177.207 -21.0865 -176.023 5.68073 -172.896C11.7752 -172.181 17.938 -171.351 23.9959 -170.431C50.2524 -166.432 73.8299 -160.907 96.0759 -153.527C125.488 -143.776 152.663 -131.423 176.879 -116.814C209.273 -97.2723 235.913 -74.0838 264.114 -49.5347C271.182 -43.3723 278.512 -37.0039 285.948 -30.6745C306.034 -13.5787 333.143 8.61084 364.794 28.6241C382.209 39.6515 399.259 48.467 416.915 55.5716C456.587 71.5371 501.319 80.1791 549.867 81.2591C565.984 81.6037 582.116 81.1833 598.155 80.0007C617.586 78.5567 636.835 76.063 655.734 72.5409C689.537 66.2439 719.086 58.0625 746.067 47.5297C760.548 41.8765 774.827 34.9454 788.512 26.9343C811.579 13.4937 831.971 -2.5204 851.693 -18.0059C864.99 -28.4479 877.548 -38.3094 890.909 -47.4816C906.165 -57.9577 921.222 -68.1062 937.72 -77.0855C952.8 -85.3188 967.674 -91.2428 981.931 -94.6938C999.218 -98.8777 1015.61 -99.3967 1030.64 -96.2603C1039.66 -94.3759 1048.55 -91.3418 1057.83 -86.9892C1076.17 -78.4104 1092.54 -66.0272 1108.37 -54.0511C1113.64 -50.0553 1118.63 -46.2816 1123.68 -42.6523C1142.73 -28.9539 1161.66 -14.2565 1179.95 1.03108C1217.46 32.3296 1255.28 68.6327 1295.58 112.018L1295.29 112.151Z" fill="#FDFCFC"/>
<path d="M1293.9 100.372C1256.2 55.6863 1218.95 18.7232 1180.04 -12.6289C1161.22 -27.8192 1141.5 -42.0657 1121.44 -54.9759C1117.15 -57.7328 1112.74 -60.6632 1108.47 -63.4963C1090.84 -75.1951 1072.62 -87.2913 1052.72 -94.8954C1043.37 -98.489 1034.49 -100.871 1025.54 -102.182C991.213 -107.209 958.235 -92.1612 936.623 -78.6558C921.969 -69.5387 908.579 -59.1956 895.62 -49.2092L893.194 -47.3378C881.431 -38.2726 870.394 -28.3268 858.716 -17.7972C840.113 -1.0322 820.868 16.3053 797.803 30.5599C784.376 38.9148 769.964 45.9059 754.969 51.3385C728.826 60.8108 699.736 67.5781 663.399 72.6053C644.394 75.2318 625.142 76.8504 605.8 77.4477C589.783 77.9364 573.738 77.6943 557.765 76.7227C510.455 73.8037 466.25 63.6828 426.375 46.6356C409.138 39.2683 392.059 30.2096 374.163 18.9421C343.878 -0.0851288 316.935 -19.6427 291.951 -38.0439C288.599 -40.5121 285.28 -42.9614 281.994 -45.3918C247.853 -70.609 215.614 -94.4283 177.725 -112.753C152.992 -124.725 125.86 -134.484 97.077 -141.767C75.9505 -147.118 53.057 -150.741 27.081 -152.863C21.2282 -153.336 15.2751 -153.727 9.38815 -154.024C-5.43185 -154.752 -21.1433 -154.87 -37.7805 -154.997C-51.1436 -155.097 -64.9604 -155.201 -79.5387 -155.623C-107.699 -156.51 -139.614 -157.515 -168.899 -155.413C-184.008 -154.329 -198.432 -152.13 -211.763 -148.876C-259.08 -137.33 -292.931 -116.068 -302.306 -91.999L-302.691 -92.0752C-300.218 -98.4209 -296.079 -104.611 -290.414 -110.473C-284.987 -116.079 -278.12 -121.421 -270.003 -126.35C-254.479 -135.773 -234.383 -143.656 -211.89 -149.144C-198.53 -152.405 -184.074 -154.609 -168.937 -155.696C-139.624 -157.804 -107.692 -156.793 -79.5205 -155.906C-64.949 -155.485 -51.1322 -155.381 -37.7737 -155.28C-21.1297 -155.154 -5.39764 -155.036 9.42236 -154.307C15.3162 -154.012 21.2784 -153.62 27.1334 -153.145C53.1254 -151.022 76.0576 -147.389 97.2137 -142.036C126.024 -134.739 153.188 -124.974 177.951 -112.993C215.874 -94.6456 248.129 -70.8182 282.277 -45.5913C285.568 -43.1609 288.886 -40.7116 292.234 -38.2434C317.22 -19.8454 344.147 -0.295944 374.423 18.7281C392.3 29.9842 409.359 39.0316 426.576 46.3908C466.398 63.4185 510.546 73.5248 557.794 76.4373C573.751 77.4094 589.779 77.6521 605.779 77.1639C625.102 76.5676 644.337 74.9523 663.324 72.3313C699.615 67.2959 728.682 60.5448 754.798 51.0872C769.764 45.6659 784.148 38.6878 797.552 30.3474C820.598 16.1107 839.823 -1.21544 858.412 -17.9788C870.1 -28.5198 881.139 -38.4607 892.911 -47.5357L895.337 -49.4071C908.299 -59.4064 921.703 -69.7463 936.377 -78.8731C958.064 -92.4223 991.158 -107.512 1025.65 -102.464C1034.63 -101.149 1043.56 -98.7566 1052.93 -95.15C1072.88 -87.528 1091.12 -75.4189 1108.77 -63.7087C1113.04 -60.8773 1117.45 -57.9485 1121.73 -55.19C1141.8 -42.2749 1161.52 -28.0187 1180.35 -12.8219C1219.28 18.5432 1256.54 55.5209 1294.26 100.221L1293.9 100.372Z" fill="#FDFCFC"/>
<path d="M1292.53 88.5891C1257.91 43.2273 1220.19 4.52414 1180.4 -26.4468C1161.05 -41.5415 1140.56 -55.3452 1119.48 -67.4754C1116.44 -69.2253 1113.33 -71.0432 1110.31 -72.8027C1090.38 -84.4156 1069.79 -96.4241 1047.85 -103.008C1038.43 -105.864 1029.51 -107.607 1020.59 -108.34C986.351 -111.149 955.333 -94.7181 935.34 -80.4246C922.926 -71.5994 911.722 -61.785 900.885 -52.2932C899.008 -50.6499 897.133 -49.0115 895.26 -47.3779C884.952 -38.4067 875.315 -28.3863 865.112 -17.7756C847.766 0.260742 829.826 18.9101 806.892 33.9902C793.422 42.8462 779.304 49.6946 763.713 54.9245C731.109 65.866 698.535 69.917 670.967 72.4387C651.873 74.1597 632.63 74.8989 613.386 74.6507C597.41 74.4441 581.467 73.5386 565.647 71.9392C519.758 67.2671 476.132 55.6753 435.984 37.4849C419.28 29.9181 402.19 20.6194 383.74 9.07784C365.101 -2.55937 347.73 -13.7571 330.933 -24.5867C319.515 -31.9476 308.732 -38.8997 298.201 -45.5697C258.392 -70.7837 221.928 -92.9521 178.793 -108.887C153.25 -118.293 126.196 -125.459 98.2246 -130.228C78.017 -133.689 56.4162 -135.374 30.2487 -135.533C24.6034 -135.564 18.8487 -135.516 13.1601 -135.393C4.51202 -135.194 -4.4324 -134.775 -13.9035 -134.334C-32.0751 -133.486 -52.6635 -132.524 -74.8639 -133.063C-83.3136 -133.269 -91.9342 -133.559 -100.272 -133.841C-121.718 -134.566 -143.893 -135.315 -164.796 -134.652C-180.138 -134.166 -194.646 -132.615 -207.918 -130.063C-255.155 -120.973 -290.741 -102.961 -303.106 -81.8792L-303.527 -82.0041C-300.29 -87.5179 -295.493 -92.8694 -289.268 -97.8966C-283.292 -102.726 -275.971 -107.288 -267.506 -111.454C-251.197 -119.481 -230.633 -126.023 -208.036 -130.371C-194.712 -132.928 -180.184 -134.477 -164.808 -134.972C-143.893 -135.641 -121.716 -134.892 -100.252 -134.161C-91.916 -133.879 -83.2953 -133.588 -74.8479 -133.382C-52.6818 -132.844 -32.0956 -133.806 -13.9332 -134.652C-4.45975 -135.095 4.48926 -135.513 13.1464 -135.711C18.8464 -135.836 24.6011 -135.883 30.2464 -135.852C56.4504 -135.69 78.0831 -134.005 98.3249 -130.538C126.334 -125.765 153.425 -118.591 179.003 -109.174C198.488 -101.977 218.232 -92.8597 239.366 -81.2987C258.29 -70.9507 276.692 -59.6281 298.504 -45.813C309.036 -39.1413 319.822 -32.1908 331.238 -24.8284C348.035 -13.9988 365.404 -2.80101 384.041 8.83458C402.475 20.3712 419.545 29.6538 436.23 37.2141C476.324 55.377 519.888 66.9558 565.714 71.6214C581.514 73.2189 597.438 74.1233 613.395 74.3296C632.616 74.5778 651.837 73.8386 670.908 72.1176C698.441 69.6024 730.977 65.5579 763.52 54.6358C779.062 49.4205 793.148 42.59 806.582 33.7566C829.48 18.7025 847.394 0.0661163 864.735 -17.954C874.945 -28.5696 884.587 -38.5965 894.907 -47.579C896.782 -49.2104 898.657 -50.8483 900.529 -52.4927C911.373 -61.9958 922.588 -71.8135 935.028 -80.6451C948.035 -89.939 961.38 -97.089 974.7 -101.889C990.466 -107.583 1005.94 -109.857 1020.66 -108.648C1029.63 -107.912 1038.59 -106.161 1048.04 -103.297C1070.04 -96.6934 1090.67 -84.6702 1110.61 -73.0411C1113.63 -71.2832 1116.75 -69.4653 1119.79 -67.7155C1140.88 -55.5788 1161.39 -41.7685 1180.75 -26.6576C1201.88 -10.2121 1222.57 8.53294 1242.25 29.0327C1259.64 47.1582 1276.7 67.1423 1292.95 88.4415L1292.53 88.5891Z" fill="#FDFCFC"/>
<path d="M1291.17 76.8039C1259.13 30.1448 1221.98 -9.24432 1180.77 -40.2655C1160.9 -55.2645 1139.62 -68.6207 1117.53 -79.966L1114.37 -81.5877C1091.4 -93.4001 1067.65 -105.615 1042.98 -111.115C1033.42 -113.246 1024.48 -114.359 1015.63 -114.493C981.537 -115.04 952.455 -97.2289 934.067 -82.191C923.246 -73.3917 913.643 -63.7508 904.354 -54.4245C902.056 -52.1201 899.682 -49.7362 897.336 -47.4139C888.405 -38.5693 880.106 -28.5116 871.319 -17.8652C855.334 1.50259 838.804 21.5288 815.988 37.4343C802.787 46.6325 788.551 53.5311 772.465 58.5259C740.773 68.3631 708.598 70.9464 678.547 72.2729C660.018 73.0838 640.654 72.9524 620.993 71.8594C605.064 70.9548 589.223 69.3844 573.553 67.1565C529.226 60.832 486.179 47.7709 445.616 28.335C429.371 20.5509 412.759 11.3073 393.338 -0.785622C356.422 -23.6919 329.007 -39.8244 304.47 -53.0931C255.648 -79.4876 218.386 -95.0153 179.879 -105.015C153.875 -111.746 126.87 -116.334 99.3954 -118.689C80.2252 -120.341 59.8807 -120.192 33.4327 -118.202C28.0132 -117.79 22.4682 -117.304 16.9506 -116.759C11.7408 -116.235 6.44437 -115.635 0.83786 -115.001C-19.8623 -112.658 -43.3258 -110.001 -70.1796 -110.498C-84.3339 -110.759 -98.789 -111.471 -112.772 -112.165C-128.659 -112.951 -145.091 -113.764 -160.666 -113.874C-176.286 -113.984 -190.883 -113.094 -204.048 -111.231C-251.13 -104.564 -288.453 -89.7983 -303.884 -71.7327L-304.324 -71.9225C-300.314 -76.6156 -294.851 -81.1223 -288.086 -85.3176C-281.556 -89.3718 -273.781 -93.1487 -264.978 -96.5575C-247.878 -103.177 -226.836 -108.375 -204.146 -111.587C-190.949 -113.457 -176.33 -114.344 -160.661 -114.239C-145.071 -114.128 -128.632 -113.316 -112.736 -112.529C-98.7594 -111.839 -84.3088 -111.123 -70.1659 -110.862C-43.36 -110.368 -19.9215 -113.021 0.758057 -115.361C6.36002 -115.998 11.6564 -116.6 16.8754 -117.125C22.3998 -117.672 27.9493 -118.157 33.3734 -118.569C59.8625 -120.558 80.2434 -120.706 99.4524 -119.055C126.969 -116.698 154.014 -112.103 180.057 -105.36C218.617 -95.3477 255.917 -79.8039 304.773 -53.3882C329.329 -40.1131 356.744 -23.9757 393.659 -1.06454C413.064 11.0105 429.658 20.2558 445.885 28.0285C486.394 47.4385 529.376 60.48 573.638 66.7868C589.288 69.0099 605.108 70.5764 621.016 71.4783C640.654 72.5681 660.004 72.7076 678.499 71.8919C708.504 70.567 740.627 67.9885 772.244 58.1724C788.272 53.1971 802.458 46.3227 815.612 37.1553C838.382 21.2904 854.892 1.28529 870.861 -18.0614C879.653 -28.7159 887.961 -38.7801 896.903 -47.6377C899.249 -49.9584 901.623 -52.3406 903.919 -54.6483C913.214 -63.9795 922.829 -73.6301 933.666 -82.4407C945.665 -92.2552 958.244 -100.02 971.058 -105.517C986.065 -111.957 1001.06 -115.101 1015.63 -114.87C1024.52 -114.727 1033.51 -113.616 1043.11 -111.475C1067.87 -105.962 1091.65 -93.7244 1114.66 -81.8958L1117.81 -80.2741C1139.93 -68.9223 1161.23 -55.5434 1181.13 -40.5283C1222.38 -9.48109 1259.56 29.9372 1291.61 76.6304L1291.17 76.8039Z" fill="#FDFCFC"/>
<path d="M689.881 72.1012C688.603 72.1012 687.343 72.1012 686.101 72.1012C667.665 72.0461 648.31 71.0244 628.572 69.0622C612.695 67.4627 596.956 65.2315 581.43 62.3792C559.727 58.3802 537.942 52.6329 516.678 45.298C496.158 38.2161 475.47 29.4315 455.219 19.1889C435.383 9.15552 416.842 -2.02438 402.911 -10.6501C370.307 -30.759 339.299 -47.5743 310.735 -60.6175C264.465 -81.7416 223.231 -94.6194 180.967 -101.143C154.94 -105.119 128.396 -107.134 101.776 -107.155H100.549C77.9222 -107.1 56.4423 -104.109 36.5995 -100.886C31.4352 -100.041 26.0932 -99.1163 20.7215 -98.1401C17.778 -97.5984 14.8323 -97.0405 11.711 -96.4503C-10.2888 -92.2809 -35.2251 -87.5569 -65.5195 -87.9445C-83.9692 -88.1797 -102.813 -89.5403 -121.037 -90.8636C-132.802 -91.7133 -144.977 -92.5923 -156.576 -93.1209C-172.536 -93.8507 -187.212 -93.6156 -200.215 -92.4252C-247.046 -88.1375 -286.112 -76.6154 -304.714 -61.6132L-305.141 -61.8824C-295.601 -69.5789 -281.249 -76.2457 -262.482 -81.6929C-244.561 -86.8969 -223.056 -90.7484 -200.288 -92.8339C-187.249 -94.0275 -172.529 -94.2626 -156.539 -93.5328C-144.923 -93.0026 -132.75 -92.1236 -120.971 -91.2738C-102.761 -89.9587 -83.9282 -88.5997 -65.5012 -88.3645C-35.2867 -87.9769 -10.3914 -92.6944 11.5627 -96.8557C14.6841 -97.4476 17.6321 -98.0055 20.5779 -98.5471C25.9541 -99.5201 31.2939 -100.449 36.4695 -101.294C56.3442 -104.523 77.8629 -107.52 100.538 -107.575C127.608 -107.618 154.607 -105.6 181.074 -101.555C202.889 -98.1887 224.034 -93.2296 245.721 -86.399C266.606 -79.8199 287.969 -71.5022 311.029 -60.9743C339.621 -47.9213 370.656 -31.098 403.271 -10.9728C417.179 -2.36007 435.711 8.81171 455.534 18.8353C496.626 39.6156 539.027 54.1265 581.558 61.9624C597.062 64.8105 612.779 67.0389 628.633 68.6373C648.349 70.5963 667.678 71.6164 686.089 71.6715C714.893 71.7558 748.333 71.0666 780.965 61.716C797.477 56.9839 811.763 50.0642 824.636 40.5627C847.247 23.8756 862.238 2.45309 876.734 -18.2558C884.189 -28.9103 891.235 -38.9745 898.893 -47.6862C901.346 -50.4771 903.823 -53.354 906.216 -56.1352C914.306 -65.5296 922.669 -75.2451 932.304 -84.2244C943.317 -94.5545 955.134 -102.934 967.416 -109.129C981.666 -116.309 996.194 -120.33 1010.6 -121.072C1019.49 -121.531 1028.51 -121.063 1038.19 -119.639C1064.04 -115.834 1089.67 -104.781 1115.84 -92.8177C1138.65 -82.387 1161.36 -69.0973 1181.5 -54.3837C1203.88 -38.0874 1224.9 -18.9694 1243.98 2.43849C1260.99 21.5111 1276.57 42.5055 1290.27 64.8394L1289.75 65.0015C1260.3 17.0385 1223.74 -23.0333 1181.08 -54.1C1160.97 -68.7924 1138.3 -82.0627 1115.52 -92.4771C1089.43 -104.4 1063.85 -115.434 1038.08 -119.225C1028.47 -120.639 1019.49 -121.106 1010.66 -120.651C984.195 -119.284 956.532 -106.253 932.765 -83.96C923.148 -74.997 914.792 -65.2912 906.709 -55.9049C904.315 -53.1221 901.839 -50.2452 899.383 -47.4543C891.739 -38.7588 884.7 -28.7027 877.251 -18.0564C870.138 -7.89327 862.783 2.61688 854.342 12.72C844.766 24.1723 835.19 33.3786 825.053 40.8611C812.123 50.4047 797.773 57.3553 781.186 62.1052C766.555 66.2989 750.83 69.0703 733.11 70.5817C718.112 71.8661 703.041 72.1012 689.881 72.1012Z" fill="#FDFCFC"/>
<path d="M726.444 72.9143C714.816 72.9143 703.644 72.4278 693.662 71.9218C675.29 71.0056 655.944 69.0985 636.158 66.2573C620.339 63.9611 604.704 61.0677 589.318 57.5894C548.075 48.242 507.356 32.6868 464.83 10.0334C446.286 0.155746 428.806 -10.4728 412.495 -20.5126C380.306 -40.2648 348.171 -56.2951 317.013 -68.1367C271.185 -85.552 228.307 -94.8102 182.073 -97.2719C155.284 -98.6647 128.366 -98.1099 101.735 -95.6161C79.7925 -93.5371 59.0992 -88.5213 39.7945 -83.5605C34.9632 -82.3135 29.8241 -80.9512 24.5185 -79.5063C23.1931 -79.1441 21.8547 -78.7771 20.5034 -78.4052C-1.73798 -72.2882 -26.9046 -65.3668 -59.2031 -65.3668C-59.748 -65.3668 -60.2906 -65.3668 -60.8401 -65.3668C-82.6917 -65.529 -105.001 -67.7426 -126.579 -69.8881C-135.134 -70.7395 -143.978 -71.6184 -152.469 -72.3304C-169.049 -73.7185 -183.411 -74.1272 -196.37 -73.5791C-243.514 -71.586 -283.307 -63.5149 -305.541 -51.4366L-305.922 -51.7901C-294.93 -57.7627 -279.036 -62.9457 -259.964 -66.7826C-241.204 -70.5546 -219.225 -73.0601 -196.407 -74.025C-183.411 -74.5748 -169.012 -74.1645 -152.403 -72.7731C-143.905 -72.0612 -135.056 -71.1806 -126.5 -70.3308C-104.942 -68.187 -82.6529 -65.9701 -60.8356 -65.8128C-27.8645 -65.5728 -2.28973 -72.6077 20.2754 -78.8139C21.6267 -79.1868 22.9651 -79.5544 24.2905 -79.9166C29.5983 -81.3567 34.7397 -82.7189 39.5665 -83.9708C58.9077 -88.938 79.6329 -93.9636 101.637 -96.0491C128.31 -98.5467 155.272 -99.102 182.103 -97.7065C204.755 -96.5259 227.156 -93.5778 248.902 -88.9153C271.586 -84.0714 293.962 -77.4014 317.302 -68.5308C348.502 -56.6746 380.666 -40.6378 412.905 -20.8532C429.209 -10.8182 446.679 -0.196167 465.206 9.6734C507.669 32.2959 548.326 47.83 589.502 57.1612C604.867 60.6352 620.48 63.5248 636.277 65.8178C656.035 68.6557 675.353 70.558 693.698 71.4742C724.565 73.0164 757.402 73.8078 789.705 65.281C806.702 60.7938 821.084 53.8303 833.677 43.9915C856.107 26.4644 870.068 2.55908 882.387 -18.5309C888.584 -29.1432 894.439 -39.1669 900.898 -47.7116C903.23 -50.7928 905.574 -53.981 907.843 -57.0638C914.938 -66.7031 922.273 -76.6732 930.96 -85.9833C941.008 -96.8292 952.061 -105.825 963.812 -112.718C977.31 -120.639 991.371 -125.53 1005.6 -127.252C1014.49 -128.329 1023.55 -128.502 1033.28 -127.782C1060.47 -125.767 1088.09 -115.805 1113.89 -105.341C1137.71 -95.6794 1161.24 -82.8421 1181.91 -68.2178C1204.91 -52.0009 1226.1 -32.6883 1244.89 -10.8296C1261.69 8.71825 1276.53 30.2153 1288.98 53.0648L1288.39 53.227C1261.92 4.65105 1224.95 -37.2355 1181.46 -67.9032C1160.83 -82.4983 1137.35 -95.3097 1113.58 -104.955C1087.84 -115.396 1060.29 -125.332 1033.21 -127.335C1023.54 -128.051 1014.54 -127.88 1005.7 -126.809C979.426 -123.626 953.067 -109.039 931.477 -85.7336C922.813 -76.4413 915.481 -66.4842 908.392 -56.853C906.124 -53.7718 903.78 -50.5835 901.445 -47.4975C895.002 -38.9723 889.154 -28.9584 882.961 -18.3574C870.622 2.76828 856.639 26.7108 834.135 44.2948C821.474 54.1871 807.003 61.1895 789.917 65.701C775.085 69.6158 759.082 71.8813 740.997 72.6272C736.109 72.8316 731.239 72.9143 726.444 72.9143Z" fill="#FDFCFC"/>
<path d="M749.392 74.6718H748.895C732.465 74.6426 716.334 73.2122 701.218 71.7527C682.878 69.9786 663.538 67.1893 643.741 63.4611C627.985 60.4707 612.452 56.9147 597.202 52.8066C557.607 42.1262 518.603 25.6272 474.451 0.885101C458.55 -8.02282 442.903 -17.6151 427.771 -26.8895L422.089 -30.3713C389.713 -50.1266 356.479 -65.3624 323.294 -75.652C277.851 -89.7444 232.021 -95.5501 183.184 -93.4013C156.065 -92.1826 129.183 -89.0613 102.928 -84.0831C82.6355 -80.2024 64.5369 -73.9768 42.9954 -66.2446C38.627 -64.6715 33.9666 -62.9704 28.3259 -60.893L28.0113 -60.7762C17.122 -56.7464 4.78949 -52.1781 -9.04782 -48.6963C-24.9371 -44.707 -40.3522 -42.7869 -56.1595 -42.808C-80.8108 -42.8518 -105.964 -46.1162 -130.289 -49.272C-136.249 -50.0456 -142.412 -50.845 -148.363 -51.5683C-165.428 -53.6392 -179.875 -54.6852 -192.526 -54.763C-239.111 -55.0549 -280.612 -50.1461 -306.385 -41.3031L-306.684 -41.7409C-294.059 -46.0773 -277.03 -49.5964 -257.436 -51.9186C-237.805 -54.2473 -215.358 -55.402 -192.519 -55.2576C-179.831 -55.1798 -165.349 -54.1225 -148.246 -52.0548C-142.291 -51.3332 -136.126 -50.5321 -130.164 -49.7585C-105.868 -46.606 -80.7447 -43.3464 -56.1549 -43.3026H-55.8266C-20.653 -43.3026 6.14383 -53.2289 27.6898 -61.2092L28.0067 -61.326C33.6497 -63.4018 38.3123 -65.1029 42.6808 -66.6776C64.2587 -74.4276 82.3824 -80.663 102.745 -84.555C129.046 -89.5427 155.976 -92.6694 183.142 -93.8895C207.041 -94.9403 229.584 -94.1392 252.062 -91.4375C276.287 -88.5184 299.676 -83.5107 323.568 -76.1012C356.817 -65.7921 390.114 -50.5304 422.536 -30.7426L428.22 -27.2625C443.345 -17.9897 458.988 -8.4023 474.878 0.49913C518.973 25.2104 557.92 41.69 597.448 52.3493C612.677 56.451 628.188 60.0022 643.921 62.9892C663.689 66.7093 683.001 69.4954 701.314 71.2679C734.116 74.4415 766.23 76.6438 798.442 68.8353C815.925 64.5979 830.405 57.589 842.712 47.4113C864.942 29.0278 877.086 3.55115 887.802 -18.9254C892.818 -29.4485 897.555 -39.3895 902.9 -47.7428C904.952 -50.9569 907.02 -54.2814 909.015 -57.4972C915.253 -67.5517 921.703 -77.9467 929.612 -87.7481C938.716 -99.1145 949.004 -108.728 960.192 -116.319C972.944 -124.972 986.532 -130.733 1000.58 -133.437C1009.29 -135.114 1018.18 -135.932 1027.74 -135.932H1028.36C1058.06 -135.823 1088.62 -126.226 1111.93 -117.876C1136.77 -108.982 1161.1 -96.5977 1182.3 -82.0641C1205.93 -65.9186 1227.29 -46.4195 1245.78 -24.1067C1262.38 -4.08537 1276.47 17.9177 1287.67 41.2878L1287.02 41.45C1270.36 6.67453 1238.59 -42.9199 1181.83 -81.709C1160.67 -96.2101 1136.4 -108.564 1111.63 -117.436C1088.37 -125.762 1057.91 -135.332 1028.36 -135.437C1018.63 -135.478 1009.6 -134.663 1000.77 -132.962C974.736 -127.95 949.678 -111.804 930.212 -87.5C922.321 -77.7212 915.877 -67.336 909.646 -57.2945C907.651 -54.0771 905.588 -50.751 903.529 -47.5352C898.198 -39.203 893.465 -29.275 888.456 -18.7633C877.722 3.75548 865.556 29.2792 843.237 47.7356C830.849 57.9814 816.271 65.0357 798.67 69.304C783.745 72.9122 767.62 74.6718 749.392 74.6718Z" fill="#FDFCFC"/>
<path d="M767.639 76.9549C764.1 76.9549 760.481 76.8738 756.781 76.7116C740.575 76.0029 724.825 73.8769 708.774 71.5741C690.164 68.9048 671.382 65.3339 651.318 60.6569C635.454 56.927 619.897 52.6717 605.077 48.0078C567.487 36.2149 530.163 18.8547 484.059 -8.27933C472.609 -15.0174 461.164 -22.0847 450.087 -28.9202C444.061 -32.65 437.832 -36.4885 431.663 -40.246C398.908 -60.1343 364.555 -74.5803 329.564 -83.185C283.328 -94.5563 235.806 -96.645 184.285 -89.5501C157.062 -85.8073 129.337 -79.9351 104.097 -72.5694C83.8235 -66.6535 66.1627 -58.3456 47.4621 -49.5415L46.1693 -48.9334C43.2479 -47.5549 40.2946 -46.1581 37.3093 -44.7429L32.1063 -42.2796C21.2011 -37.0902 9.42715 -31.6867 -4.07959 -27.5223C-19.7569 -22.6896 -35.2677 -20.3122 -51.5036 -20.2539C-78.5216 -20.1614 -106.08 -24.6324 -132.726 -28.9493C-136.532 -29.5656 -140.465 -30.2045 -144.284 -30.8094C-162.188 -33.6473 -176.306 -35.282 -188.712 -35.9518C-234.499 -38.4281 -277.709 -36.6832 -307.272 -31.1629L-307.461 -31.6721C-277.821 -37.207 -234.526 -38.9584 -188.659 -36.4772C-176.217 -35.8042 -162.068 -34.1663 -144.129 -31.3235C-140.305 -30.7186 -136.377 -30.0797 -132.567 -29.4634C-106.244 -25.1935 -79.0346 -20.7793 -52.3745 -20.7793H-51.5127C-17.0277 -20.9025 7.51877 -31.2262 31.6822 -42.7158L36.8852 -45.1775C39.8766 -46.5938 42.8314 -47.9912 45.7498 -49.3696L47.0426 -49.9777C65.7728 -58.7884 83.4633 -67.1108 103.815 -73.0462C129.098 -80.4233 156.875 -86.3067 184.144 -90.0577C235.797 -97.1623 283.444 -95.0736 329.806 -83.6731C364.886 -75.0458 399.316 -60.5657 432.144 -40.6352C438.316 -36.8778 444.547 -33.0295 450.573 -29.3077C461.64 -22.4739 473.081 -15.4082 484.524 -8.67339C530.58 18.4282 567.845 35.7608 605.364 47.5375C620.162 52.1852 635.688 56.4324 651.534 60.1591C671.555 64.8295 690.319 68.3956 708.899 71.0616C737.103 75.1077 772.203 80.1431 807.167 72.3866C825.136 68.3988 839.714 61.3461 851.734 50.8295C873.75 31.5622 883.958 4.46713 892.966 -19.4398C896.878 -29.8186 900.574 -39.6346 904.888 -47.7755C906.568 -50.9475 908.251 -54.2282 909.881 -57.4018C915.353 -68.0449 920.994 -79.0497 928.249 -89.5112C936.432 -101.408 945.953 -111.639 956.555 -119.923C968.566 -129.307 981.685 -135.937 995.543 -139.623C1004.51 -141.999 1013.89 -143.498 1023.42 -144.079C1036.62 -144.929 1050.68 -144.021 1066.39 -141.309C1079.7 -139.024 1093.95 -135.457 1109.97 -130.417C1135.81 -122.29 1160.96 -110.36 1182.7 -95.9152C1206.96 -79.8459 1228.48 -60.1554 1246.68 -37.3902C1263.06 -16.8905 1276.41 5.6169 1286.35 29.506L1285.64 29.6552C1264.65 -20.7793 1227.91 -65.2378 1182.19 -95.5309C1160.52 -109.935 1135.44 -121.835 1109.68 -129.935C1075.15 -140.791 1047.78 -145.12 1023.51 -143.557C1014.04 -142.98 1004.73 -141.491 995.826 -139.132C962.846 -130.363 941.245 -107.184 928.933 -89.2825C921.694 -78.8421 916.053 -67.8503 910.595 -57.2202C908.967 -54.0465 907.28 -50.7643 905.599 -47.589C901.299 -39.4806 897.619 -29.6758 893.7 -19.3019C884.674 4.65363 874.443 31.8087 852.327 51.1619C840.214 61.7629 825.519 68.8691 807.411 72.8925C795.122 75.6105 782.028 76.9549 767.639 76.9549Z" fill="#FDFCFC"/>
<path d="M783.446 79.577C759.335 79.577 736.155 75.1709 716.323 71.4021C697.664 67.8571 678.881 63.4266 658.901 57.8594C643.126 53.4322 627.665 48.5104 612.964 43.2318C568.88 27.4285 529.58 4.74107 493.679 -17.4193C486.346 -21.9438 478.943 -26.6077 471.791 -31.1176C461.848 -37.3806 451.567 -43.856 441.266 -50.0914C408.015 -70.1873 372.552 -83.8467 335.864 -90.7C288.401 -99.5657 239.192 -97.9262 185.411 -85.6857C157.725 -79.3839 130.023 -70.8619 105.299 -61.0361C86.2314 -53.4612 70.1004 -43.8998 53.0209 -33.7772L49.3729 -31.6204L48.7117 -31.2279C44.5598 -28.7646 40.2757 -26.2185 35.9118 -23.6628C25.483 -17.5133 13.9987 -11.1514 0.715393 -6.28963C-14.7042 -0.647797 -30.2493 2.16583 -46.8112 2.3053C-75.888 2.56314 -105.521 -3.25061 -134.174 -8.87299C-136.182 -9.26651 -138.181 -9.65788 -140.173 -10.0471C-159.072 -13.7348 -172.854 -15.9208 -184.861 -17.1371C-229.498 -21.6551 -274.424 -23.0757 -308.117 -21.0291L-308.184 -21.5935C-274.44 -23.64 -229.444 -22.2178 -184.749 -17.6933C-172.704 -16.4738 -158.889 -14.2878 -139.958 -10.5903L-133.957 -9.41463C-105.357 -3.80359 -75.7832 1.99556 -46.818 1.74258C-10.8465 1.41824 14.4866 -11.7644 35.4079 -24.1022C39.7604 -26.658 44.0536 -29.204 48.2055 -31.6658L48.8667 -32.0582L52.5147 -34.215C69.6147 -44.3554 85.7822 -53.9331 104.916 -61.5324C129.684 -71.3711 157.436 -79.9077 185.172 -86.2209C210.667 -92.0249 234.614 -95.3753 258.378 -96.4635C284.888 -97.6781 311.026 -95.9218 336.069 -91.2433C372.875 -84.3689 408.441 -70.6689 441.779 -50.5292C452.087 -44.2857 462.37 -37.8087 472.315 -31.5441C479.472 -27.0342 486.875 -22.3719 494.203 -17.849C530.063 4.28214 569.316 26.9436 613.32 42.7193C628.005 47.9898 643.438 52.9035 659.191 57.3242C679.143 62.8834 697.896 67.3073 716.526 70.8474C745.131 76.2833 780.733 83.049 815.909 75.9298C834.377 72.1999 849.042 65.1002 860.772 54.2398C882.56 34.0676 890.714 5.30379 897.907 -20.0756C900.796 -30.2711 903.527 -39.9039 906.892 -47.8064C908.137 -50.7254 909.387 -53.7547 910.595 -56.6786C915.324 -68.1148 920.214 -79.9417 926.902 -91.2822C934.179 -103.716 942.937 -114.568 952.93 -123.533C964.207 -133.65 976.856 -141.146 990.527 -145.811C999.401 -148.841 1008.81 -151.001 1018.5 -152.233C1031.9 -153.973 1046.77 -153.915 1062.68 -152.06C1076.63 -150.438 1091.87 -147.371 1108 -142.952C1134.85 -135.595 1160.81 -124.118 1183.08 -109.763C1207.97 -93.7698 1229.66 -73.8864 1247.56 -50.6687C1263.73 -29.6906 1276.34 -6.67885 1285.03 17.7275L1284.26 17.867C1265.84 -33.8534 1229.72 -79.0239 1182.55 -109.349C1160.35 -123.658 1134.47 -135.097 1107.71 -142.432C1073.03 -151.936 1043.89 -154.963 1018.64 -151.675C1009.03 -150.451 999.684 -148.307 990.874 -145.301C958.347 -134.2 938.534 -109.679 927.64 -91.0632C920.969 -79.7504 916.085 -67.9413 911.363 -56.5213C910.153 -53.6023 908.903 -50.5714 907.658 -47.6442C904.302 -39.7612 901.578 -30.143 898.691 -19.9588C895.23 -7.74916 891.306 6.08868 885.613 19.0622C879.09 33.9265 871.172 45.5475 861.406 54.5901C855.759 59.8184 849.27 64.2683 842.118 67.8149C834.425 71.6307 825.681 74.5465 816.126 76.4796C805.195 78.6899 794.226 79.577 783.446 79.577Z" fill="#FDFCFC"/>
<path d="M797.698 82.4434C789.718 82.4434 781.376 81.892 772.552 80.7909C755.178 78.6211 738.548 74.6885 723.874 71.2229C705.379 66.8444 686.069 61.4085 666.48 55.0531C650.805 49.94 635.451 44.35 620.843 38.4422C578.921 21.4988 542.803 -1.02637 503.293 -26.5744C499.782 -28.8448 496.225 -31.1622 492.766 -33.4017C479.191 -42.2221 465.151 -51.3424 450.849 -59.96C417.052 -80.2798 380.483 -93.1527 342.159 -98.2188C293.823 -104.61 241.451 -99.0946 186.531 -81.8285C158.35 -72.9676 130.671 -61.7974 106.503 -49.5229C88.2968 -40.2793 73.3104 -29.3848 57.4438 -17.8481C55.8266 -16.6837 54.2039 -15.5069 52.576 -14.3177C48.5222 -11.376 44.1606 -8.21855 39.7191 -5.05788C30.4099 1.59103 19.0646 9.17078 5.5191 14.9342C-9.6543 21.3853 -25.2358 24.6368 -42.1192 24.8719C-73.0223 25.3049 -104.479 18.0268 -134.902 10.9903L-136.062 10.7211C-150.957 7.27666 -166.714 3.79816 -181.019 1.6851C-224.622 -4.75461 -270.064 -9.2256 -308.973 -10.9041L-308.92 -11.5106C-269.973 -9.83049 -224.487 -5.34816 -180.846 1.0883C-166.5 3.20786 -150.716 6.69284 -135.798 10.1438L-134.637 10.4114C-104.281 17.4333 -72.8878 24.6936 -42.1351 24.2638C-6.62186 23.7676 17.9064 9.66864 39.1241 -5.48601C43.5609 -8.64668 47.9225 -11.8106 51.9741 -14.7442C53.602 -15.9226 55.2216 -17.0984 56.8328 -18.2714C72.7267 -29.8275 87.7405 -40.7431 106.006 -50.0159C130.224 -62.3196 157.951 -73.5092 186.186 -82.3896C211.95 -90.498 237.306 -96.0717 261.545 -98.9778C289.238 -102.297 316.413 -102.245 342.314 -98.8156C380.787 -93.73 417.49 -80.8149 451.403 -60.4255C465.717 -51.7997 479.761 -42.6745 493.355 -33.8509C496.802 -31.6097 500.368 -29.294 503.879 -27.0252C543.353 -1.50153 579.432 21.001 621.279 37.9135C635.871 43.8132 651.195 49.3934 666.847 54.5001C686.407 60.8474 705.689 66.2784 724.155 70.6456C753.111 77.4924 789.135 86.0127 824.661 79.4854C843.608 76.0037 858.378 68.8666 869.806 57.664C891.354 36.5578 897.59 4.74359 902.599 -20.8255C904.55 -30.7811 906.395 -40.1852 908.894 -47.8412C909.68 -50.2542 910.476 -52.7403 911.242 -55.1388C915.234 -67.6257 919.361 -80.5522 925.554 -93.0457C935.114 -112.493 953.269 -138.502 985.502 -151.999C994.278 -155.689 1003.72 -158.511 1013.57 -160.386C1039.7 -165.473 1070.81 -163.827 1106.03 -155.497C1133.89 -148.908 1160.67 -137.89 1183.48 -123.619C1208.99 -107.701 1230.85 -87.6179 1248.46 -63.9526C1256.69 -52.8403 1263.77 -41.3196 1269.66 -29.4805C1275.43 -17.9044 1280.13 -6.07083 1283.72 5.94362L1282.88 6.07011C1267.04 -46.9298 1231.54 -92.8251 1182.92 -123.162C1160.19 -137.374 1133.51 -148.355 1105.76 -154.919C1070.7 -163.211 1039.76 -164.854 1013.79 -159.799C1004.02 -157.938 994.646 -155.138 985.935 -151.475C953.931 -138.072 935.873 -112.196 926.365 -92.8494C920.189 -80.3868 916.067 -67.4863 912.081 -55.009C911.313 -52.6025 910.519 -50.1164 909.731 -47.7017C907.241 -40.0798 905.399 -30.6821 903.451 -20.7396C900.93 -7.87636 898.073 6.70419 893.191 20.4626C887.58 36.274 880.159 48.5583 870.503 58.0159C864.995 63.4113 858.554 67.9617 851.351 71.5392C843.599 75.3955 834.689 78.2643 824.865 80.0692C816.242 81.652 807.242 82.4434 797.698 82.4434Z" fill="#FDFCFC"/>
<path d="M810.83 85.4769C801.277 85.4769 791.202 84.5947 780.438 82.8303C763 79.9713 746.224 75.2263 731.418 71.0391C712.781 65.7702 693.481 59.4456 674.051 52.2437C658.478 46.4478 643.225 40.1897 628.715 33.6462C588.79 15.6455 554.544 -7.53484 518.288 -32.0855L512.898 -35.7343C496.04 -47.138 478.604 -58.9244 460.433 -69.827C426.046 -90.4046 388.369 -102.489 348.448 -105.746C298.302 -109.837 244.2 -100.496 187.64 -77.9825C159.352 -66.7215 130.955 -52.522 107.678 -38.0144C90.1038 -27.0567 76.0088 -14.727 61.0862 -1.67247C59.3215 -0.127533 57.5469 1.42226 55.7625 2.97691C52.1988 6.08569 47.9534 9.77179 43.512 13.5422C35.288 20.543 24.0773 29.4347 10.2924 36.1323C-4.63705 43.3828 -20.2596 47.0786 -37.4554 47.4273C-51.5914 47.6787 -67.1911 46.13 -85.1461 42.6823C-100.564 39.7243 -115.47 35.8582 -131.982 31.478C-147.046 27.4335 -162.944 23.2529 -177.208 20.4927C-219.456 12.3178 -264.076 5.15646 -309.852 -0.790253L-309.687 -1.42921C-263.896 4.52237 -219.242 11.687 -176.969 19.8668C-162.666 22.635 -146.743 26.8206 -131.66 30.8715C-103.999 38.2129 -69.5737 47.3527 -37.4805 46.7803C-0.772461 46.0327 22.7959 30.1645 42.812 13.1254C47.2512 9.35825 51.492 5.66566 55.0556 2.56662C56.8401 1.01305 58.6147 -0.536209 60.3794 -2.08113C75.3271 -15.1568 89.4449 -27.5075 107.076 -38.5009C130.398 -53.0442 158.853 -67.2648 187.195 -78.5485C243.924 -101.13 298.213 -110.496 348.551 -106.391C367.99 -104.791 386.983 -101.129 404.897 -95.5259C424.302 -89.4786 443.185 -81.0005 461.019 -70.3265C479.213 -59.4174 496.657 -47.6229 513.527 -36.2063L518.917 -32.5591C555.139 -8.03108 589.353 15.1363 629.205 33.0948C643.692 39.6286 658.923 45.877 674.472 51.6664C693.875 58.8569 713.148 65.1718 731.753 70.4342C760.998 78.7048 797.392 88.9976 833.381 83.0266C852.875 79.7929 867.741 72.6121 878.829 61.0754C900.183 39.0399 903.989 5.37863 907.046 -21.6678C908.138 -31.3428 909.173 -40.4794 910.886 -47.8678C911.238 -49.3922 911.592 -50.9247 911.946 -52.4653C915.138 -66.3826 918.448 -80.7718 924.196 -94.8156C932.404 -115.015 948.82 -142.406 980.467 -158.181C989.147 -162.528 998.623 -166.012 1008.63 -168.534C1022.7 -172.133 1038.38 -173.824 1055.23 -173.561C1070.62 -173.325 1087.04 -171.465 1104.05 -168.035C1132.93 -162.214 1160.52 -151.646 1183.87 -137.469C1210.01 -121.629 1232.04 -101.361 1249.34 -77.2316C1257.43 -65.9005 1264.26 -54.1366 1269.77 -42.0476C1275.19 -30.204 1279.41 -18.101 1282.4 -5.83046L1281.5 -5.71857C1268.45 -59.2196 1232.64 -107.059 1183.27 -136.971C1160.02 -151.08 1132.55 -161.611 1103.81 -167.405C1068.38 -174.551 1035.57 -174.726 1008.94 -167.915C999.01 -165.411 989.609 -161.955 980.993 -157.643C949.566 -141.976 933.239 -114.727 925.076 -94.6275C919.344 -80.6194 916.043 -66.248 912.851 -52.3534C912.495 -50.8117 912.142 -49.2786 911.791 -47.7543C910.083 -40.3918 909.055 -31.2682 907.96 -21.6078C904.894 5.51648 901.077 39.2735 879.583 61.45C874.239 67.0124 867.848 71.6666 860.591 75.2798C852.78 79.1718 843.696 81.9903 833.591 83.6671C826.127 84.8897 818.49 85.497 810.83 85.4769Z" fill="#FDFCFC"/>
<path d="M823.169 88.6327C812.284 88.6327 800.752 87.3824 788.324 84.8672C770.74 81.3108 753.859 75.7565 738.966 70.8574C720.147 64.6642 700.856 57.4574 681.631 49.435C666.171 42.9644 651.02 36.0398 636.596 28.8525C601.081 11.1632 570.727 -10.5074 538.591 -33.451C533.347 -37.2003 527.907 -41.0729 522.514 -44.8904C503.568 -58.2855 487.389 -69.3308 470.022 -79.6917C435.024 -100.542 396.241 -111.84 354.75 -113.274C302.608 -115.075 246.762 -101.907 188.766 -74.1358C159.949 -60.3385 131.579 -43.4244 108.877 -26.5053C91.7769 -13.7605 78.4046 0.113022 64.2504 14.8006C62.4978 16.6202 60.7361 18.4445 58.9654 20.2738C55.8076 23.535 51.6329 27.8325 47.3191 32.1429C29.168 50.3188 5.47198 69.0363 -32.7727 69.9882C-33.9652 70.0142 -35.1622 70.0288 -36.3569 70.0288C-66.2249 70.0288 -96.6994 61.6236 -127.885 52.2372L-129.83 51.6469C-145.279 46.957 -159.869 42.5282 -173.378 39.3043C-224.281 27.1546 -273.509 16.8991 -310.707 9.32257L-310.44 8.65929C-273.231 16.239 -223.992 26.4978 -173.07 38.6507C-159.527 41.8828 -144.919 46.3181 -129.452 51.0128L-127.507 51.6031C-95.1809 61.3333 -63.6097 70.0093 -32.8069 69.299C5.00458 68.3519 28.5251 49.782 46.5211 31.7424C50.8303 27.4368 55.0027 23.1474 58.1491 19.883C59.9214 18.0559 61.6823 16.2315 63.4319 14.4098C77.6089 -0.300507 91.0016 -14.1967 108.159 -26.9821C130.906 -43.9336 159.333 -60.8834 188.205 -74.7067C215.015 -87.5375 241.821 -97.3908 267.9 -103.998C297.811 -111.572 327.052 -114.928 354.807 -113.968C396.515 -112.528 435.494 -101.176 470.656 -80.2269C488.05 -69.8481 504.245 -58.7931 523.21 -45.3866C528.602 -41.5724 534.035 -37.695 539.288 -33.944C571.393 -11.0231 601.717 10.6264 637.164 28.2817C651.565 35.4576 666.695 42.3725 682.133 48.8349C701.33 56.8461 720.594 64.0415 739.386 70.225C768.884 79.9308 805.597 92.009 842.134 86.5715C862.109 83.599 877.068 76.376 887.873 64.4891C908.958 41.4498 910.217 5.89433 911.248 -22.6749C911.581 -31.9964 911.895 -40.8021 912.901 -47.8954L912.923 -48.0575C915.181 -63.9501 917.513 -80.3729 922.86 -96.5816C927.49 -110.719 933.941 -123.432 942.028 -134.367C951.148 -146.692 962.393 -156.787 975.452 -164.368C984.035 -169.376 993.542 -173.523 1003.71 -176.693C1031.47 -185.432 1065.5 -186.781 1102.1 -180.585C1117.05 -178.035 1131.54 -174.273 1145.29 -169.371C1159.21 -164.435 1172.29 -158.383 1184.28 -151.333C1211.06 -135.569 1233.25 -115.109 1250.25 -90.5197C1265.53 -68.421 1276.2 -43.2136 1281.1 -17.6201L1280.14 -17.5277C1269.65 -72.3017 1234.49 -120.878 1183.66 -150.799C1159.87 -164.811 1131.59 -174.878 1101.86 -179.904C1065.47 -186.055 1031.66 -184.725 1004.09 -176.046C993.998 -172.903 984.562 -168.791 976.043 -163.825C951.658 -149.669 933.587 -126.364 923.781 -96.4194C918.448 -80.2528 916.118 -63.8462 913.865 -47.9813L913.842 -47.8191C912.839 -40.7502 912.524 -31.9574 912.194 -22.649C911.17 6.00786 909.898 41.6703 888.662 64.8734C883.454 70.6028 877.109 75.3576 869.809 79.0031C861.936 82.9341 852.683 85.7104 842.31 87.2543C836.013 88.1823 829.599 88.6443 823.169 88.6327Z" fill="#FDFCFC"/>
<path d="M-32.0632 92.6035C-45.4171 92.6035 -59.9544 90.7532 -76.3636 86.9746C-92.6678 83.2204 -108.792 78.0375 -123.788 72.9973C-126.504 72.0794 -129.2 71.1648 -131.875 70.2534C-145.199 65.7241 -157.782 61.446 -169.547 58.1151C-216.449 44.8303 -261.155 32.893 -304.389 21.3482L-311.555 19.4347L-311.194 18.7519L-304.028 20.6655C-260.79 32.2103 -216.08 44.1508 -169.166 57.4372C-157.372 60.7779 -144.77 65.0591 -131.432 69.5999C-128.757 70.5091 -126.062 71.4232 -123.348 72.3421C-92.5675 82.6901 -59.8541 92.717 -28.1302 91.8235C10.8578 90.6688 34.2346 69.0615 50.238 50.3683C54.342 45.586 58.2841 40.8231 61.2663 37.2067C62.9125 35.212 64.5496 33.2217 66.1775 31.2357C79.6979 14.7675 92.4681 -0.787766 109.269 -15.4543C131.431 -34.8172 159.831 -54.4931 189.243 -70.864C216.525 -86.0527 244.056 -98.0532 271.074 -106.53C302.064 -116.26 332.333 -121.302 361.041 -121.53C404.238 -121.988 444.359 -111.419 480.285 -90.1167C500.194 -78.2946 518.044 -65.506 532.88 -54.5531C540.953 -48.5934 549.029 -42.4845 556.836 -36.5767C584.476 -15.657 613.058 5.9633 645.115 23.4791C659.433 31.3054 674.461 38.8851 689.783 46.0206C708.741 54.8214 727.993 62.9007 747.011 70.0328C776.73 81.1803 813.719 95.0555 850.88 90.1304C871.334 87.4206 886.389 80.1554 896.907 67.9133C917.714 43.8297 916.31 6.32657 915.181 -23.8076C914.846 -32.7269 914.531 -41.1369 914.91 -47.9139C915.767 -63.1918 917.053 -80.9477 921.522 -98.3386C925.279 -113.075 930.959 -126.407 938.394 -137.963C946.807 -151.035 957.587 -161.995 970.432 -170.538C978.929 -176.19 988.466 -180.995 998.782 -184.82C1013.48 -190.287 1029.97 -193.723 1047.8 -195.036C1064.5 -196.264 1082.1 -195.619 1100.13 -193.12C1131.06 -188.778 1160.06 -179.194 1184.67 -165.181C1198.62 -157.193 1211.46 -147.759 1222.81 -137.142C1233.56 -127.088 1243.1 -115.864 1251.14 -103.799C1266.19 -81.2266 1276.1 -55.4986 1279.79 -29.3959L1278.77 -29.3229C1270.85 -85.3733 1236.32 -134.684 1184.02 -164.612C1160.07 -178.335 1130.21 -188.204 1099.93 -192.403C1062.5 -197.592 1027.69 -194.749 999.256 -184.178C989.016 -180.381 979.548 -175.612 971.114 -170.001C946.91 -153.904 930.557 -129.747 922.509 -98.204C918.058 -80.852 916.773 -63.1351 915.92 -47.8815C915.541 -41.1288 915.856 -32.7236 916.191 -23.8238C916.747 -8.95781 917.379 7.89313 915.261 24.1781C912.805 43.0805 907.083 57.5118 897.766 68.2879C892.693 74.1892 886.398 79.0446 879.052 82.7209C871.115 86.694 861.697 89.4233 851.054 90.8293C845.753 91.5247 840.374 91.871 834.984 91.864C803.048 91.864 772.102 80.256 746.52 70.6588C727.478 63.5234 708.196 55.4247 689.213 46.6109C673.868 39.4754 658.82 31.8811 644.479 24.0435C612.358 6.49199 583.749 -15.1559 556.079 -36.0919C548.274 -41.998 540.201 -48.1053 532.139 -54.0617C517.319 -65 499.496 -77.7708 479.626 -89.5767C443.905 -110.764 404.016 -121.273 361.066 -120.822C293.607 -120.283 230.743 -93.0568 189.886 -70.3094C160.515 -53.9499 132.179 -34.3145 110.058 -14.9986C93.3117 -0.375839 80.562 15.155 67.0621 31.5989C65.4327 33.586 63.7949 35.5769 62.1487 37.5716C59.1642 41.1896 55.213 45.9573 51.1112 50.7429C44.3943 58.5902 33.8494 70.0118 19.8752 78.5759C13.0922 82.7323 5.87375 86.0016 -1.57956 88.2882C-9.9744 90.8536 -18.9614 92.2983 -28.0914 92.55C-29.4047 92.5846 -30.7286 92.6024 -32.0632 92.6035Z" fill="#FDFCFC"/>
<path d="M-27.7756 115.182C-41.1432 115.182 -55.6532 113.191 -71.9757 109.123C-88.875 104.907 -105.583 98.9928 -119.698 93.758C-124.03 92.1461 -128.362 90.5146 -132.548 88.9302C-144.249 84.5095 -155.303 80.3353 -165.725 76.9297C-203.149 64.686 -240.333 52.731 -276.293 41.17C-288.186 37.3461 -300.486 33.3859 -312.406 29.5522L-311.95 28.85C-300.03 32.6902 -287.732 36.6439 -275.837 40.4678C-239.877 52.0304 -202.69 63.9823 -165.257 76.2292C-154.808 79.6477 -143.741 83.8268 -132.026 88.2524C-127.843 89.8335 -123.515 91.4666 -119.183 93.0785C-89.9125 103.934 -55.961 115.425 -23.4505 114.344C16.4518 112.985 38.8733 89.3892 53.9464 68.9851C57.811 63.7584 61.5479 58.5107 64.3706 54.5229C65.8192 52.4764 67.2632 50.432 68.7026 48.3897C81.6279 30.042 93.8441 12.7094 110.356 -3.93883C131.833 -25.5851 160.21 -47.9887 190.263 -67.0224C232.112 -93.4137 296.794 -125.607 367.275 -129.101C412.103 -131.381 453.357 -121.595 489.894 -100.014C506.31 -90.3146 522.543 -79.1234 542.534 -63.7303C552.639 -55.9463 562.662 -47.8881 572.359 -40.0927C597.581 -19.8102 623.659 1.16301 653.046 18.6691C667.285 27.1505 682.212 35.4 697.415 43.1874C715.824 52.6077 735.069 61.5692 754.613 69.8236C784.634 82.4257 821.996 98.1106 859.605 93.6721C880.225 91.2882 895.809 83.7717 905.921 71.3333C926.441 46.1599 922.038 4.97559 918.821 -25.097C917.909 -33.5297 917.068 -41.5052 916.899 -47.9352C916.525 -62.2254 916.555 -81.0694 920.153 -100.098C926.356 -133.077 941.585 -158.854 965.388 -176.715C973.777 -183.032 983.346 -188.499 993.828 -192.962C1008.8 -199.36 1025.7 -203.666 1044.05 -205.748C1061.34 -207.713 1079.54 -207.683 1098.14 -205.655C1113.92 -203.89 1129.32 -200.727 1144 -196.24C1158.67 -191.789 1172.46 -186.005 1185.04 -179.032C1199.31 -171.086 1212.35 -161.623 1223.79 -150.896C1234.63 -140.731 1244.13 -129.352 1252.02 -117.077C1266.84 -94.0299 1275.98 -67.7781 1278.45 -41.1695L1277.37 -41.1192C1272.05 -98.449 1238.16 -148.496 1184.37 -178.426C1159.99 -192.004 1129.31 -201.405 1097.97 -204.895C1059.35 -209.111 1023.53 -204.749 994.392 -192.302C983.994 -187.875 974.501 -182.451 966.179 -176.185C942.526 -158.443 927.403 -132.811 921.229 -99.9961C917.645 -81.0224 917.613 -62.2108 917.987 -47.9497C918.153 -41.5425 919.006 -33.5816 919.906 -25.1537C921.568 -9.60985 923.452 8.00813 922.373 25.211C921.119 45.2404 916.044 60.4535 906.869 71.7193C901.929 77.7958 895.679 82.7581 888.297 86.4685C880.292 90.4919 870.699 93.171 859.797 94.4326C842.879 96.4289 824.671 94.6337 804.13 88.9465C786.276 84.002 769.171 76.8227 754.077 70.4868C734.506 62.2162 715.233 53.2467 696.797 43.8133C681.573 36.0146 666.623 27.7587 652.367 19.2594C622.92 1.71762 596.812 -19.2784 571.563 -39.5819C561.871 -47.3757 551.851 -55.4338 541.755 -63.2082C521.798 -78.5753 505.594 -89.7438 489.219 -99.422C452.887 -120.862 411.893 -130.592 367.353 -128.322C297.172 -124.845 232.705 -92.7488 190.981 -66.437C160.99 -47.4405 132.673 -25.084 111.241 -3.48474C94.7767 13.1116 82.5787 30.4182 69.667 48.7335C68.2291 50.7758 66.7851 52.8202 65.335 54.8667C62.5101 58.8593 58.7709 64.1103 54.9018 69.3419C39.6942 89.9259 17.0537 113.731 -23.414 115.109C-24.8534 115.158 -26.3073 115.182 -27.7756 115.182Z" fill="#FDFCFC"/>
<path d="M-23.4044 137.761C-59.93 137.761 -98.2522 121.805 -132.229 107.659C-142.669 103.311 -152.521 99.2066 -161.903 95.7346L-313.254 39.6599L-312.727 38.9416L-161.376 95.0146C-151.98 98.4963 -142.106 102.607 -131.654 106.958C-96.3643 121.651 -56.3686 138.304 -18.7942 136.862C22.0018 135.296 43.4931 109.717 57.6588 87.6067C62.2917 80.3772 66.7673 73.0115 71.0948 65.902C82.928 46.4418 95.167 26.3183 111.451 7.59111C124.383 -7.27975 140.45 -22.8755 157.908 -37.508C177.06 -53.5627 197.569 -68.2908 218.859 -81.2837C242.332 -95.6081 266.199 -107.458 289.795 -116.5C315.894 -126.504 341.608 -133.041 366.22 -135.912C415.53 -141.677 460.384 -132.928 499.516 -109.905C532.038 -90.769 559.681 -67.1167 586.414 -44.2396C609.683 -24.3253 633.744 -3.73311 660.992 13.8671C692.646 34.2982 726.493 52.9415 762.224 69.627C792.32 83.6741 829.753 101.154 868.34 97.2249C900.933 93.9086 919.775 78.3972 925.944 49.8069C931.188 25.4816 926.202 -3.35851 922.189 -26.5389C920.821 -34.4381 919.531 -41.8995 918.897 -47.9451C915.399 -81.3 917.629 -108.835 925.714 -132.12C930.757 -146.647 938.199 -159.598 947.83 -170.613C958.592 -182.915 972.406 -193.17 988.888 -201.1C1003.15 -207.955 1019.22 -212.939 1036.66 -215.897C1053.26 -218.718 1070.74 -219.664 1088.61 -218.707C1123.76 -216.826 1158.14 -207.654 1185.42 -192.882C1200.01 -184.986 1213.23 -175.486 1224.77 -164.65C1235.7 -154.378 1245.16 -142.838 1252.9 -130.353C1267.5 -106.838 1275.86 -80.061 1277.13 -52.9416L1275.99 -52.914C1273.3 -110.664 1239.18 -162.747 1184.73 -192.235C1126.9 -223.551 1044.81 -226.995 989.531 -200.426C934.775 -174.106 912.043 -124.25 920.039 -48.01C920.671 -41.979 921.961 -34.5273 923.327 -26.6378C927.346 -3.40877 932.349 25.501 927.078 49.9301C924.205 63.2279 918.432 73.931 909.918 81.7151C905.238 86.026 899.409 89.6378 892.763 92.3436C885.743 95.1913 877.583 97.1049 868.507 98.0276C864.757 98.4079 860.974 98.5975 857.186 98.5952C843.203 98.5952 828.31 96.08 811.99 90.9847C793.602 85.2439 775.861 76.962 761.602 70.305C725.818 53.5964 691.921 34.9271 660.222 14.4671C632.916 -3.17201 608.828 -23.7853 585.536 -43.7207C558.835 -66.5702 531.226 -90.1982 498.786 -109.281C459.912 -132.146 415.373 -140.839 366.403 -135.112C267.346 -123.53 165.307 -52.7988 112.411 8.01761C96.168 26.6946 83.9471 46.7905 72.1276 66.2248C67.7956 73.344 63.3223 80.7065 58.6756 87.944C49.2706 102.622 39.9796 113.132 29.4438 121.015C22.866 125.937 15.7296 129.814 8.23978 132.544C-0.145996 135.588 -9.34296 137.336 -18.7463 137.671C-20.2906 137.732 -21.8433 137.762 -23.4044 137.761Z" fill="#FDFCFC"/>
</g>
</g>
</svg>
