<svg width="50" height="50" viewBox="0 0 50 50" fill="none" xmlns="http://www.w3.org/2000/svg">
<path d="M24.8956 0.259766C11.1617 0.259766 0.0283203 11.3932 0.0283203 25.127C0.0283203 38.8608 11.1617 49.9942 24.8956 49.9942C37.2173 49.9942 47.4458 41.0326 49.419 29.2715H49.2405C47.4001 36.4218 40.9094 41.7052 33.1846 41.7052C24.0288 41.7052 16.6065 34.2829 16.6065 25.127C16.6065 15.9711 24.0288 8.54884 33.1846 8.54884C40.9094 8.54884 47.4001 13.8322 49.2405 20.9825H49.419C47.4458 9.22145 37.2173 0.259766 24.8956 0.259766Z" fill="#A4BCFD"/>
<path d="M0.0283203 25.127C0.0283203 11.3932 11.1618 0.259766 24.8956 0.259766C37.2173 0.259766 47.4458 9.22145 49.419 20.9825H32.6623C30.822 13.8322 24.3312 8.54884 16.6065 8.54884C7.45061 8.54884 0.0283203 15.9711 0.0283203 25.127Z" fill="#3538CD"/>
<path d="M0.0283203 25.1269C0.0283203 38.8607 11.1618 49.9941 24.8956 49.9941C37.2173 49.9941 47.4458 41.0325 49.419 29.2714H32.6623C30.822 36.4217 24.3312 41.7051 16.6065 41.7051C7.45061 41.7051 0.0283203 34.2828 0.0283203 25.1269Z" fill="#3538CD"/>
</svg>
