<svg width="50" height="50" viewBox="0 0 50 50" fill="none" xmlns="http://www.w3.org/2000/svg">
<path fill-rule="evenodd" clip-rule="evenodd" d="M24.8672 39.2184C32.6497 39.2184 38.9587 32.9095 38.9587 25.127C38.9587 17.3445 32.6497 11.0356 24.8672 11.0356C17.0847 11.0356 10.7758 17.3445 10.7758 25.127C10.7758 32.9095 17.0847 39.2184 24.8672 39.2184ZM24.8672 49.9942C38.601 49.9942 49.7345 38.8608 49.7345 25.127C49.7345 11.3932 38.601 0.259766 24.8672 0.259766C11.1334 0.259766 0 11.3932 0 25.127C0 38.8608 11.1334 49.9942 24.8672 49.9942Z" fill="#6938EF"/>
<path d="M25.1547 25.6714C27.7444 23.0818 31.9431 23.0818 34.5328 25.6714L47.4275 38.5662C50.0172 41.1559 50.0172 45.3546 47.4275 47.9442C44.8379 50.5339 40.6392 50.5339 38.0495 47.9442L25.1547 35.0495C22.5651 32.4598 22.5651 28.2611 25.1547 25.6714Z" fill="#F670C7"/>
<path d="M28.7734 38.6709L36.963 46.8605C40.8912 44.6697 44.1638 41.4449 46.4127 37.5541L38.2902 29.4316C36.8635 33.8845 33.2824 37.3731 28.7734 38.6709Z" fill="#6519BA"/>
</svg>
