<svg width="50" height="50" viewBox="0 0 50 50" fill="none" xmlns="http://www.w3.org/2000/svg">
<path d="M15.0085 23.2289C15.938 19.7607 19.5029 16.1958 22.9711 15.2663L44.5931 9.47186C48.0612 8.54243 50.1193 10.6005 49.1899 14.0686L43.3954 35.6907C42.4659 39.1588 38.901 42.7238 35.4328 43.6532L13.8108 49.4477C10.3427 50.3771 8.28462 48.3191 9.21405 44.8509L15.0085 23.2289Z" fill="#9E77ED"/>
<path d="M6.34056 14.5609C7.26999 11.0927 10.8349 7.5278 14.3031 6.59837L35.9251 0.803887C39.3933 -0.125542 41.4513 1.9325 40.5219 5.40065L34.7274 27.0227C33.798 30.4908 30.2331 34.0558 26.7649 34.9852L5.14285 40.7797C1.67469 41.7091 -0.383351 39.6511 0.546077 36.1829L6.34056 14.5609Z" fill="#6941C6"/>
</svg>
