<svg width="51" height="50" viewBox="0 0 51 50" fill="none" xmlns="http://www.w3.org/2000/svg">
<path d="M18.1345 35.7855C27.9443 35.7855 35.8968 27.833 35.8968 18.0232C35.8968 16.9114 35.7947 15.8235 35.5992 14.7683C34.544 14.5728 33.4561 14.4707 32.3443 14.4707C22.5345 14.4707 14.582 22.4232 14.582 32.233C14.582 33.3448 14.6842 34.4327 14.8796 35.4879C15.9348 35.6833 17.0227 35.7855 18.1345 35.7855Z" fill="#175CD3"/>
<path fill-rule="evenodd" clip-rule="evenodd" d="M14.8785 35.4888C6.62314 33.9599 0.371094 26.7221 0.371094 18.024C0.371094 8.21418 8.32355 0.261719 18.1334 0.261719C26.8315 0.261719 34.0693 6.51377 35.5982 14.7691C34.543 14.5737 33.455 14.4716 32.3433 14.4716C22.5334 14.4716 14.5809 22.424 14.5809 32.2339C14.5809 33.3457 14.6831 34.4336 14.8785 35.4888Z" fill="#1570EF"/>
<path fill-rule="evenodd" clip-rule="evenodd" d="M18.1338 35.7867C27.9437 35.7867 35.8961 27.8343 35.8961 18.0244C35.8961 16.9127 35.794 15.8247 35.5986 14.7695C43.8539 16.2984 50.106 23.5362 50.106 32.2343C50.106 42.0441 42.1535 49.9966 32.3437 49.9966C23.6456 49.9966 16.4078 43.7445 14.8789 35.4892C15.9341 35.6846 17.022 35.7867 18.1338 35.7867Z" fill="#2E90FA"/>
</svg>
